<?xml version="1.0" encoding="UTF-8"?>
<svg id="Layer_2" data-name="Layer 2" xmlns="http://www.w3.org/2000/svg" viewBox="0 0 1154.68 212.52">
  <defs>
    <style>
      .cls-1 {
        fill: #fff;
      }
    </style>
  </defs>
  <g id="Layer_1-2" data-name="Layer 1">
    <g>
      <path class="cls-1" d="M308.1,103.75c-3.28-2.41-6.91-4.37-10.9-5.89,4.97-2.37,9.05-5.61,12.22-9.74,4.46-5.83,6.7-12.97,6.7-21.42s-1.87-15.04-5.6-20.65c-3.73-5.61-9.11-9.91-16.14-12.89-7.03-2.98-15.74-4.48-26.14-4.48h-66.77v152.98h68.97c8.05,0,15.38-.95,21.96-2.84,6.59-1.89,12.26-4.77,17.02-8.63,4.76-3.86,8.42-8.67,10.98-14.42,2.56-5.75,3.84-12.42,3.84-20,0-6.85-1.43-12.97-4.28-18.36-2.86-5.39-6.81-9.94-11.86-13.66ZM233.09,57.09h29.43c7.03,0,12.34,1.46,15.92,4.37,3.59,2.92,5.38,6.99,5.38,12.24,0,3.35-.81,6.3-2.42,8.85-1.61,2.55-3.84,4.52-6.7,5.9-2.85,1.39-6.33,2.08-10.43,2.08h-31.19v-33.44ZM285.59,148.33c-3.95,3.28-9.44,4.92-16.47,4.92h-36.02v-36.28h34.92c4.83,0,9.01.66,12.52,1.97,3.52,1.31,6.22,3.28,8.13,5.9,1.9,2.62,2.85,5.83,2.85,9.62,0,5.98-1.98,10.6-5.93,13.88Z"/>
      <rect class="cls-1" x="344.67" y="28.68" width="31.19" height="152.98"/>
      <path class="cls-1" d="M481.28,66.05v14.76c-2.11-2.88-4.59-5.48-7.46-7.77-3.67-2.91-7.84-5.21-12.52-6.88-4.69-1.68-9.96-2.52-15.82-2.52-10.1,0-19.11,2.55-27.01,7.65-7.91,5.1-14.17,12.17-18.78,21.2-4.61,9.04-6.92,19.45-6.92,31.25s2.27,21.6,6.81,30.71,10.72,16.28,18.56,21.52c7.83,5.25,16.51,7.87,26.03,7.87,5.41,0,10.54-.84,15.37-2.51,4.83-1.67,9.19-3.9,13.07-6.67,3.27-2.33,6.07-5.02,8.45-8.03v15.03h31.41v-115.61h-31.19ZM478.21,141.01c-2.49,4.95-5.9,8.85-10.21,11.69-4.33,2.84-9.42,4.26-15.27,4.26s-10.76-1.42-15.15-4.26c-4.4-2.84-7.8-6.74-10.22-11.69-2.41-4.95-3.62-10.71-3.62-17.27s1.21-12.53,3.62-17.48c2.42-4.95,5.82-8.85,10.22-11.69,4.39-2.84,9.44-4.27,15.15-4.27s10.94,1.43,15.27,4.27c4.31,2.84,7.72,6.74,10.21,11.69,2.49,4.95,3.73,10.78,3.73,17.48s-1.24,12.32-3.73,17.27Z"/>
      <path class="cls-1" d="M621.41,142.32l16.91,20.54c-4.83,6.27-11.68,11.33-20.53,15.19-8.87,3.86-18.2,5.79-28.01,5.79-11.13,0-21.08-2.62-29.87-7.87-8.79-5.24-15.7-12.41-20.75-21.52-5.06-9.11-7.58-19.27-7.58-30.49s2.52-21.82,7.58-30.92c5.05-9.11,11.96-16.28,20.75-21.53s18.74-7.87,29.87-7.87c10.4,0,19.88,1.94,28.44,5.79,8.57,3.87,15.27,9.15,20.1,15.85l-16.91,20.54c-2.05-2.76-4.61-5.31-7.69-7.65-3.07-2.33-6.4-4.15-9.99-5.46s-7.29-1.97-11.09-1.97c-6.01,0-11.35,1.42-16.04,4.26-4.68,2.84-8.34,6.78-10.98,11.81-2.64,5.02-3.95,10.67-3.95,16.93s1.39,11.66,4.17,16.61c2.78,4.96,6.51,8.89,11.2,11.8,4.69,2.92,9.89,4.37,15.6,4.37,3.8,0,7.43-.54,10.87-1.63,3.44-1.1,6.62-2.74,9.55-4.92,2.93-2.19,5.71-4.74,8.35-7.65Z"/>
      <polygon class="cls-1" points="716.34 116.23 770.1 181.66 732.54 181.66 695.47 135.64 685.1 145.28 685.1 181.66 653.92 181.66 653.92 28.68 685.1 28.68 685.1 110.68 729.25 66.05 770.32 66.05 716.34 116.23"/>
      <path class="cls-1" d="M905.73,117.4c-2.86-5.38-6.81-9.94-11.86-13.66-3.28-2.4-6.92-4.36-10.9-5.88,4.97-2.38,9.05-5.61,12.22-9.74,4.46-5.83,6.7-12.97,6.7-21.42s-1.87-15.04-5.61-20.65c-3.73-5.61-9.11-9.91-16.14-12.89-7.03-2.99-15.74-4.48-26.14-4.48h-66.77v152.98h68.97c8.05,0,15.38-.95,21.96-2.84,6.59-1.9,12.27-4.77,17.03-8.64,4.75-3.86,8.41-8.66,10.98-14.42,2.56-5.75,3.84-12.42,3.84-20,0-6.84-1.43-12.96-4.28-18.36ZM818.86,57.09h29.43c7.03,0,12.34,1.45,15.93,4.37,3.58,2.91,5.38,6.99,5.38,12.24,0,3.35-.81,6.3-2.42,8.85-1.61,2.55-3.84,4.51-6.7,5.9-2.85,1.38-6.33,2.07-10.43,2.07h-31.19v-33.43ZM871.36,148.33c-3.96,3.28-9.45,4.92-16.48,4.92h-36.02v-36.28h34.92c4.84,0,9.01.65,12.52,1.96,3.52,1.32,6.23,3.28,8.13,5.91,1.9,2.62,2.86,5.82,2.86,9.61,0,5.98-1.98,10.6-5.93,13.88Z"/>
      <path class="cls-1" d="M1037.84,66.05v115.61h-29.65l-.59-15.99c-1.04,1.44-2.19,2.84-3.48,4.19-4.17,4.37-9.11,7.79-14.82,10.27-5.71,2.47-11.86,3.71-18.45,3.71-8.35,0-15.6-1.86-21.75-5.57-6.15-3.72-10.87-9.03-14.16-15.95-3.3-6.92-4.94-15.19-4.94-24.81v-71.46h31.18v65.78c0,8.16,1.94,14.53,5.82,19.12,3.88,4.59,9.26,6.89,16.15,6.89,3.51,0,6.7-.55,9.55-1.64,2.86-1.1,5.31-2.66,7.36-4.7,2.05-2.04,3.66-4.45,4.83-7.21,1.17-2.77,1.76-5.83,1.76-9.18v-69.06h31.19Z"/>
      <rect class="cls-1" x="1065.07" y="28.68" width="31.19" height="152.98"/>
      <rect class="cls-1" x="1123.49" y="28.68" width="31.19" height="152.98"/>
      <path class="cls-1" d="M112.34,146.76L5.03,212.02c-2.13,1.29-5.03-.06-5.03-2.34v-45.58c0-1,.59-1.92,1.56-2.44l80.09-38.28c2.93-1.55,3.79-4.95,1.88-7.46l-22.85-29.97L5.03,119.42c-2.13,1.29-5.03-.06-5.03-2.34v-45.58c0-.99.59-1.92,1.56-2.43l58.08-24.34c2.93-1.55,3.8-4.95,1.89-7.46L36.5,4.45c-1.91-2.5,1.33-5.56,4.29-4.05l47.66,24.19c18.64,9.46,19.65,32.83,1.88,43.52l-22.46,13.51,42.58,21.62c18.64,9.46,19.66,32.83,1.89,43.52Z"/>
    </g>
  </g>
</svg>