<?xml version="1.0" encoding="UTF-8"?>
<svg id="Layer_2" data-name="Layer 2" xmlns="http://www.w3.org/2000/svg" viewBox="0 0 740.26 190.07">
  <g id="Layer_1-2" data-name="Layer 1">
    <g>
      <g>
        <path d="M353.77,67.86l-25.09-.11-5.33,13.94-13.56.43,24.3-62.49,14.61-.11,24.55,62.25h-14.4s-5.08-13.91-5.08-13.91ZM349.77,57.13l-8.65-23.8-8.63,24.04c6.14.4,11.33.8,17.29-.24Z"/>
        <path d="M421.58,81.38c-9.26,3.03-18.65,1.79-27.61-.65l1.04-11.69c10.46,5.69,23.63,5.05,25.15-2.64.65-3.27-1.15-6.33-4.37-7.73l-13.09-5.7c-6.66-2.9-9.92-8.75-9.82-15.96.12-8.66,5.28-15.55,13.93-17.67,7.72-1.89,15.66-.86,23.26,1.07l-1.26,10.82c-10.54-4.32-21.25-3.83-22.39,4.37-.5,3.59,1.72,6.17,5.19,7.61l11.79,4.9c7.15,2.97,10.57,9.21,10.33,16.88s-4.27,13.82-12.14,16.4Z"/>
        <path d="M664.21,90.26c-4.27,11.17-13.34,13.31-24.49,10.46.05-3.67.14-6.64,1.02-9.55,2.89,1.45,6.69,1.39,9.28.39,1.96-.76,5.2-3.78,4.15-6.74l-17.46-49.08,13.52-.11,11.01,32.23,11.07-32.1h12.76s-20.85,54.51-20.85,54.51Z"/>
        <path d="M252.79,72.64c6.67.91,12.37-.55,17.78-2.26l.25,10.66c-9.14,2.61-18.47,2.78-27.65.39-13.84-3.6-21.38-15.37-21.23-29.49.13-11.47,3.79-22.67,14.12-28.6s23.34-6.31,34.6-2.48l-.86,11.01c-7.84-4.04-17.49-5.04-25.12.02-7.83,5.19-10.36,14.87-8.84,23.83s7.61,15.65,16.96,16.92Z"/>
        <path d="M488.66,58.95c0,13.56-11.02,24.55-24.61,24.55s-24.61-10.99-24.61-24.55,11.02-24.55,24.61-24.55,24.61,10.99,24.61,24.55ZM473.26,68.09c2.52-5.05,2.82-10.81,1.29-15.82s-5.76-7.98-10.5-8-8.87,2.96-10.47,8.03-1.13,11.17,1.42,16.09c1.87,3.62,5.53,5.07,9.05,5.08s7.23-1.4,9.22-5.37Z"/>
        <path d="M579.15,73.89c6.45.58,12.07-1.6,16.99-4.65.4,3.43.52,6.68-.03,10.51-8.45,3.9-18.25,4.73-27.02,1.29-8.74-3.42-12.77-11.96-12.76-21.09.01-8.15,1.7-16.39,8.78-21.41,8.01-5.69,20.91-5.45,28.09,1.54,6.2,6.04,6.56,15.01,6.65,22.6l-31.66.08c.29,6.06,4.54,10.56,10.96,11.13ZM587.96,53.95c-.24-7.34-5.09-10.75-10.91-10.1-4.73.53-8.69,4.48-8.8,10.36l19.71-.26Z"/>
        <polygon points="313.09 44.46 313.23 54.72 292.06 54.83 292.09 81.86 279.22 81.9 279.21 19.57 314.22 19.57 314.27 29.48 292.22 29.72 292.22 44.36 313.09 44.46"/>
        <path d="M635.72,82.17c-3.72.67-6.94,1.18-10.72.93-6.5-.44-12.64-4.92-12.71-11.72l-.29-26.28-8.95-.2.02-9.41c2.29.23,6.4,1.3,8.25-.59s.64-5.93.67-8.22l12.31-4.21.16,13.16,10.43.11-.09,9.12-10.44.04.2,23.81c.02,2.49,2.04,4.13,3.51,4.47,2.24.53,4.69.29,6.95-1.03l.71,10.02Z"/>
        <path d="M527.77,71.21l.78,10.27c-7.77,2.25-16.88,2.8-24.41-1.3-7.69-4.19-10.56-12.7-10.64-21.21-.08-9.69,4.01-18.98,13.17-22.61,6.69-2.65,13.88-1.94,21.27-.16l-1.23,9.93c-5.78-2.51-12.31-3.07-16.52,1.69-5.56,6.29-5.32,17.56,1.07,23.16,4.46,3.91,10.64,2.72,16.5.23Z"/>
        <rect x="535.46" y="35.54" width="12.49" height="46.35"/>
        <rect x="535.47" y="16.11" width="12.49" height="11.49"/>
      </g>
      <g>
        <polygon points="275.78 169.34 260.53 169.55 237.04 124.04 236.75 169.51 224.79 169.48 224.79 107.83 240.1 107.76 263.5 153.31 263.8 107.83 275.75 107.86 275.78 169.34"/>
        <polygon points="394.53 123.92 406.16 124.02 392 169.58 377.81 169.43 367.86 135.9 357.97 169.38 344.21 169.59 328.69 123.67 341.22 123.65 351.63 156.1 360.95 123.88 374.94 123.71 385.04 157.12 394.53 123.92"/>
        <path d="M727.76,165.42c-7.71,7.38-22.35,7.43-28.44-2.84-5.57-9.39-5.66-22.55-.05-31.96,6.13-10.28,20.98-10.23,28.67-2.15l.36-25.62,11.97.04v66.61s-11.04.1-11.04.1c-.6-.46-.87-1.89-1.46-4.17ZM726.1,155.8c4.82-10.44.72-23.59-8.34-23.81s-12.44,12.77-8.32,23.31c1.5,3.84,4.66,6.01,8.35,6,3.26,0,6.56-1.73,8.31-5.51Z"/>
        <polygon points="473.97 169.55 430.67 169.58 430.56 159.53 459.5 117.75 431.86 117.48 431.86 107.78 472.98 107.76 472.96 118.3 443.86 159.68 473.9 159.85 473.97 169.55"/>
        <path d="M517.43,157.37l-.22,9.92c-8.05,3.6-16.95,4.35-25.39,1.8-13.08-3.97-16.84-18.69-12.79-31.99,3.1-10.2,12.12-15.22,22.54-14.33,15.34,1.31,19.61,13.25,19.36,27.87h-31.86c.22,6.02,4.62,10.17,10.57,11.03,6.09.64,11.3-.93,17.78-4.29ZM509.26,141.84c-.25-7.66-5.17-10.97-11.09-10.27-4.68.56-8.82,4.34-8.92,10.76l20-.49Z"/>
        <path d="M323.64,157.37l-.22,9.92c-8.05,3.6-16.95,4.35-25.39,1.8-13.08-3.97-16.84-18.69-12.79-31.99,3.1-10.2,12.12-15.22,22.54-14.33,15.34,1.31,19.61,13.25,19.36,27.87h-31.86c.22,6.02,4.62,10.17,10.57,11.03,6.09.64,11.3-.93,17.78-4.29ZM315.47,141.84c-.25-7.66-5.17-10.97-11.09-10.27-4.68.56-8.82,4.34-8.92,10.76l20-.49Z"/>
        <path d="M598.87,165.66c-4.04-3.89-4.08-9.32-2.44-14.35,3.02-9.24,16.58-10.55,28.44-9.81,1.38-4.47-1.51-9.17-6.63-9.84-6.28-.81-12.1.98-17.46,4.82l-.19-10.48c7.55-3.12,15.39-4.03,23.31-2.6,7.59,1.37,12.1,7.5,12.3,15.32l.82,30.94-10.69-.18c-.34-1.63-.04-3.19-1.34-5.31-6.53,7.61-18.42,8.89-26.12,1.48ZM609.09,160.42c4.26,2.47,9.04,1.58,12.4-1.13,2.31-1.86,4.69-7.13,3.5-10.24-7.5-1.11-16.08-.21-17.79,5.24-.66,2.11-.36,4.83,1.89,6.13Z"/>
        <path d="M528.94,165.66c-4.04-3.89-4.08-9.32-2.44-14.35,3.02-9.24,16.58-10.55,28.44-9.81,1.38-4.47-1.51-9.17-6.63-9.84-6.28-.81-12.1.98-17.46,4.82l-.19-10.48c7.55-3.12,15.39-4.03,23.31-2.6s12.1,7.5,12.3,15.32l.82,30.94-10.69-.18c-.34-1.63-.04-3.19-1.34-5.31-6.53,7.61-18.42,8.89-26.12,1.48ZM539.17,160.42c4.26,2.48,9.04,1.58,12.4-1.13,2.31-1.86,4.69-7.13,3.5-10.24-7.5-1.11-16.09-.2-17.79,5.24-.66,2.11-.36,4.83,1.89,6.13Z"/>
        <path d="M657.54,144.53l-.21,24.98h-11.99s0-45.73,0-45.73l11.15-.14,1.18,4.71c3.95-3.7,8.22-5.45,13.65-5.66,8.96-.34,15.76,5.95,15.82,15.06l.2,31.74h-12s-.23-29.3-.23-29.3c-.02-2.94-1.42-5.78-3.09-6.9-2.43-1.63-5.8-1.79-8.42-.35-3.95,2.16-6,6.71-6.04,11.59Z"/>
        <rect x="575.43" y="102.8" width="11.99" height="66.76"/>
      </g>
      <g>
        <polygon points="112.87 79.28 100.15 86.87 111.97 .21 123.13 2.7 112.87 79.28"/>
        <path d="M.51,98.91c-.91-4.17-.39-7.8-.11-11.5l76.56-6.94,10.11,10.78L.51,98.91Z"/>
        <path d="M39.89,171.53c-3.49-1.06-5.61-3.85-9.25-6.73l42.43-64.62,14.74-1.15-47.92,72.5Z"/>
        <polygon points="109.7 189.04 85.99 115.21 94.23 103.2 120.97 186.47 109.7 189.04"/>
        <polygon points="184.02 59.13 117.9 98.78 104.01 93.5 178.93 48.7 184.02 59.13"/>
        <polygon points="177.92 142.01 105.99 114.81 101.25 100.67 182.98 131.57 177.92 142.01"/>
        <polygon points="92.41 85.76 32.3 22.49 41.47 15.32 94.57 71.22 92.41 85.76"/>
        <path d="M133.73,66.59l-12.67,8.02,9.36-69.19c4.22,1.47,7.56,3.01,10.94,5.34l-7.63,55.83Z"/>
        <path d="M70.1,73.61L1.3,79.71c.33-4.04,1.28-7.45,2.37-11.69l56.89-5.05,9.55,10.64Z"/>
        <path d="M25.49,158.94c-3.46-2.54-4.99-5.51-7.8-8.92l31.31-47.83,14.58-1.14-38.09,57.88Z"/>
        <polygon points="90.11 190.07 72.68 135.73 80.69 123.54 102.11 189.69 90.11 190.07"/>
        <polygon points="166.69 157.98 113.43 138.06 109.03 124.02 173.87 148.48 166.69 157.98"/>
        <polygon points="189.47 77.96 140.57 107.42 126.81 102.16 186.22 66.59 189.47 77.96"/>
        <path d="M97.73,46.83l-1.77,14.98L48.06,11.42c3.46-2.31,6.79-4.12,10.82-5.29l38.85,40.7Z"/>
        <polygon points="53.85 55.83 6.35 60.07 12.02 47.91 43.67 45.19 53.85 55.83"/>
        <path d="M154.73,54.41l-12.94,7.56,6.43-46.98c3.98,2.08,7.29,5.02,10.67,8.14l-4.15,31.28Z"/>
        <polygon points="13.34 143.02 7.23 130.83 24.56 104.44 39.28 103.39 13.34 143.02"/>
        <polygon points="69.01 186.51 59.08 155.92 67.41 143.68 81.92 188.9 69.01 186.51"/>
        <path d="M190.4,99.95l-26.77,16.01-14.29-5.23,40.79-24.3c.57,4.43.68,8.54.28,13.51Z"/>
        <polygon points="150.72 172.46 120.95 161.44 116.34 147.2 160.78 163.89 150.72 172.46"/>
        <path d="M101.46,23.08l-2.38,14.56L66.48,3.13c4.32-1.42,8.09-2.33,12.73-3.13l22.24,23.08Z"/>
      </g>
    </g>
  </g>
</svg>