<?xml version="1.0" encoding="UTF-8"?>
<svg id="Layer_2" data-name="Layer 2" xmlns="http://www.w3.org/2000/svg" viewBox="0 0 1613.04 349.3">
  <g id="Layer_2-2" data-name="Layer 2">
    <g id="Layer_1-2" data-name="Layer 1-2">
      <g>
        <path d="M556.64,286.97l-.17,61.94c-3.47.49-6.18.59-10.03-.13l-.04-139.07c2.62-1.39,5.58-1.07,8.77-.63l1.6,22.79c7.12-16.02,22.13-24.65,39.45-24.23,19.51.47,36.07,11.34,42.58,29.91,4.7,13.4,4.92,27.81.51,41.29-7.21,21.73-27.53,34.15-50.15,31.55-14.59-1.68-26.42-9.6-32.51-23.43h-.01ZM594.72,301.55c15.48-.22,27.83-8.77,33.55-22.54,4.78-11.51,5.06-24.54,1.3-36.43-5.17-16.35-19.43-26.33-35.83-26.16-16.01.17-29.86,10.06-34.99,26.11-3.65,11.41-3.43,23.88.77,35.13,5.53,14.83,18.78,24.13,35.2,23.9h0Z"/>
        <path d="M369.74,300.81c20.85-1.13,37.29-13.29,41.85-33.74,3.63-.67,6.83-.58,10.8-.22-6.96,33.39-35.03,47.92-67.7,42.82-45.99-7.18-61.71-58.14-47.74-98.75,11.33-32.93,44.15-47.57,77.39-39.26,20.09,5.02,34.4,20.98,38.2,41.37l-10.62.1c-4.78-20.17-21.42-32.43-41.7-33.78-22.4-1.49-42.22,9.55-51.15,30.7-8.06,19.07-8.05,41.61.25,60.55,8.98,20.49,27.95,31.43,50.42,30.22h0Z"/>
        <path d="M994.69,250.97l-46.93.49-.02,57.58c-4,.53-7,.58-10.68,0v-138.63l56.08.29c13.52.07,25.19,6.92,32.75,17.7,8.53,14.45,8.33,32.27-.84,46.34-7.13,9.55-17.74,16.09-30.37,16.22h0ZM1021.05,210.97c.64-16.08-11.29-29.91-27.51-30.09l-45.84-.5v61.33l45.07-.45c16.51-1.09,28.92-13.81,28.28-30.29Z"/>
        <path d="M741.67,280.45c.83-19.9,18.01-28.38,36.55-28.45l37.39-.15-.17-11.41c-.15-10.55-7.1-19.26-17.35-22.21-17.62-5.08-38.3.19-42.55,18.56l-9.93-.05c3.8-26.01,32.6-33.61,56.63-26.94,13.46,3.74,23.01,15.02,23.13,29.26l.41,52.75c.02,3.06,1.86,5.63,3.63,6.78,2.42,1.59,5.67,1.49,8.85,1.32l-.05,9.38c-6.17.47-12.93.59-17.78-3.46-4.63-3.87-4.67-9.89-4.63-16.57-4.85,8.78-12.12,16-22.36,19.04-11.55,3.42-24.04,3.36-35-1.25s-17.28-14.32-16.76-26.6h-.01ZM796.39,298.61c11.51-4.76,18.99-15.07,19.13-26.87l.13-11.21-39.76.34c-6.43.05-12.84,1.99-17.7,6.1-5.84,4.93-7.37,12.67-5.43,20,4.12,15.52,27.07,18.49,43.63,11.65h0Z"/>
        <path d="M1040.87,280.45c.87-19.81,17.98-28.31,36.4-28.38l37.38-.14-.16-12.64c-.13-10.14-7.55-18.27-17.39-21.05-17.24-4.88-38.01.1-42.27,18.43-3.3.57-6.15.47-10.04.14,3.83-26.25,33.24-33.75,57.2-26.76,13.16,3.84,22.45,15.04,22.55,29l.4,52.62c.02,3.02,1.76,5.73,3.42,6.83,2.74,1.82,5.51,1.57,8.88,1.49.62,3.18.69,5.8.05,9.24-6.45.61-13.58.61-18.29-3.99-4.35-4.25-3.93-10.38-4.03-16.42-9.49,20.93-36.53,26.46-56.8,18.47-11.25-4.44-17.83-14.31-17.28-26.84h-.02ZM1094.02,299.19c12.78-4.64,20.68-16.08,20.7-29.14v-9.52l-39.81.34c-6.45.05-12.79,2.04-17.67,6.22-5.77,4.94-7.23,12.62-5.12,20.36,3.95,14.54,25.66,17.64,41.91,11.75h0Z"/>
        <path d="M436.97,280.46c.86-19.85,17.86-28.36,36.29-28.44l37.52-.17-.29-13.44c-.2-9.24-7-16.75-15.9-19.75-17.16-5.79-39.6-.78-43.65,18.07l-10.08.09c3.75-26.55,34.07-34.07,57.9-26.6,12.84,4.02,21.77,15.15,21.87,28.83l.37,52.45c.02,3.04,1.74,5.77,3.42,6.92,2.72,1.86,5.48,1.58,8.99,1.51.49,3.22.58,5.91-.08,9.35-5.78.46-11.92.56-16.68-2.71-5.45-3.75-5.59-10.08-5.69-17.41-9.33,19.82-35.18,26.27-56.09,18.38-11.49-4.33-18.47-14.31-17.92-27.07h.02ZM490.83,298.96c12.49-4.78,19.96-16.11,20.03-28.88l.05-9.49-40,.29c-6.18.04-12.32,1.97-17.07,5.78-5.98,4.8-7.63,12.22-5.86,20.01,3.44,15.15,25.8,18.81,42.85,12.29h0Z"/>
        <path d="M1413.72,301.55c15.8-.22,28.8-9.61,32.76-24.5,3.1-1.35,6.31-1.37,10.36-.37-5.03,21.76-23.9,35.13-45.66,33.91-19.34-1.09-35.47-12.46-41.94-30.9-4.82-13.74-4.59-28.48.16-42.23,6.84-19.76,25.15-30.79,45.87-29.74,28.07,1.42,44.76,23.45,43.24,51.47h-82.1c-1.2,22.72,13.44,42.7,37.31,42.37h0ZM1448.11,250.51c-.98-19.09-13.5-32.06-30.57-33.64-21.1-3.02-39.29,12.86-40.32,33.92l70.89-.28h0Z"/>
        <path d="M1308.76,216.98c-23.73-.84-36.26,18.21-36.31,40.01l-.12,52.25c-3.57.48-6.63.53-10.11-.02v-100.1c3.12-.52,5.85-.44,8.79.13l1.69,20.85c6.81-15.09,21.08-23.05,37.59-22.35,23.71,1,37.76,17.61,37.84,40.34l.23,61.14-10.13.02-.07-57.22c-.02-19.11-9.44-34.33-29.39-35.03v-.02Z"/>
        <path d="M1597.05,305.66c-15.39,7.13-33.08,6.67-48.13-.19-10.74-4.9-17.05-14.94-17.26-26.45,3.74-.72,6.4-.67,9.96.01.66,8.58,5.47,15.59,13.49,19.13,11.67,5.16,25.56,5.23,37.05-.13,10.12-4.72,14.06-16.6,7.45-25.51-3.32-4.48-9-6.41-14.31-7.38l-29.64-5.43c-7.32-1.34-14.98-4.56-18.89-11.31-7.63-13.16-1.42-29.11,12.25-35.93,14.05-7,31.1-6.64,45.39.03,9.87,4.6,15.63,13.87,16.55,24.32-3.96.67-6.54.61-9.98.04-3.44-20.58-29.95-25.3-47.5-16.74-9.2,4.49-13.25,15.53-7.39,23.95,3.41,4.9,9.62,6.52,15.26,7.52l28.14,4.99c7.23,1.28,14.75,4.68,19.08,11,9.18,13.39,3.7,31.02-11.53,38.08h.01Z"/>
        <path d="M1220.5,288.4c.01,7.46,4.88,11.6,11.55,11.72l16.35.29c1.03,3.2,1.04,5.77.14,8.88l-21.2-.34c-9.54-.15-16.68-7.88-16.72-18.21l-.39-109.73c3.53-.73,6.49-.63,10.18-.17l.02,27.96h26.68v9.35l-26.71.02.11,70.22h-.01Z"/>
        <path d="M704.3,288.44c.01,7.58,5.06,11.59,11.75,11.69l16.25.23c.89,3.28.89,5.82.09,8.95l-20.12-.22c-10.36-.11-17.86-7.74-17.9-18.67l-.33-109.54,10.17-.12v28.05l26.49.05c.57,3.26.57,5.98,0,9.26l-26.51.06.11,70.26h0Z"/>
        <rect x="851.06" y="170.55" width="10.15" height="138.91"/>
        <path d="M1522.78,218.27l-11.82.58c-16.59.82-23.44,19.5-23.47,36.14l-.11,54.1c-3.6.58-6.71.61-10.1-.13v-99.87c3.07-.6,5.76-.52,8.84-.05l1.46,19.97c6.35-15.57,17.15-21.17,35.05-20.15.56,3.11.54,5.1.15,9.42h0Z"/>
        <path d="M1195.71,218.3l-11.76.55c-16.6.78-23.45,19.41-23.49,36.15l-.12,54.17c-3.6.42-6.64.46-10.13-.04v-100.07c3.1-.62,5.88-.54,8.8.17l1.58,19.79c6.13-15.57,17.26-21.18,34.98-20.18.54,3.13.51,5.1.15,9.46h-.01Z"/>
        <rect x="660.97" y="208.82" width="10.06" height="100.64"/>
        <circle cx="666" cy="179.05" r="7.13"/>
        <g>
          <path d="M369.3,123.32c17.1-1.02,30.07-11.87,33.87-28.39l22.72.04c-2.89,22.34-18.11,40.25-40,45.91-32.92,8.52-68.42-4.81-80.54-38.25-6.77-18.68-6.95-39.14-.68-57.98,11.48-34.49,46.39-48.42,80.83-40.21,21.8,5.73,37.41,23.1,40.53,45.89l-22.74-.03c-3.87-16.61-17.35-27.59-34.07-28.06-17.62-1.46-33.48,7.84-40.52,24.34-7.04,16.5-6.88,34.97-.4,51.23,6.81,17.08,22.6,26.61,41,25.51h0Z"/>
          <path d="M872.71,126.06c12.21-.17,21.99-6.25,25.06-17.88l21.2.29c-3.05,16.6-14.93,28.55-30.44,33.08-28.41,6.86-57.73-5.01-65.21-33.87-3-11.57-2.69-23.33.66-34.73,5.88-20.03,23.4-32.82,44.24-33.48,14.3-.45,28.01,3.22,38.4,13.14,11.69,11.16,15.94,27.29,13.7,43.38h-76.56c-.07,4.73.92,9.78,3.01,14.44,4.57,10.34,14.18,15.8,25.95,15.64h-.01ZM899.18,80.21c-1.6-14.89-12.96-23.24-26.17-23.54-14.29-.78-26.99,8.69-28.47,23.67l54.64-.13h0Z"/>
          <path d="M557.76,125.88c10.95-.79,19.56-6.86,22.4-17.51l21.3.03c-3.11,17.14-15.6,29.21-31.59,33.46-27.25,5.99-55.33-5.04-63.49-32.19-3.76-12.52-3.5-25.51.47-37.93,6.27-19.65,23.82-31.8,44.36-32.3,14.52-.35,28.36,3.6,38.64,13.92,11.15,11.19,15.18,27.03,12.88,42.6l-76.47.02c0,8.22,2.43,16.01,7.97,21.96,5.95,6.4,14.23,8.6,23.53,7.93h0ZM581.66,80.25c-1.55-14.36-12.5-23.16-25.78-23.55-14.43-1.01-27.47,8.48-28.88,23.67l54.65-.12h.01Z"/>
          <path d="M1000.17,62.45c-9.51-7.12-23.46-6.07-32.07,1.3-6.68,5.72-9.89,14.22-9.94,22.94l-.33,55.33-21.29-.02V40.77l18.6-.14,2.47,13.22c15.6-20.09,51.61-19.16,65.65,1.11,5.2,7.5,7.49,16.73,7.53,26.06l.26,61.03h-21.54l-.35-59.05c-.04-7.56-2.5-15.7-8.99-20.56h0Z"/>
          <path d="M685.29,137.81c-16.73,7.69-36.1,7.23-52.32-.34-11.79-5.51-18.98-16.75-18.55-28.91l20.1.17c2.71,17.96,25.59,21.87,40.15,14.89,5.09-2.44,7.42-6.98,7.05-11.92-.39-5.24-4.4-9.05-10.13-9.98l-30.05-4.9c-8.39-1.37-17.19-4.77-21.8-12.44-8.81-14.66-1.63-33.01,13.96-40.24s34.02-6.66,49.45.7c10.54,5.03,17.02,14.67,17.72,26.59h-20.6c-3.03-16.43-25.2-19.57-38.2-11.8-4.19,2.5-5.71,7.17-5.11,11.26.64,4.33,4.58,7.27,9.27,8l29.34,4.56c8.21,1.28,16.75,4.3,21.88,11.29,10.78,14.66,5,35.19-12.16,43.07h0Z"/>
          <path d="M764.71,125.16c12.43-.2,21.7-7.62,24.29-19.38h21.63c-2.54,17.81-14.69,31.66-31.94,35.79-26.35,6.31-53.4-3.97-62.07-30.16-3.99-12.06-4.3-24.6-1.04-36.89,7.35-27.68,34.83-39.64,62.5-33.64,17.28,3.88,29.8,17.46,32.6,35.59l-21.8.09c-2.95-11.49-12.17-18.62-23.76-19.01-11.74-.4-21.85,5.74-26.51,16.88-4.56,10.9-4.39,23.84.41,34.62,4.63,10.38,13.94,16.33,25.68,16.14v-.03Z"/>
          <path d="M1071.21,113.49c0,5.41,2.52,9.61,7.54,9.72l19.34.41v18.54l-26.49-.29c-12.57-.14-20.61-9.31-21.55-22.19l-.22-107.23,21.36-.15v28.24l24.53.18-.02,18.64-24.49.1v54.05-.02Z"/>
          <path d="M498.01,60.02l-13.26.71c-13.89.74-21.37,14.19-21.39,28.26l-.08,53.19-21.41-.05V40.73l19.09.12,2.45,14.93c7.55-12.2,18.89-16.28,34.38-15.03l.21,19.27h.01Z"/>
        </g>
        <path d="M201.16,183.6c10.86,42-5.55,85.07-39.83,109.37-35.16,24.93-82.18,25.11-117.57.38S-7.48,225.82,3.37,183.87c-4.43-18.14-4.47-35.92.55-53.9C-7.87,88.02,8.14,43.83,42.98,18.97c35.45-25.29,83.12-25.28,118.54-.04,34.9,24.87,50.92,69.13,39.12,111.04,4.83,17.64,5.23,35.06.51,53.63h.01ZM195.38,115.48C203.49,57.73,158.52,7.84,101.76,8.11,45.87,8.37,1.04,57.88,9.24,115.35c16.67-36.33,53.04-59.99,93.45-59.84,40.07.15,76.2,23.78,92.69,59.96h0ZM184.17,148.49c3.58-6.23,6.02-11.98,8-18.62-12.42-39.84-49.29-66.48-90.44-66.24-40.7.23-77.13,26.83-89.32,66.29,1.98,6.53,4.28,12.17,8.05,18.51,19.55-26.18,50.01-41.17,82.23-41.03,31.8.13,61.87,14.9,81.49,41.09h-.01ZM179.57,155.79c-18.56-26.07-47.3-40.43-77.82-40.28s-58.95,14.92-76.74,40.4c18.02,25.72,46.99,40.51,77.69,40.37,30.23-.14,59.06-14.76,76.87-40.49h0ZM195.74,168.65c.91-7.97.53-15.96-.13-24.23l-6.3,11.53c2.26,4.15,4.58,7.39,6.43,12.7h0ZM14.83,155.67l-5.46-10.97c-1.77,8.74-1,16.22-.67,23.95l6.13-12.98ZM192.74,183.69c-2.18-7.48-4.65-13.53-8.59-20.44-19.3,26.11-49.99,41.29-82.39,41.14-31.99-.15-62.19-15.33-81.33-41.08-4.07,7.08-6.73,13.28-8.48,20.73,11.88,40.62,49.06,67.92,90.7,67.78s78.34-27.47,90.1-68.12h-.01ZM195.68,199.27c-17.2,38-54.09,60.83-93.97,60.64-39.91-.19-76.46-23.76-92.88-60.87-6.45,55.95,37.79,104.88,93.89,104.63,56-.26,99.45-49.4,92.95-104.4h.01Z"/>
      </g>
    </g>
  </g>
</svg>