<svg xmlns="http://www.w3.org/2000/svg" width="282.073" height="57.41" viewBox="0 0 282.073 57.41">
  <g id="_01_James_Agency_DenningInvestmentPartners_-_Logos_FINAL" data-name="01_James_Agency_DenningInvestmentPartners - Logos_FINAL" transform="translate(-239.6 -256.7)">
    <g id="Group_64" data-name="Group 64" transform="translate(300.234 257.611)">
      <path id="Path_142" data-name="Path 142" d="M334.442,282.955h1.893a9.463,9.463,0,0,0,3.855-.7,7.91,7.91,0,0,0,4.626-4.7,10.444,10.444,0,0,0,0-7.15,8.735,8.735,0,0,0-1.823-2.874,9.318,9.318,0,0,0-2.874-1.893,10.8,10.8,0,0,0-3.855-.7h-1.823ZM326.1,258h12.337a14.372,14.372,0,0,1,6.169,1.332,16.805,16.805,0,0,1,4.977,3.5,17.073,17.073,0,0,1,3.365,5.117,15.33,15.33,0,0,1,1.262,6.1,15.937,15.937,0,0,1-1.192,6.028,14.777,14.777,0,0,1-3.365,5.117,15.621,15.621,0,0,1-4.977,3.5,14.152,14.152,0,0,1-6.169,1.332H326.17V258Z" transform="translate(-326.1 -258)" fill="#004270"/>
    </g>
    <path id="Path_143" data-name="Path 143" d="M392.025,265.08h-9.954v5.327h9.393v7.08h-9.393v5.468h9.954v7.08H373.8V258h18.225Z" transform="translate(-40.129 -0.389)" fill="#004270"/>
    <path id="Path_144" data-name="Path 144" d="M408.3,290.035V258h8.342l15.351,19.557V258h8.271v32.035h-8.271l-15.351-19.557v19.557Z" transform="translate(-50.445 -0.389)" fill="#004270"/>
    <path id="Path_145" data-name="Path 145" d="M463.5,290.035V258h8.342l15.351,19.557V258h8.272v32.035h-8.272l-15.351-19.557v19.557Z" transform="translate(-66.951 -0.389)" fill="#004270"/>
    <rect id="Rectangle_63" data-name="Rectangle 63" width="8.342" height="32.035" transform="translate(435.243 257.611)" fill="#004270"/>
    <path id="Path_146" data-name="Path 146" d="M540.1,290.035V258h8.342l15.351,19.557V258h8.272v32.035h-8.272l-15.351-19.557v19.557Z" transform="translate(-89.857 -0.389)" fill="#004270"/>
    <g id="Group_65" data-name="Group 65" transform="translate(488.096 256.7)">
      <path id="Path_147" data-name="Path 147" d="M611.134,271.7h16.543q0,2.524-.21,4.626a16.336,16.336,0,0,1-.841,3.855,13.549,13.549,0,0,1-2.453,4.416,15.537,15.537,0,0,1-3.575,3.224,16.59,16.59,0,0,1-4.556,1.963,20.6,20.6,0,0,1-5.187.7,17.543,17.543,0,0,1-6.8-1.262,15.9,15.9,0,0,1-5.257-3.435,16.21,16.21,0,0,1-3.435-5.327,18.417,18.417,0,0,1-1.262-6.87,19.622,19.622,0,0,1,1.192-6.87,15.514,15.514,0,0,1,3.435-5.327,15.82,15.82,0,0,1,5.4-3.435,18.633,18.633,0,0,1,7.01-1.262,16.936,16.936,0,0,1,8.762,2.173,15.2,15.2,0,0,1,5.958,6.729l-7.921,3.295a8.231,8.231,0,0,0-2.874-3.785,7.17,7.17,0,0,0-4-1.122,7.416,7.416,0,0,0-3.365.7,7.274,7.274,0,0,0-2.594,1.963,9.629,9.629,0,0,0-1.682,3.154,12.373,12.373,0,0,0-.631,4.066,13.352,13.352,0,0,0,.561,3.785,8.292,8.292,0,0,0,1.612,3.014,6.78,6.78,0,0,0,2.664,1.963,8.462,8.462,0,0,0,3.645.7,8.883,8.883,0,0,0,2.383-.28,6,6,0,0,0,2.033-.911,4.86,4.86,0,0,0,1.542-1.612,7.331,7.331,0,0,0,.841-2.383H611.2V271.7Z" transform="translate(-594.1 -256.7)" fill="#004270"/>
    </g>
    <g id="Group_66" data-name="Group 66" transform="translate(300.445 297.497)">
      <path id="Path_148" data-name="Path 148" d="M328.573,316.4v14.44H326.4V316.4Z" transform="translate(-326.4 -315.349)" fill="#004270"/>
      <path id="Path_149" data-name="Path 149" d="M334.5,330.522V315.1l10.585,11.005V316.081h2.173v15.351l-10.585-11.005v10.164H334.5Z" transform="translate(-328.822 -314.96)" fill="#004270"/>
      <path id="Path_150" data-name="Path 150" d="M357.683,316.4l4,10.024,4.066-10.024h2.383l-6.519,15.562L355.3,316.4Z" transform="translate(-335.042 -315.349)" fill="#004270"/>
      <path id="Path_151" data-name="Path 151" d="M384.091,318.533h-5.818v3.5h5.608v2.033h-5.608v4.837h5.818v2.033H376.1V316.5h7.991Z" transform="translate(-341.261 -315.378)" fill="#004270"/>
      <path id="Path_152" data-name="Path 152" d="M399.532,318.424l-1.752,1.051a3.222,3.222,0,0,0-.911-1.122,2.006,2.006,0,0,0-1.192-.28,2.266,2.266,0,0,0-1.542.491,1.592,1.592,0,0,0-.631,1.262c0,.7.491,1.262,1.542,1.682l1.472.561a6.235,6.235,0,0,1,2.594,1.752,3.914,3.914,0,0,1,.841,2.524,4.283,4.283,0,0,1-1.332,3.295,4.79,4.79,0,0,1-3.295,1.332,4.183,4.183,0,0,1-3.084-1.122A5.6,5.6,0,0,1,390.7,326.7l2.243-.491a3.75,3.75,0,0,0,.491,1.752,2.221,2.221,0,0,0,1.963.911,2.078,2.078,0,0,0,1.682-.7,2.621,2.621,0,0,0,.7-1.752,2.52,2.52,0,0,0-.14-.771,2.843,2.843,0,0,0-.35-.631,2.546,2.546,0,0,0-.631-.561c-.28-.14-.561-.35-.911-.491l-1.4-.561c-1.963-.841-2.944-2.033-2.944-3.645a3.489,3.489,0,0,1,1.262-2.734,4.409,4.409,0,0,1,3.084-1.122A4.611,4.611,0,0,1,399.532,318.424Z" transform="translate(-345.627 -315.199)" fill="#004270"/>
      <path id="Path_153" data-name="Path 153" d="M411.268,318.533V330.94h-2.173V318.533H405.8V316.5h8.832v2.033Z" transform="translate(-350.142 -315.378)" fill="#004270"/>
      <path id="Path_154" data-name="Path 154" d="M420.4,330.462l3.014-15.562,4.977,11.216,5.117-11.216,2.734,15.562H434l-1.4-8.762-4.276,9.393-4.136-9.393-1.542,8.762Z" transform="translate(-354.508 -314.9)" fill="#004270"/>
      <path id="Path_155" data-name="Path 155" d="M455.491,318.533h-5.818v3.5h5.608v2.033h-5.608v4.837h5.818v2.033H447.5V316.5h7.991Z" transform="translate(-362.612 -315.378)" fill="#004270"/>
      <path id="Path_156" data-name="Path 156" d="M463,330.522V315.1l10.585,11.005V316.081h2.173v15.351l-10.585-11.005v10.164H463Z" transform="translate(-367.247 -314.96)" fill="#004270"/>
      <path id="Path_157" data-name="Path 157" d="M489.468,318.533V330.94h-2.173V318.533H484V316.5h8.832v2.033Z" transform="translate(-373.526 -315.378)" fill="#004270"/>
      <path id="Path_158" data-name="Path 158" d="M509.873,325.052v5.888H507.7V316.5h2.453a9.3,9.3,0,0,1,2.734.28,3.455,3.455,0,0,1,1.682.981,4.122,4.122,0,0,1,1.262,3.084A3.889,3.889,0,0,1,514.5,324a5.363,5.363,0,0,1-3.575,1.192h-1.051Zm0-2.033h.841c2.033,0,3.014-.771,3.014-2.313,0-1.472-1.051-2.243-3.084-2.243h-.7v4.556Z" transform="translate(-380.613 -315.378)" fill="#004270"/>
      <path id="Path_159" data-name="Path 159" d="M528.764,327.047H522.6l-1.612,3.5H518.6l7.15-15.351,6.94,15.351h-2.383Zm-.841-2.1-2.173-4.907-2.243,4.907Z" transform="translate(-383.872 -314.99)" fill="#004270"/>
      <path id="Path_160" data-name="Path 160" d="M546.207,324.772l4.486,6.169h-2.664l-4.136-5.888h-.421v5.888H541.3V316.5h2.594a6.509,6.509,0,0,1,4.136,1.051,4.293,4.293,0,0,1,.491,5.818A4.168,4.168,0,0,1,546.207,324.772Zm-2.734-1.682h.7c2.1,0,3.084-.771,3.084-2.383,0-1.472-.981-2.243-3.014-2.243h-.771v4.626Z" transform="translate(-390.66 -315.378)" fill="#004270"/>
      <path id="Path_161" data-name="Path 161" d="M560.868,318.533V330.94h-2.173V318.533H555.4V316.5h8.832v2.033Z" transform="translate(-394.876 -315.378)" fill="#004270"/>
      <path id="Path_162" data-name="Path 162" d="M570.7,330.522V315.1l10.585,11.005V316.081h2.173v15.351l-10.585-11.005v10.164H570.7Z" transform="translate(-399.451 -314.96)" fill="#004270"/>
      <path id="Path_163" data-name="Path 163" d="M601.821,318.533h-5.748v3.5h5.608v2.033h-5.608v4.837h5.818v2.033H593.9V316.5h7.991v2.033Z" transform="translate(-406.389 -315.378)" fill="#004270"/>
      <path id="Path_164" data-name="Path 164" d="M614.207,324.772l4.486,6.169h-2.664l-4.136-5.888h-.421v5.888H609.3V316.5h2.594a6.509,6.509,0,0,1,4.136,1.051,4.157,4.157,0,0,1-1.823,7.22Zm-2.734-1.682h.7c2.1,0,3.084-.771,3.084-2.383,0-1.472-.981-2.243-3.014-2.243h-.771v4.626Z" transform="translate(-410.994 -315.378)" fill="#004270"/>
      <path id="Path_165" data-name="Path 165" d="M633.7,318.424l-1.752,1.051c-.351-.561-.631-.981-.981-1.122a2.006,2.006,0,0,0-1.192-.28,2.266,2.266,0,0,0-1.542.491,1.592,1.592,0,0,0-.631,1.262c0,.7.491,1.262,1.542,1.682l1.472.561a6.235,6.235,0,0,1,2.594,1.752,3.914,3.914,0,0,1,.841,2.524,4.282,4.282,0,0,1-1.332,3.295,4.79,4.79,0,0,1-3.295,1.332,4.183,4.183,0,0,1-3.084-1.122A5.6,5.6,0,0,1,624.8,326.7l2.243-.491a3.75,3.75,0,0,0,.491,1.752,2.221,2.221,0,0,0,1.963.911,2.078,2.078,0,0,0,1.682-.7,2.621,2.621,0,0,0,.7-1.752,2.521,2.521,0,0,0-.14-.771,2.84,2.84,0,0,0-.35-.631,2.547,2.547,0,0,0-.631-.561c-.28-.14-.561-.35-.911-.491l-1.4-.561c-1.963-.841-2.944-2.033-2.944-3.645a3.489,3.489,0,0,1,1.262-2.734,4.409,4.409,0,0,1,3.084-1.122A4.623,4.623,0,0,1,633.7,318.424Z" transform="translate(-415.629 -315.199)" fill="#004270"/>
    </g>
    <g id="Group_67" data-name="Group 67" transform="translate(250.325 257.751)">
      <rect id="Rectangle_64" data-name="Rectangle 64" width="2.664" height="55.167" fill="#004270"/>
    </g>
    <g id="Group_68" data-name="Group 68" transform="translate(244.998 257.751)">
      <rect id="Rectangle_65" data-name="Rectangle 65" width="2.664" height="55.167" fill="#05b3e9"/>
    </g>
    <g id="Group_69" data-name="Group 69" transform="translate(239.6 257.751)">
      <rect id="Rectangle_66" data-name="Rectangle 66" width="2.664" height="55.167" fill="#ce1f48"/>
    </g>
    <path id="Path_166" data-name="Path 166" d="M267.207,313.337H262.3v-9.744h4.907a17.875,17.875,0,1,0,0-35.75H262.3V258.1h4.907a27.618,27.618,0,1,1,0,55.237Z" transform="translate(-6.788 -0.419)" fill="#004270"/>
  </g>
</svg>
