<svg width="292" height="46" viewBox="0 0 292 46" fill="none" xmlns="http://www.w3.org/2000/svg">
<path d="M38.5105 46C35.9275 46 33.3445 45.533 30.8789 44.7157L30.4092 44.8325C28.061 45.6497 25.5954 46 23.1298 46C10.3321 46 0 35.7259 0 23C0 10.2741 10.3321 0 23.1298 0C25.5954 0 28.061 0.350254 30.4092 1.16751L30.8789 1.28426C33.3445 0.467006 35.9275 0 38.5105 0C51.3082 0 61.6403 10.2741 61.6403 23C61.6403 35.7259 51.1908 46 38.5105 46ZM32.053 44.2487C34.1664 44.8325 36.2797 45.1827 38.3931 45.1827C50.6038 45.1827 60.5836 35.2589 60.5836 23.1168C60.5836 10.9746 50.7212 0.93401 38.5105 0.93401C36.2797 0.93401 34.1664 1.28426 32.1704 1.86802C40.6239 5.48731 46.2596 13.7767 46.2596 23C46.2596 32.2234 40.6239 40.6294 32.053 44.2487ZM23.1298 0.93401C10.8017 0.93401 0.821871 10.8579 0.821871 23C0.821871 35.1421 10.8017 45.066 23.0124 45.066C25.1258 45.066 27.3566 44.7157 29.3525 44.132C20.899 40.5127 15.2633 32.2234 15.2633 23C15.2633 13.7767 20.899 5.37056 29.3525 1.86802C27.3566 1.16751 25.2432 0.93401 23.1298 0.93401ZM16.2026 23C16.2026 32.1066 21.8383 40.2792 30.2918 43.5482V2.45178C21.8383 5.72081 16.2026 13.8934 16.2026 23ZM31.2311 2.45178V43.5482C39.6846 40.2792 45.3203 32.1066 45.3203 23C45.3203 13.8934 39.6846 5.72081 31.2311 2.45178ZM38.5105 43.5482C38.3931 43.5482 38.3931 43.5482 38.3931 43.5482C38.3931 43.5482 38.3931 43.5482 38.2757 43.5482H36.9842L38.0409 42.731C44.2636 38.0609 47.9033 30.7056 47.9033 23.1168C47.9033 15.4112 44.2636 8.05584 38.0409 3.50254L36.9842 2.68528H38.2757H38.3931C49.7819 2.68528 58.9399 11.9086 58.9399 23.1168C58.9399 34.3249 49.7819 43.5482 38.5105 43.5482ZM39.5672 3.50254C45.3203 8.28934 48.8426 15.5279 48.8426 23.1168C48.8426 30.5888 45.4377 37.8274 39.5672 42.731C49.8993 42.1472 58.2354 33.6244 58.2354 23.1168C58.2354 12.6091 49.8993 3.96954 39.5672 3.50254ZM23.1298 43.5482C11.741 43.5482 2.46561 34.3249 2.46561 23C2.46561 11.6751 11.741 2.56853 23.1298 2.56853H23.2472H24.5387L23.5994 3.38579C17.3767 8.05584 13.737 15.4112 13.737 23C13.737 30.7056 17.3767 38.0609 23.5994 42.6142L24.6561 43.4315H23.3646C23.3646 43.4315 23.3646 43.4315 23.2472 43.4315C23.2472 43.5482 23.1298 43.5482 23.1298 43.5482ZM22.0731 3.50254C11.741 4.08629 3.4049 12.6091 3.4049 23.1168C3.4049 33.6244 11.6236 42.1472 22.0731 42.731C16.32 37.9442 12.7977 30.7056 12.7977 23.1168C12.7977 15.5279 16.2026 8.28934 22.0731 3.50254ZM28.6481 40.9797L27.9436 40.6294C21.7209 36.8934 17.8463 30.2386 17.8463 23C17.8463 15.8782 21.7209 9.1066 27.9436 5.37056L28.6481 5.02031V40.9797ZM27.8262 6.65482C22.1905 10.2741 18.7856 16.4619 18.7856 23.1168C18.7856 29.7716 22.1905 35.9594 27.8262 39.5787V6.65482ZM32.8749 40.9797V5.02031L33.5793 5.37056C39.802 9.1066 43.6766 15.7614 43.6766 23C43.6766 30.1218 39.802 36.8934 33.5793 40.6294L32.8749 40.9797ZM33.8141 6.65482V39.4619C39.4498 35.8426 42.8547 29.6548 42.8547 23C42.8547 16.4619 39.3324 10.1574 33.8141 6.65482Z" fill="#007698"/>
<path d="M74.5557 32.9239C75.8472 32.8071 76.669 32.4569 77.1387 31.9898C77.4909 31.5228 77.7257 30.4721 77.7257 28.8376V15.9949C77.7257 14.8274 77.4909 14.1269 77.1387 13.7767C76.7865 13.4264 75.9646 13.1929 74.6731 13.1929V12.6091H81.0132L88.2927 28.4873L95.4547 12.6091H101.795V13.1929C100.621 13.3096 99.7989 13.5431 99.4466 13.8934C99.0944 14.2437 98.977 14.9442 98.977 16.1117V30.2386C98.977 31.4061 99.0944 32.1066 99.4466 32.4569C99.7989 32.8071 100.503 33.0406 101.795 33.1574V33.7411H92.8717V33.1574C94.1632 33.0406 94.985 32.8071 95.3373 32.4569C95.6895 32.1066 95.8069 31.2893 95.8069 29.8883V15.4112L87.5882 33.5076H87.1186L79.1347 16.1117V28.7208C79.1347 30.4721 79.3695 31.6396 79.9565 32.1066C80.3088 32.4569 81.0132 32.6904 82.1873 32.8071V33.3909H74.6731V32.9239H74.5557Z" fill="black"/>
<path d="M114.358 12.4924V13.0761C113.184 13.1929 112.362 13.3096 112.01 13.6599C111.658 14.0102 111.423 14.7107 111.423 15.8782V26.0355C111.423 27.6701 111.658 28.9543 112.128 29.8883C112.949 31.6396 114.593 32.4569 116.941 32.4569C119.524 32.4569 121.286 31.6396 122.225 29.8883C122.695 28.9543 122.929 27.4365 122.929 25.335V17.0457C122.929 15.2944 122.695 14.2437 122.342 13.7766C121.873 13.3096 121.168 13.0761 119.994 12.9594V12.3756H127.391V12.9594C126.099 13.0761 125.395 13.4264 124.925 13.8934C124.573 14.3604 124.338 15.4112 124.338 17.0457V25.335C124.338 27.5533 123.986 29.1878 123.282 30.4721C121.99 32.6904 119.642 33.8579 116.12 33.8579C112.715 33.8579 110.366 32.6904 109.075 30.4721C108.37 29.3046 108.018 27.6701 108.018 25.6853V15.7614C108.018 14.5939 107.783 13.8934 107.431 13.5431C107.079 13.1929 106.257 12.9594 105.083 12.9594V12.3756H114.358V12.4924Z" fill="black"/>
<path d="M130.678 32.9239C131.852 32.8071 132.674 32.5736 133.026 32.2234C133.378 31.8731 133.496 31.0558 133.496 29.6548V15.8782C133.496 14.7107 133.378 14.0102 133.026 13.6599C132.674 13.3096 131.969 13.0761 130.795 12.9594V12.3756H139.601C141.479 12.3756 143.006 12.6091 144.18 13.0761C146.528 14.0102 147.702 15.5279 147.702 17.9797C147.702 19.6142 147.233 20.7817 146.176 21.599C145.119 22.4162 143.71 23 141.949 23.2335L148.524 31.2893C148.876 31.7563 149.346 32.1066 149.698 32.3401C150.05 32.5736 150.637 32.6904 151.225 32.8071V33.3909H146.058L138.075 23.5838L136.666 23.7005V30.0051C136.666 31.1726 136.9 31.8731 137.253 32.2234C137.605 32.5736 138.427 32.6904 139.601 32.8071V33.3909H130.678V32.9239ZM141.597 21.8325C143.241 21.132 144.18 19.8477 144.18 17.9797C144.18 16.1117 143.475 14.9442 141.949 14.2437C141.127 13.8934 140.071 13.6599 138.662 13.6599C137.722 13.6599 137.253 13.7767 137.018 13.8934C136.783 14.0102 136.666 14.3604 136.666 14.8274V22.6497C139.014 22.533 140.658 22.2995 141.597 21.8325Z" fill="black"/>
<path d="M154.513 32.9239C155.687 32.8071 156.509 32.5736 156.861 32.2234C157.213 31.8731 157.331 31.0558 157.331 29.6548V15.8782C157.331 14.7107 157.213 14.0102 156.861 13.6599C156.509 13.3096 155.804 13.0761 154.63 12.9594V12.3756H163.436C165.314 12.3756 166.841 12.6091 168.015 13.0761C170.363 14.0102 171.537 15.5279 171.537 17.9797C171.537 19.6142 171.068 20.7817 170.011 21.599C168.954 22.4162 167.545 23 165.784 23.2335L172.359 31.2893C172.711 31.7563 173.181 32.1066 173.533 32.3401C173.885 32.5736 174.472 32.6904 175.059 32.8071V33.3909H169.893L161.91 23.5838L160.501 23.7005V30.0051C160.501 31.1726 160.735 31.8731 161.088 32.2234C161.44 32.5736 162.262 32.6904 163.436 32.8071V33.3909H154.513V32.9239ZM165.432 21.8325C167.076 21.132 168.015 19.8477 168.015 17.9797C168.015 16.1117 167.31 14.9442 165.784 14.2437C164.962 13.8934 163.906 13.6599 162.497 13.6599C161.557 13.6599 161.088 13.7767 160.853 13.8934C160.618 14.0102 160.501 14.3604 160.501 14.8274V22.6497C162.731 22.533 164.375 22.2995 165.432 21.8325Z" fill="black"/>
<path d="M175.763 33.5076V32.9239C176.585 32.8071 177.172 32.5736 177.641 31.9898C178.111 31.5228 178.815 30.0051 179.755 27.67L186.447 12.0254H187.034L195.018 30.0051C195.605 31.1726 195.957 31.9898 196.309 32.2233C196.662 32.4568 197.131 32.6904 197.953 32.8071V33.3909H189.852V32.8071C190.791 32.6904 191.378 32.5736 191.613 32.4568C191.848 32.3401 191.965 31.9898 191.965 31.6396C191.965 31.5228 191.965 31.1726 191.848 30.8223C191.73 30.4721 191.613 30.0051 191.378 29.5381L190.087 26.5025H181.633C180.811 28.6041 180.342 29.8883 180.107 30.3553C179.989 30.8223 179.872 31.1726 179.872 31.4061C179.872 31.9898 180.107 32.3401 180.577 32.5736C180.811 32.6903 181.398 32.8071 182.103 32.8071V33.3909H175.763V33.5076ZM189.617 25.335L185.977 16.5787L182.338 25.335H189.617Z" fill="black"/>
<path d="M205.467 12.4924V13.0761C204.763 13.0761 204.176 13.0761 203.824 13.1929C203.471 13.3096 203.237 13.6599 203.237 14.0102C203.237 14.1269 203.237 14.3604 203.354 14.4772C203.471 14.7107 203.589 14.9442 203.824 15.2944L208.52 22.1827L213.099 15.1777C213.334 14.8274 213.451 14.5939 213.451 14.4772C213.451 14.2437 213.569 14.1269 213.569 14.0102C213.569 13.5431 213.334 13.3096 212.864 13.0761C212.629 12.9594 212.042 12.9594 211.338 12.9594V12.3756H218.265V12.9594C217.678 12.9594 217.091 13.1929 216.504 13.5431C215.682 14.1269 214.86 15.0609 213.803 16.5787L209.107 23.7005V29.8883C209.107 31.1726 209.342 31.8731 209.694 32.2234C210.046 32.5736 210.986 32.6904 212.395 32.8071V33.3909H202.65V32.8071C204.058 32.6904 204.998 32.4569 205.35 32.1066C205.702 31.7564 205.82 30.9391 205.82 29.5381V24.0508L201.593 17.9797C200.184 15.8782 199.127 14.4772 198.54 13.8934C197.953 13.3096 197.249 12.9594 196.427 12.9594V12.3756H205.467V12.4924Z" fill="black"/>
<path d="M266.638 12.6091C267.812 12.9594 268.517 13.0761 268.634 13.0761C268.986 13.0761 269.221 12.9594 269.456 12.8426C269.691 12.7259 269.926 12.3756 270.043 12.0254H270.748L271.1 19.1472H270.395C269.926 17.7462 269.456 16.5787 268.752 15.7614C267.46 14.1269 265.699 13.3096 263.468 13.3096C261.237 13.3096 259.359 14.2436 257.95 15.9949C256.541 17.7462 255.836 20.198 255.836 23.2335C255.836 26.0355 256.541 28.3706 258.067 30.0051C259.594 31.6396 261.472 32.5736 263.703 32.5736C265.347 32.5736 266.873 32.2233 268.282 31.4061C269.104 30.9391 269.926 30.2386 270.865 29.4213L271.452 30.0051C270.748 30.9391 269.808 31.6396 268.869 32.3401C267.108 33.5076 265.112 34.0914 262.998 34.0914C259.594 34.0914 256.893 33.0406 254.78 30.8223C252.901 28.8376 251.962 26.269 251.962 23.2335C251.962 20.198 252.901 17.5127 254.897 15.4112C257.011 13.1929 259.711 12.1421 262.998 12.1421C264.29 12.1421 265.464 12.2589 266.638 12.6091Z" fill="black"/>
<path d="M276.736 14.3604C278.38 12.8426 280.258 12.0254 282.606 12.0254C284.955 12.0254 286.95 12.8426 288.477 14.3604C290.238 15.9949 291.06 18.2132 291.06 21.0152C291.06 23.8173 290.121 26.0355 288.359 27.6701C286.716 29.1878 284.837 29.8883 282.489 29.8883C280.023 29.8883 278.027 29.0711 276.384 27.4365C274.74 25.802 273.918 23.5838 273.918 21.0152C274.153 18.2132 274.975 15.9949 276.736 14.3604ZM278.614 26.9695C279.671 28.2538 280.963 28.9543 282.606 28.9543C284.133 28.9543 285.424 28.3706 286.481 27.0863C287.538 25.802 288.125 23.8173 288.125 21.0152C288.125 18.2132 287.538 16.1117 286.481 14.9442C285.424 13.6599 284.133 13.0761 282.606 13.0761C281.08 13.0761 279.671 13.7766 278.614 15.0609C277.558 16.3452 276.971 18.3299 276.971 21.132C277.088 23.7005 277.558 25.6853 278.614 26.9695Z" fill="black"/>
<path d="M244.8 20.8985C244.213 20.8985 242.804 21.132 241.63 22.533C241.395 22.7665 241.16 23.1167 241.043 23.5838C240.808 24.0508 240.573 24.6345 240.221 25.2183C239.869 25.802 239.634 26.5025 239.282 27.0863C238.93 27.67 238.577 28.2538 238.108 28.9543C238.46 29.4213 238.93 29.8883 239.517 30.4721C240.104 31.0558 241.513 33.0406 244.448 33.0406V33.6244H238.343L236.112 31.1726C235.76 31.5228 235.407 31.8731 234.938 32.2233C234.468 32.5736 234.116 32.9239 233.646 33.1574C233.177 33.3909 232.59 33.6244 232.12 33.8579C231.65 33.9746 230.946 34.0914 230.241 34.0914C229.537 34.0914 228.832 33.9746 228.011 33.7411C227.306 33.5076 226.602 33.1574 226.015 32.6904C225.428 32.2233 224.958 31.6396 224.606 30.9391C224.253 30.2386 224.019 29.4213 224.136 28.3706C224.136 27.203 224.488 26.0355 225.075 25.1015C225.78 24.1675 226.954 23.1167 228.715 21.9492C227.893 20.8985 227.306 19.9645 226.836 19.264C226.367 18.4467 226.132 17.6294 226.132 16.6954C226.132 15.9949 226.249 15.4112 226.484 14.8274C226.719 14.2436 227.189 13.7766 227.658 13.3096C228.128 12.9594 228.715 12.6091 229.302 12.3756C230.007 12.1421 230.594 12.0254 231.298 12.0254C232.12 12.0254 232.824 12.1421 233.411 12.3756C233.998 12.6091 234.468 12.9594 234.82 13.3096C235.173 13.6599 235.407 14.1269 235.642 14.5939C235.877 15.0609 235.877 15.5279 235.877 16.1117C235.877 17.2792 235.525 18.3299 234.82 19.1472C234.116 19.9645 233.059 20.7817 231.768 21.4822C232.707 22.7665 233.646 23.8173 234.468 24.868C235.407 25.9188 236.229 26.8528 237.051 27.9036C237.756 26.8528 238.225 25.9188 238.577 24.9848C238.93 24.0508 239.165 23.2335 239.165 22.533C239.165 20.8985 237.403 21.0152 236.581 20.7817V20.198H244.448L244.8 20.8985ZM235.525 30.1218C234.586 28.9543 233.529 27.67 232.472 26.269C231.298 24.868 230.359 23.7005 229.772 22.7665C228.95 23.3503 228.363 23.934 228.128 24.7513C227.776 25.4518 227.658 26.3858 227.658 27.3198C227.658 28.6041 228.011 29.7716 228.832 30.5888C229.654 31.5228 230.594 31.8731 231.885 31.8731C232.59 31.8731 233.294 31.7563 233.998 31.4061C234.468 31.1726 235.055 30.7056 235.525 30.1218ZM234.351 16.4619C234.351 15.4112 234.116 14.7107 233.646 14.1269C233.177 13.5431 232.59 13.3096 231.768 13.3096C231.298 13.3096 230.946 13.4264 230.594 13.5431C230.241 13.7766 230.007 14.0101 229.772 14.2436C229.537 14.4772 229.419 14.8274 229.302 15.1777C229.185 15.5279 229.185 15.7614 229.185 15.9949C229.185 16.6954 229.419 17.3959 229.772 18.0964C230.124 18.797 230.711 19.6142 231.415 20.665C232.472 20.0812 233.177 19.4975 233.646 18.7969C234.116 18.2132 234.351 17.3959 234.351 16.4619Z" fill="black"/>
<path d="M286.95 32.1066H278.262V33.8579H286.95V32.1066Z" fill="black"/>
</svg>
