<?xml version="1.0" encoding="UTF-8"?>
<svg width="188px" height="40px" viewBox="0 0 188 40" version="1.1" xmlns="http://www.w3.org/2000/svg"
>
    <title>605D4967-E8BC-4503-A4FE-4DF1D9A11625</title>
    <g id="Desktop" stroke="none" stroke-width="1" fill="none" fill-rule="evenodd">
        <g id="Home" transform="translate(-626.000000, -10.000000)" fill-rule="nonzero">
            <g id="Header" transform="translate(-31.000000, -20.000000)">
                <g id="Logo" transform="translate(657.000000, 30.000000)">
                    <path
                        d="M29.8934007,7.38451429 L27.8304642,7.83594286 C26.3378788,8.1068 25.9431914,8.60337143 25.9431914,16.8176571 L25.9431914,34.2856571 L22.8262728,34.2856571 L6.27719722,10.9496571 L6.0137017,10.9496571 L6.0137017,22.8210857 C6.0137017,31.0359429 6.32111314,31.5325143 7.81314266,31.8028 L10.0522987,32.2542286 L10.1840465,33.9245143 L0,33.9245143 L0.131191865,32.2542286 L2.19468426,31.8028 C3.68671378,31.5325143 4.08195707,31.0359429 4.08195707,22.8210857 L4.08195707,11.4913714 C4.08195707,9.41537143 3.46769007,8.42222857 2.32643202,7.88108571 L0.262939629,7.38451429 L0.131191865,5.71422857 L8.64698927,5.71422857 L23.7040353,27.1090857 L23.9675308,27.1090857 L23.9675308,16.8176571 C23.9675308,8.60337143 23.7040353,8.1068 22.1680899,7.83594286 L19.9289338,7.38451429 L19.797186,5.71422857 L30.0251485,5.71422857 L29.8934007,7.38451429 Z M43.0590603,20.3833714 L41.1712316,20.3833714 L41.1712316,31.6228 L43.8934628,32.1639429 L44.6394776,32.1639429 C47.8003121,32.0742286 50.6531792,30.1782286 50.6531792,26.6119429 C50.6531792,22.4148 47.4489847,20.3833714 43.0590603,20.3833714 M43.234724,7.51994286 L41.1712316,7.51994286 L41.1712316,18.5782286 L43.8056309,18.5330857 C47.8436721,18.4428 49.6003089,15.8702286 49.6003089,13.2068 C49.6003089,9.82222857 47.5807325,7.51994286 43.234724,7.51994286 M44.332622,33.9245143 L32.8316538,33.9245143 L32.9628456,32.2542286 L34.6750107,32.0285143 C35.7723528,31.8936571 36.211512,31.6228 36.211512,31.2165143 L36.211512,8.37708571 C36.211512,7.9708 35.9480165,7.7908 34.5877347,7.60965714 L32.9628456,7.38451429 L32.8316538,5.71422857 L44.6833935,5.71422857 C52.3214283,5.71422857 54.9991877,8.37708571 54.9991877,11.9885143 C54.9991877,15.7342286 51.8389091,18.4879429 47.8003121,19.1199429 L47.8003121,19.3456571 C53.2870227,19.8873714 56.008698,22.7759429 56.008698,26.3416571 C56.008698,31.1713714 51.970101,33.9245143 44.332622,33.9245143 M68.2400047,7.60994286 C67.7574855,7.60994286 65.8257408,7.65508571 65.8257408,7.65508571 L65.8257408,19.5259429 L68.7230798,19.7968 C72.1907699,19.4808 74.473286,17.5848 74.473286,13.6585143 C74.473286,9.59622857 72.2791576,7.38422857 68.2400047,7.60994286 L68.2400047,7.60994286 Z M79.3018137,29.5916571 C80.5309036,31.3516571 81.0139788,31.7585143 81.9362131,31.9385143 L83.208663,32.2545143 L83.3843267,33.9248 L75.571184,33.9248 L73.859019,30.5842286 L68.8987435,21.5122286 L65.8257408,21.6019429 L65.8257408,31.2613714 C65.8257408,31.7128 66.1331523,31.8933714 67.4061581,32.0288 L69.1616832,32.2545143 L69.2939868,33.9248 L57.4850512,33.9248 L57.6173549,32.2545143 L59.3295199,32.0288 C60.4263061,31.8933714 60.8654654,31.6225143 60.8654654,31.2168 L60.8654654,8.37737143 C60.8654654,7.97108571 60.6019698,7.79051429 59.2416881,7.60994286 L57.6173549,7.38422857 L57.4850512,5.71451429 L69.6008424,5.71451429 C76.6685262,5.71451429 79.9166366,8.5128 79.9166366,12.7105143 C79.9166366,16.4568 77.5023728,19.0745143 73.6394394,20.4739429 L79.3018137,29.5916571 Z"
                       fill="#004863"></path>
                    <path
                        d="M113.008228,12.3342857 L112.728056,11.196 C112.461225,10.2222857 112.114345,10.0714286 110.926947,10.0577143 L110.846342,10.0577143 L110.846342,17.1897143 C110.846342,17.3131429 110.939733,17.3817143 111.340535,17.4228571 L111.994271,17.4777143 L112.034295,18.0262857 L107.911202,18.0262857 L107.951226,17.4777143 L108.631645,17.4228571 C108.96574,17.3817143 109.085258,17.3131429 109.085258,17.1617143 L109.085258,10.0577143 L109.032448,10.0577143 C107.857836,10.0577143 107.457589,10.1948571 107.190758,11.1411429 L106.883347,12.3342857 L105.923312,12.3342857 L106.176801,9.45428571 L113.88877,9.45428571 L113.88877,12.3342857 L113.008228,12.3342857 Z M118.438015,18.0262286 L118.477484,17.4908 L118.74487,17.4496571 C119.131775,17.4228 119.197927,17.3268 119.197927,17.1896571 L119.197927,14.5010857 C119.197927,13.1433714 118.784895,12.8148 118.037213,12.8148 C117.584156,12.8148 117.10386,13.0473714 116.863157,13.2393714 L116.863157,17.2033714 C116.863157,17.3405143 116.943762,17.4228 117.370135,17.4496571 L117.717016,17.4908 L117.75704,18.0262286 L114.47502,18.0262286 L114.515045,17.4908 L114.835242,17.4496571 C115.155439,17.4228 115.288854,17.3536571 115.288854,17.1896571 L115.288854,10.4273714 C115.288854,10.1810857 115.208805,10.0433714 115.062048,9.96165714 L114.381629,9.63251429 L114.421654,9.23422857 L116.863157,8.4668 L116.863157,12.6222286 L116.929864,12.6222286 C117.663649,12.0188 118.384093,11.6073714 119.118434,11.6073714 C119.518124,11.6073714 119.94561,11.7725143 120.252465,12.0868 C120.599345,12.4439429 120.759444,12.9656571 120.759444,13.6645143 L120.759444,17.1896571 C120.759444,17.3130857 120.826152,17.3953714 121.306447,17.4496571 L121.58662,17.4908 L121.626644,18.0262286 L118.438015,18.0262286 Z M125.215187,12.2109143 C124.548109,12.2109143 123.960525,12.8000571 123.854349,13.9663429 C123.854349,13.9663429 126.175778,13.9383429 126.135753,13.9383429 C126.202461,12.8417714 125.815556,12.2109143 125.215187,12.2109143 M125.015063,18.2320571 C123.414078,18.2320571 122.199441,16.9697714 122.199441,15.1320571 C122.199441,13.1160571 123.60086,11.6069143 125.468676,11.6069143 C126.749464,11.6069143 127.710056,12.3892 127.710056,13.7332 C127.710056,13.9532 127.683372,14.2543429 127.630006,14.4874857 L123.840451,14.4332 L123.840451,14.5834857 C123.854349,16.0926286 124.601475,17.0657714 125.722165,17.0657714 C126.322535,17.0657714 126.936246,16.7646286 127.389858,16.2017714 L127.683372,16.3663429 C127.243101,17.5600571 126.295852,18.2320571 125.015063,18.2320571 M142.144996,11.8130286 L142.065503,15.3381714 C142.065503,16.6821714 142.479091,17.0250286 143.226218,17.0250286 C143.67983,17.0250286 144.160126,16.7918857 144.400274,16.5998857 L144.400274,12.6221714 C144.400274,12.4856 144.320224,12.4164571 143.893295,12.3753143 L143.505834,12.3484571 L143.453024,11.8130286 L145.961234,11.8130286 L145.961234,16.8473143 C145.961234,17.0936 146.028498,17.2856 146.188041,17.3404571 L146.86846,17.5604571 L146.828435,17.9576 L144.400274,18.2318857 L144.400274,17.2170286 L144.333566,17.2170286 C143.599225,17.8204571 142.879337,18.2318857 142.144996,18.2318857 C141.74475,18.2318857 141.317821,18.0667429 141.010965,17.7524571 C140.664085,17.3953143 140.503986,16.8741714 140.503986,16.1747429 L140.517328,12.6358857 C140.517328,12.4576 140.437279,12.4444571 139.956983,12.3753143 L139.690152,12.3484571 L139.650127,11.8130286 L142.144996,11.8130286 Z M136.168095,9.2212 L138.690203,16.8326286 C138.796936,17.1212 139.009844,17.2714857 139.330597,17.3406286 L139.850918,17.4640571 L139.890942,18.0263429 L135.821215,18.0263429 L135.86124,17.4640571 L136.382116,17.3817714 C136.928563,17.2989143 136.915778,17.0526286 136.542214,15.9274857 L136.301511,15.1737714 L133.579835,15.1737714 L133.406395,15.7354857 C133.046174,16.8326286 133.086198,17.2857714 133.579835,17.3817714 L134.020106,17.4640571 L134.060131,18.0263429 L130.977678,18.0263429 L131.017703,17.4640571 L131.351797,17.3817714 C131.938825,17.2172 132.125607,17.0937714 132.966124,14.7343429 L134.527085,10.2909143 L134.527085,9.71434286 L136.168095,9.2212 Z M135.034064,11.0446286 L134.91399,11.0446286 L133.779959,14.5012 L136.101387,14.5012 L135.034064,11.0446286 Z M149.736614,18.2321143 C148.682632,18.2321143 148.001657,17.6012571 148.028896,16.2155429 L148.095048,12.7595429 L147.054407,12.6635429 L147.08109,12.1829714 L148.041682,11.3189714 L148.988931,10.4418286 L149.615984,10.5241143 L149.603198,11.8818286 L151.77787,11.8818286 L151.68448,12.7189714 L149.603198,12.7189714 L149.536491,15.7355429 C149.522593,16.8058286 149.990103,17.1212571 150.643839,17.1212571 C150.976822,17.1212571 151.43099,17.0109714 151.763973,16.8326857 L151.817895,17.2309714 C151.323702,17.8201143 150.550448,18.2321143 149.736614,18.2321143 M156.167406,18.0262286 L156.206874,17.4908 L156.474261,17.4496571 C156.861166,17.4228 156.927318,17.3268 156.927318,17.1896571 L156.927318,14.5010857 C156.927318,13.1433714 156.514286,12.8148 155.766603,12.8148 C155.313547,12.8148 154.833251,13.0473714 154.592547,13.2393714 L154.592547,17.2033714 C154.592547,17.3405143 154.673153,17.4228 155.099526,17.4496571 L155.446406,17.4908 L155.486431,18.0262286 L152.204411,18.0262286 L152.244435,17.4908 L152.564632,17.4496571 C152.88483,17.4228 153.018245,17.3536571 153.018245,17.1896571 L153.018245,10.4273714 C153.018245,10.1810857 152.938196,10.0433714 152.791439,9.96165714 L152.11102,9.63251429 L152.151045,9.23422857 L154.592547,8.4668 L154.592547,12.6222286 L154.659255,12.6222286 C155.39304,12.0188 156.113484,11.6073714 156.847824,11.6073714 C157.247515,11.6073714 157.675,11.7725143 157.981856,12.0868 C158.328736,12.4439429 158.488835,12.9656571 158.488835,13.6645143 L158.488835,17.1896571 C158.488835,17.3130857 158.555542,17.3953714 159.035838,17.4496571 L159.31601,17.4908 L159.356035,18.0262286 L156.167406,18.0262286 Z M163.998281,12.6495429 C163.824841,12.4444 163.531327,12.2524 163.117739,12.2524 C162.277222,12.2524 161.676853,13.1295429 161.676853,14.5969714 C161.676853,15.7769714 161.82361,16.7364 162.290564,17.2312571 C162.464004,17.4089714 162.797542,17.6009714 163.198345,17.6009714 C164.02552,17.6009714 164.62589,16.6821143 164.62589,15.2558286 C164.62589,14.1038286 164.425767,13.1026857 163.998281,12.6495429 M163.024349,18.2324 C161.089824,18.2324 159.942452,16.7506857 159.942452,14.9678286 C159.942452,13.1026857 161.39668,11.6072571 163.304521,11.6072571 C165.212918,11.6072571 166.360291,13.0615429 166.360291,14.8169714 C166.360291,16.7095429 164.959429,18.2324 163.024349,18.2324 M171.549596,13.4726286 C171.14935,13.4726286 170.882519,13.2252 170.709079,12.9240571 C170.362199,13.1572 169.868562,13.5960571 169.535023,14.1720571 L169.535023,17.2029143 C169.535023,17.3406286 169.615072,17.4229143 170.042002,17.4497714 L170.495614,17.4909143 L170.535639,18.0263429 L167.173569,18.0263429 L167.213038,17.4909143 L167.520449,17.4497714 C167.840647,17.4229143 167.973506,17.3537714 167.973506,17.1897714 L167.973506,13.8977714 C167.973506,13.0332 167.86733,12.9109143 167.39982,12.7869143 L167.133545,12.7040571 L167.14633,12.2794857 L169.535023,11.6069143 L169.535023,13.3212 L169.601731,13.3212 C170.2021,12.2937714 170.695737,11.6069143 171.389498,11.6069143 C171.977082,11.6069143 172.336747,11.9777714 172.336747,12.5674857 C172.336747,13.0474857 172.043789,13.4726286 171.549596,13.4726286 M174.191222,10.6606857 C173.617536,10.6606857 173.243973,10.1949714 173.243973,9.6464 C173.243973,9.09725714 173.617536,8.63097143 174.191222,8.63097143 C174.764909,8.63097143 175.152369,9.09725714 175.152369,9.6464 C175.152369,10.1949714 174.764909,10.6606857 174.191222,10.6606857 L174.191222,10.6606857 Z M172.723096,18.0264 L172.763677,17.4909714 L173.069977,17.4498286 C173.39073,17.4229714 173.524145,17.3538286 173.524145,17.1898286 L173.524145,13.8978286 C173.524145,13.0332571 173.416857,12.9109714 172.950459,12.7869714 L172.683628,12.7041143 L172.696969,12.2795429 L175.085106,11.6069714 L175.085106,17.2029714 C175.085106,17.3401143 175.165155,17.4229714 175.592641,17.4498286 L175.885599,17.4909714 L175.925623,18.0264 L172.723096,18.0264 Z M178.259838,10.4418286 L178.88689,10.5241143 L178.874105,11.8818286 L181.028312,11.8818 L181.021816,11.8131429 L184.331075,11.8131429 L184.290494,12.348 L183.890248,12.4577143 C183.6501,12.5125714 183.556709,12.6777143 183.676783,12.9788571 L185.090987,16.408 L186.171652,13.2394286 C186.345648,12.7457143 186.265043,12.54 185.93206,12.4857143 L185.491789,12.3342857 L185.451209,11.8131429 L188,11.8131429 L187.959975,12.3342857 L187.559173,12.4165714 C187.22619,12.4714286 187.079433,12.704 186.865413,13.2394286 L185.264427,17.5462857 L184.503959,19.8502857 C184.103713,21.0577143 183.623417,21.6194286 182.836266,21.6194286 C182.262579,21.6194286 181.822308,21.2497143 181.822308,20.7554286 C181.822308,20.3302857 182.075798,19.9331429 182.569435,19.9331429 C183.023048,19.9331429 183.30322,20.2211429 183.423294,20.5091429 C183.636759,20.4131429 183.796857,20.152 183.99698,19.508 L184.343861,18.4651429 L184.343861,18.3828571 L181.969065,12.9514286 C181.848992,12.6634286 181.728918,12.5674286 181.382037,12.4714286 L181.074626,12.348 L181.037312,11.9778 L180.955386,12.7189714 L178.874105,12.7189714 L178.807397,15.7355429 C178.7935,16.8058286 179.260454,17.1212571 179.914745,17.1212571 C180.247728,17.1212571 180.701897,17.0109714 181.034879,16.8326857 L181.088801,17.2309714 C180.594608,17.8201143 179.821355,18.2321143 179.00752,18.2321143 C177.953538,18.2321143 177.272563,17.6012571 177.299802,16.2155429 L177.365954,12.7595429 L176.325314,12.6635429 L176.351997,12.1829714 L177.312588,11.3189714 L178.259838,10.4418286 Z M108.365092,31.9464571 C107.644093,31.9464571 106.856942,31.8367429 106.310494,31.6173143 L106.243787,29.7927429 L107.150456,29.7927429 L107.471209,31.0413143 C107.737484,31.1921714 108.111603,31.3424571 108.485166,31.3424571 C109.12556,31.3424571 109.659222,30.9453143 109.659222,30.3550286 C109.659222,29.7516 108.925437,29.5190286 108.164969,29.2304571 C107.177139,28.8607429 106.296597,28.4487429 106.296597,27.2281714 C106.296597,26.1721714 107.164353,25.3081714 108.65805,25.3081714 C109.25842,25.3081714 109.752613,25.4041714 110.099493,25.5276 L110.686521,25.3767429 L110.753229,27.4064571 L109.912712,27.4064571 L109.55249,26.1996 C109.312342,26.0487429 108.965462,25.9253143 108.618582,25.9253143 C108.018212,25.9253143 107.604624,26.2676 107.604624,26.7476 C107.604624,27.3790286 108.124389,27.5567429 109.03217,27.9001714 C110.006102,28.2698857 110.966694,28.6956 110.966694,29.9161714 C110.966694,31.0276 110.032786,31.9464571 108.365092,31.9464571 M113.327981,24.3749714 C112.754294,24.3749714 112.380731,23.9092571 112.380731,23.3606857 C112.380731,22.8115429 112.754294,22.3452571 113.327981,22.3452571 C113.901667,22.3452571 114.289128,22.8115429 114.289128,23.3606857 C114.289128,23.9092571 113.901667,24.3749714 113.327981,24.3749714 L113.327981,24.3749714 Z M111.859855,31.7406857 L111.900435,31.2052571 L112.206735,31.1641143 C112.527488,31.1372571 112.660903,31.0681143 112.660903,30.9041143 L112.660903,27.6121143 C112.660903,26.7475429 112.553615,26.6252571 112.087217,26.5012571 L111.820386,26.4184 L111.833727,25.9938286 L114.221864,25.3212571 L114.221864,30.9172571 C114.221864,31.0544 114.301913,31.1372571 114.729399,31.1641143 L115.022357,31.2052571 L115.062381,31.7406857 L111.859855,31.7406857 Z M119.718637,31.7405143 L119.758105,31.2050857 L120.011595,31.1639429 C120.399055,31.1370857 120.465763,31.0410857 120.465763,30.9039429 L120.465763,28.2153714 C120.465763,26.8576571 120.052175,26.5290857 119.305049,26.5290857 C118.864778,26.5290857 118.384482,26.7616571 118.130993,26.9536571 L118.130993,30.9176571 C118.130993,31.0548 118.210486,31.1370857 118.637971,31.1639429 L118.998193,31.2050857 L119.037662,31.7405143 L115.755642,31.7405143 L115.795666,31.2050857 L116.116419,31.1639429 C116.436616,31.1370857 116.569476,31.0679429 116.569476,30.9039429 L116.569476,27.6119429 C116.569476,26.7479429 116.463299,26.6250857 115.995789,26.5010857 L115.728958,26.4188 L115.7423,25.9936571 L118.130993,25.3216571 L118.130993,26.3365143 L118.1977,26.3365143 C118.931485,25.7330857 119.651929,25.3216571 120.385714,25.3216571 C120.78596,25.3216571 121.21289,25.4868 121.519745,25.8010857 C121.866625,26.1582286 122.026724,26.6799429 122.026724,27.3788 L122.026724,30.9039429 C122.026724,31.0273714 122.093432,31.1096571 122.573727,31.1639429 L122.854456,31.2050857 L122.893924,31.7405143 L119.718637,31.7405143 Z M126.309082,31.9464571 C124.721438,31.9464571 123.494016,30.6841714 123.494016,28.8464571 C123.494016,26.8030286 124.948244,25.3213143 126.829958,25.3213143 C128.150771,25.3213143 128.897342,25.9384571 128.897342,26.7207429 C128.897342,27.3516 128.470968,27.5710286 128.043483,27.5710286 C127.41643,27.5710286 127.056209,26.8304571 127.216307,26.1173143 L127.216307,26.0898857 C127.096233,26.0076 126.882769,25.9527429 126.669304,25.9527429 C125.828786,25.9527429 125.148368,26.7207429 125.148368,28.2018857 C125.148368,29.7110286 125.908836,30.7801714 127.016184,30.7801714 C127.629895,30.7801714 128.243606,30.4790286 128.697775,29.9161714 L128.990733,30.0807429 C128.550462,31.2744571 127.603212,31.9464571 126.309082,31.9464571 M132.752937,25.9252 C132.08586,25.9252 131.498276,26.5143429 131.3921,27.6806286 C131.3921,27.6806286 133.713529,27.6526286 133.673504,27.6526286 C133.740212,26.5560571 133.353307,25.9252 132.752937,25.9252 M132.552814,31.9463429 C130.951829,31.9463429 129.737192,30.6840571 129.737192,28.8463429 C129.737192,26.8303429 131.13861,25.3212 133.006427,25.3212 C134.287215,25.3212 135.247806,26.1034857 135.247806,27.4474857 C135.247806,27.6674857 135.221123,27.9686286 135.167757,28.2017714 L131.378202,28.1474857 L131.378202,28.2977714 C131.3921,29.8069143 132.139226,30.7800571 133.259916,30.7800571 C133.860286,30.7800571 134.473997,30.4789143 134.927609,29.9160571 L135.221123,30.0806286 C134.780852,31.2743429 133.833603,31.9463429 132.552814,31.9463429 M139.529553,31.7405143 L139.569578,31.1639429 L140.356729,31.0136571 C140.583535,30.9588 140.66414,30.8490857 140.66414,30.6982286 L140.66414,26.2816571 L139.236595,26.1445143 L139.276064,25.6788 L142.225101,24.9919429 L142.225101,30.6982286 C142.225101,30.8490857 142.305151,30.9719429 142.531401,31.0136571 L143.372474,31.1639429 L143.412499,31.7405143 L139.529553,31.7405143 Z M147.214951,25.6785714 C146.414458,25.6785714 146.00087,26.4597143 146.00087,27.598 C146.00087,28.998 146.69463,29.8202857 147.588514,29.8202857 C148.056024,29.8202857 148.469056,29.6008571 148.709204,29.3677143 C148.76257,29.2305714 148.802595,28.9837143 148.802595,28.5311429 C148.802595,27.1597143 148.242805,25.6785714 147.214951,25.6785714 M144.626691,34.3465714 L144.479934,33.8254286 C146.948676,33.4688571 148.336196,31.7545714 148.749784,30.0402857 L148.709204,30.0122857 C148.122176,30.506 147.415074,30.7665714 146.761338,30.7665714 C145.373261,30.7665714 144.373201,29.6694286 144.373201,28.0922857 C144.373201,26.282 145.800747,24.9785714 147.481781,24.9785714 C149.350154,24.9785714 150.496971,26.57 150.496971,28.5448571 C150.496971,31.6585714 147.908711,34.1271429 144.626691,34.3465714 M153.204971,34.2645143 L152.230482,34.2645143 L156.206819,26.5559429 L156.206819,26.5142286 L154.53857,26.5142286 C152.564577,26.5142286 152.497869,26.5559429 152.311087,26.9130857 L151.910841,27.7353714 L151.403862,27.7353714 L151.710718,25.2119429 L157.327509,25.2119429 L157.394216,25.7879429 L153.204971,34.2645143 Z M161.303512,26.1172 C160.022167,26.1172 159.155523,27.0909143 159.155523,28.4766286 C159.155523,29.8617714 160.04885,30.8492 161.330195,30.8492 C162.610983,30.8492 163.491525,29.8892 163.491525,28.5034857 C163.491525,27.1183429 162.5843,26.1172 161.303512,26.1172 M161.303512,31.9463429 C159.381773,31.9463429 158.048174,30.5749143 158.048174,28.5034857 C158.048174,26.4183429 159.409012,25.0063429 161.330195,25.0063429 C163.264719,25.0063429 164.598873,26.3914857 164.598873,28.4766286 C164.598873,30.5469143 163.23748,31.9463429 161.303512,31.9463429"
                        fill="#1A1A1A"></path>
                    <polygon id="Fill-50" fill="#737373"
                             points="93.9464948 40 94.5023926 40 94.5023926 0 93.9464948 0"></polygon>
                </g>
            </g>
        </g>
    </g>
</svg>
