<svg xmlns="http://www.w3.org/2000/svg" fill="none" viewBox="0 0 808 228" height="228" width="808">
<rect fill="white" height="228" width="808"></rect>
<path fill="black" d="M27 23.6814H74.2571L127.251 169.982C126.799 163.339 126.497 153.223 126.497 140.088V23.6814H156.089V203.802H108.832L55.5354 57.0482C56.2903 63.5404 56.5923 73.0522 56.5923 85.5837V203.651H27V23.6814Z"></path>
<path fill="black" d="M239.882 19C286.233 19 310.692 59.161 310.692 113.665C310.692 149.901 299.822 179.493 278.533 195.95C267.814 204.254 254.829 208.33 239.882 208.33C209.988 208.33 188.247 190.817 177.376 162.281C171.941 148.089 169.072 131.934 169.072 113.665C169.223 59.161 193.682 19 239.882 19ZM213.46 161.526C219.953 173.605 228.71 179.795 239.882 179.795C251.055 179.795 259.963 173.605 266.455 161.526C272.947 149.448 275.967 133.444 275.967 113.665C275.967 93.8867 272.947 77.5807 266.908 65.5022C260.718 53.4237 251.81 47.5354 239.882 47.5354C227.955 47.5354 219.047 53.4237 213.159 65.5022C206.968 77.5807 203.949 93.5847 203.949 113.665C203.949 133.444 206.968 149.448 213.46 161.526Z"></path>
<path fill="black" d="M323.828 23.6814H373.5C423.928 23.6814 455.785 56.1423 455.785 113.968C455.785 168.17 425.438 203.802 374.255 203.802H323.828V23.6814ZM373.953 175.116C400.677 175.116 421.06 154.28 421.06 113.968C421.06 73.6562 403.244 52.2168 373.651 52.2168H357.647V175.116H373.802H373.953Z"></path>
<path fill="black" d="M470.433 23.228H593.634V51.7635H504.102V95.699H589.558V124.536H504.102V174.662H597.258V203.198H470.433V23.228Z"></path>
<path fill="black" d="M604.05 114.419C604.05 82.2597 621.261 52.9693 648.589 36.8143C661.875 28.6613 676.822 24.7358 692.826 24.7358C724.985 24.7358 753.521 42.2497 769.525 69.5772C777.376 83.6185 781.15 98.4147 781.15 114.419C781.15 147.182 764.241 176.472 736.913 192.325C723.023 200.478 707.925 204.403 691.468 204.403C660.215 204.403 631.679 186.588 616.128 158.958C607.975 145.37 604.05 130.423 604.05 114.419ZM660.215 173.754C670.33 179.944 681.654 182.813 694.034 182.813C717.134 182.813 737.819 169.527 749.595 148.389C755.484 137.972 758.352 126.648 758.352 114.268C758.352 89.5068 745.972 67.1615 725.891 54.7811C715.776 48.5909 704.754 45.7222 692.826 45.7222C657.346 45.7222 627.15 77.5792 627.15 114.268C627.15 139.331 639.832 161.676 660.215 173.754ZM647.532 113.664C647.532 85.4303 668.066 64.5949 694.034 64.5949C717.134 64.5949 733.742 78.1832 734.648 101.283H711.85C710.491 88.6009 703.093 83.4675 694.034 83.4675C680.748 83.4675 671.236 95.0931 671.236 113.664C671.236 133.442 679.993 143.86 693.279 143.86C702.791 143.86 711.095 139.029 712.454 126.044H735.252C734.346 148.389 717.738 163.035 692.977 163.035C679.691 163.035 668.971 158.807 660.516 150.05C651.76 141.293 647.532 129.215 647.532 113.664Z"></path>
</svg>
