<?xml version="1.0" encoding="UTF-8"?>
<svg id="Layer_2" data-name="Layer 2" xmlns="http://www.w3.org/2000/svg" viewBox="0 0 808 228">
  <g id="Layer_2-2" data-name="Layer 2">
    <g id="Layer_1-2" data-name="Layer 1-2">
      <path d="M266.91,65.5c-6.19-12.08-15.1-17.96-27.03-17.96s-20.83,5.88-26.72,17.96c-6.19,12.08-9.21,28.08-9.21,48.17s3.02,35.78,9.51,47.86c6.49,12.08,15.25,18.27,26.42,18.27s20.08-6.19,26.57-18.27c6.5-12.08,9.52-28.09,9.52-47.86s-3.02-36.09-9.06-48.17h0ZM266.91,65.5c-6.19-12.08-15.1-17.96-27.03-17.96s-20.83,5.88-26.72,17.96c-6.19,12.08-9.21,28.08-9.21,48.17s3.02,35.78,9.51,47.86c6.49,12.08,15.25,18.27,26.42,18.27s20.08-6.19,26.57-18.27c6.5-12.08,9.52-28.09,9.52-47.86s-3.02-36.09-9.06-48.17h0ZM266.91,65.5c-6.19-12.08-15.1-17.96-27.03-17.96s-20.83,5.88-26.72,17.96c-6.19,12.08-9.21,28.08-9.21,48.17s3.02,35.78,9.51,47.86c6.49,12.08,15.25,18.27,26.42,18.27s20.08-6.19,26.57-18.27c6.5-12.08,9.52-28.09,9.52-47.86s-3.02-36.09-9.06-48.17h0ZM373.65,52.22h-16v122.9h16.3c26.73,0,47.11-20.84,47.11-61.15s-17.82-61.75-47.41-61.75ZM373.65,52.22h-16v122.9h16.3c26.73,0,47.11-20.84,47.11-61.15s-17.82-61.75-47.41-61.75ZM266.91,65.5c-6.19-12.08-15.1-17.96-27.03-17.96s-20.83,5.88-26.72,17.96c-6.19,12.08-9.21,28.08-9.21,48.17s3.02,35.78,9.51,47.86c6.49,12.08,15.25,18.27,26.42,18.27s20.08-6.19,26.57-18.27c6.5-12.08,9.52-28.09,9.52-47.86s-3.02-36.09-9.06-48.17h0ZM266.91,65.5c-6.19-12.08-15.1-17.96-27.03-17.96s-20.83,5.88-26.72,17.96c-6.19,12.08-9.21,28.08-9.21,48.17s3.02,35.78,9.51,47.86c6.49,12.08,15.25,18.27,26.42,18.27s20.08-6.19,26.57-18.27c6.5-12.08,9.52-28.09,9.52-47.86s-3.02-36.09-9.06-48.17h0ZM373.65,52.22h-16v122.9h16.3c26.73,0,47.11-20.84,47.11-61.15s-17.82-61.75-47.41-61.75ZM725.89,54.78c-10.11-6.19-21.14-9.06-33.06-9.06-35.48,0-65.68,31.86-65.68,68.55,0,25.06,12.68,47.41,33.07,59.48,10.11,6.19,21.43,9.06,33.81,9.06,23.1,0,43.79-13.28,55.56-34.42,5.89-10.42,8.76-21.74,8.76-34.12,0-24.76-12.38-47.11-32.46-59.49ZM692.98,163.04c-13.29,0-24.01-4.23-32.46-12.99-8.76-8.76-12.99-20.83-12.99-36.39,0-28.23,20.54-49.06,46.5-49.06,23.1,0,39.71,13.58,40.62,36.68h-22.8c-1.36-12.68-8.76-17.81-17.82-17.81-13.28,0-22.79,11.62-22.79,30.19,0,19.78,8.75,30.2,22.04,30.2,9.51,0,17.81-4.83,19.17-17.82h22.8c-.9,22.35-17.51,37-42.27,37h0ZM725.89,54.78c-10.11-6.19-21.14-9.06-33.06-9.06-35.48,0-65.68,31.86-65.68,68.55,0,25.06,12.68,47.41,33.07,59.48,10.11,6.19,21.43,9.06,33.81,9.06,23.1,0,43.79-13.28,55.56-34.42,5.89-10.42,8.76-21.74,8.76-34.12,0-24.76-12.38-47.11-32.46-59.49ZM692.98,163.04c-13.29,0-24.01-4.23-32.46-12.99-8.76-8.76-12.99-20.83-12.99-36.39,0-28.23,20.54-49.06,46.5-49.06,23.1,0,39.71,13.58,40.62,36.68h-22.8c-1.36-12.68-8.76-17.81-17.82-17.81-13.28,0-22.79,11.62-22.79,30.19,0,19.78,8.75,30.2,22.04,30.2,9.51,0,17.81-4.83,19.17-17.82h22.8c-.9,22.35-17.51,37-42.27,37h0ZM373.65,52.22h-16v122.9h16.3c26.73,0,47.11-20.84,47.11-61.15s-17.82-61.75-47.41-61.75ZM266.91,65.5c-6.19-12.08-15.1-17.96-27.03-17.96s-20.83,5.88-26.72,17.96c-6.19,12.08-9.21,28.08-9.21,48.17s3.02,35.78,9.51,47.86c6.49,12.08,15.25,18.27,26.42,18.27s20.08-6.19,26.57-18.27c6.5-12.08,9.52-28.09,9.52-47.86s-3.02-36.09-9.06-48.17h0ZM266.91,65.5c-6.19-12.08-15.1-17.96-27.03-17.96s-20.83,5.88-26.72,17.96c-6.19,12.08-9.21,28.08-9.21,48.17s3.02,35.78,9.51,47.86c6.49,12.08,15.25,18.27,26.42,18.27s20.08-6.19,26.57-18.27c6.5-12.08,9.52-28.09,9.52-47.86s-3.02-36.09-9.06-48.17h0ZM373.65,52.22h-16v122.9h16.3c26.73,0,47.11-20.84,47.11-61.15s-17.82-61.75-47.41-61.75ZM725.89,54.78c-10.11-6.19-21.14-9.06-33.06-9.06-35.48,0-65.68,31.86-65.68,68.55,0,25.06,12.68,47.41,33.07,59.48,10.11,6.19,21.43,9.06,33.81,9.06,23.1,0,43.79-13.28,55.56-34.42,5.89-10.42,8.76-21.74,8.76-34.12,0-24.76-12.38-47.11-32.46-59.49ZM692.98,163.04c-13.29,0-24.01-4.23-32.46-12.99-8.76-8.76-12.99-20.83-12.99-36.39,0-28.23,20.54-49.06,46.5-49.06,23.1,0,39.71,13.58,40.62,36.68h-22.8c-1.36-12.68-8.76-17.81-17.82-17.81-13.28,0-22.79,11.62-22.79,30.19,0,19.78,8.75,30.2,22.04,30.2,9.51,0,17.81-4.83,19.17-17.82h22.8c-.9,22.35-17.51,37-42.27,37h0ZM725.89,54.78c-10.11-6.19-21.14-9.06-33.06-9.06-35.48,0-65.68,31.86-65.68,68.55,0,25.06,12.68,47.41,33.07,59.48,10.11,6.19,21.43,9.06,33.81,9.06,23.1,0,43.79-13.28,55.56-34.42,5.89-10.42,8.76-21.74,8.76-34.12,0-24.76-12.38-47.11-32.46-59.49ZM692.98,163.04c-13.29,0-24.01-4.23-32.46-12.99-8.76-8.76-12.99-20.83-12.99-36.39,0-28.23,20.54-49.06,46.5-49.06,23.1,0,39.71,13.58,40.62,36.68h-22.8c-1.36-12.68-8.76-17.81-17.82-17.81-13.28,0-22.79,11.62-22.79,30.19,0,19.78,8.75,30.2,22.04,30.2,9.51,0,17.81-4.83,19.17-17.82h22.8c-.9,22.35-17.51,37-42.27,37h0ZM373.65,52.22h-16v122.9h16.3c26.73,0,47.11-20.84,47.11-61.15s-17.82-61.75-47.41-61.75ZM266.91,65.5c-6.19-12.08-15.1-17.96-27.03-17.96s-20.83,5.88-26.72,17.96c-6.19,12.08-9.21,28.08-9.21,48.17s3.02,35.78,9.51,47.86c6.49,12.08,15.25,18.27,26.42,18.27s20.08-6.19,26.57-18.27c6.5-12.08,9.52-28.09,9.52-47.86s-3.02-36.09-9.06-48.17h0ZM266.91,65.5c-6.19-12.08-15.1-17.96-27.03-17.96s-20.83,5.88-26.72,17.96c-6.19,12.08-9.21,28.08-9.21,48.17s3.02,35.78,9.51,47.86c6.49,12.08,15.25,18.27,26.42,18.27s20.08-6.19,26.57-18.27c6.5-12.08,9.52-28.09,9.52-47.86s-3.02-36.09-9.06-48.17h0ZM373.65,52.22h-16v122.9h16.3c26.73,0,47.11-20.84,47.11-61.15s-17.82-61.75-47.41-61.75ZM725.89,54.78c-10.11-6.19-21.14-9.06-33.06-9.06-35.48,0-65.68,31.86-65.68,68.55,0,25.06,12.68,47.41,33.07,59.48,10.11,6.19,21.43,9.06,33.81,9.06,23.1,0,43.79-13.28,55.56-34.42,5.89-10.42,8.76-21.74,8.76-34.12,0-24.76-12.38-47.11-32.46-59.49ZM692.98,163.04c-13.29,0-24.01-4.23-32.46-12.99-8.76-8.76-12.99-20.83-12.99-36.39,0-28.23,20.54-49.06,46.5-49.06,23.1,0,39.71,13.58,40.62,36.68h-22.8c-1.36-12.68-8.76-17.81-17.82-17.81-13.28,0-22.79,11.62-22.79,30.19,0,19.78,8.75,30.2,22.04,30.2,9.51,0,17.81-4.83,19.17-17.82h22.8c-.9,22.35-17.51,37-42.27,37h0ZM725.89,54.78c-10.11-6.19-21.14-9.06-33.06-9.06-35.48,0-65.68,31.86-65.68,68.55,0,25.06,12.68,47.41,33.07,59.48,10.11,6.19,21.43,9.06,33.81,9.06,23.1,0,43.79-13.28,55.56-34.42,5.89-10.42,8.76-21.74,8.76-34.12,0-24.76-12.38-47.11-32.46-59.49ZM692.98,163.04c-13.29,0-24.01-4.23-32.46-12.99-8.76-8.76-12.99-20.83-12.99-36.39,0-28.23,20.54-49.06,46.5-49.06,23.1,0,39.71,13.58,40.62,36.68h-22.8c-1.36-12.68-8.76-17.81-17.82-17.81-13.28,0-22.79,11.62-22.79,30.19,0,19.78,8.75,30.2,22.04,30.2,9.51,0,17.81-4.83,19.17-17.82h22.8c-.9,22.35-17.51,37-42.27,37h0ZM373.65,52.22h-16v122.9h16.3c26.73,0,47.11-20.84,47.11-61.15s-17.82-61.75-47.41-61.75ZM266.91,65.5c-6.19-12.08-15.1-17.96-27.03-17.96s-20.83,5.88-26.72,17.96c-6.19,12.08-9.21,28.08-9.21,48.17s3.02,35.78,9.51,47.86c6.49,12.08,15.25,18.27,26.42,18.27s20.08-6.19,26.57-18.27c6.5-12.08,9.52-28.09,9.52-47.86s-3.02-36.09-9.06-48.17h0ZM266.91,65.5c-6.19-12.08-15.1-17.96-27.03-17.96s-20.83,5.88-26.72,17.96c-6.19,12.08-9.21,28.08-9.21,48.17s3.02,35.78,9.51,47.86c6.49,12.08,15.25,18.27,26.42,18.27s20.08-6.19,26.57-18.27c6.5-12.08,9.52-28.09,9.52-47.86s-3.02-36.09-9.06-48.17h0ZM373.65,52.22h-16v122.9h16.3c26.73,0,47.11-20.84,47.11-61.15s-17.82-61.75-47.41-61.75ZM725.89,54.78c-10.11-6.19-21.14-9.06-33.06-9.06-35.48,0-65.68,31.86-65.68,68.55,0,25.06,12.68,47.41,33.07,59.48,10.11,6.19,21.43,9.06,33.81,9.06,23.1,0,43.79-13.28,55.56-34.42,5.89-10.42,8.76-21.74,8.76-34.12,0-24.76-12.38-47.11-32.46-59.49ZM692.98,163.04c-13.29,0-24.01-4.23-32.46-12.99-8.76-8.76-12.99-20.83-12.99-36.39,0-28.23,20.54-49.06,46.5-49.06,23.1,0,39.71,13.58,40.62,36.68h-22.8c-1.36-12.68-8.76-17.81-17.82-17.81-13.28,0-22.79,11.62-22.79,30.19,0,19.78,8.75,30.2,22.04,30.2,9.51,0,17.81-4.83,19.17-17.82h22.8c-.9,22.35-17.51,37-42.27,37h0ZM725.89,54.78c-10.11-6.19-21.14-9.06-33.06-9.06-35.48,0-65.68,31.86-65.68,68.55,0,25.06,12.68,47.41,33.07,59.48,10.11,6.19,21.43,9.06,33.81,9.06,23.1,0,43.79-13.28,55.56-34.42,5.89-10.42,8.76-21.74,8.76-34.12,0-24.76-12.38-47.11-32.46-59.49ZM692.98,163.04c-13.29,0-24.01-4.23-32.46-12.99-8.76-8.76-12.99-20.83-12.99-36.39,0-28.23,20.54-49.06,46.5-49.06,23.1,0,39.71,13.58,40.62,36.68h-22.8c-1.36-12.68-8.76-17.81-17.82-17.81-13.28,0-22.79,11.62-22.79,30.19,0,19.78,8.75,30.2,22.04,30.2,9.51,0,17.81-4.83,19.17-17.82h22.8c-.9,22.35-17.51,37-42.27,37h0ZM373.65,52.22h-16v122.9h16.3c26.73,0,47.11-20.84,47.11-61.15s-17.82-61.75-47.41-61.75ZM266.91,65.5c-6.19-12.08-15.1-17.96-27.03-17.96s-20.83,5.88-26.72,17.96c-6.19,12.08-9.21,28.08-9.21,48.17s3.02,35.78,9.51,47.86c6.49,12.08,15.25,18.27,26.42,18.27s20.08-6.19,26.57-18.27c6.5-12.08,9.52-28.09,9.52-47.86s-3.02-36.09-9.06-48.17h0ZM0,0v228h808V0H0ZM156.09,203.8h-47.26L55.54,57.05c.75,6.49,1.05,16,1.05,28.53v118.07h-29.59V23.68h47.26l52.99,146.3c-.45-6.64-.75-16.76-.75-29.89V23.68h29.59v180.12h0ZM278.53,195.95c-10.72,8.3-23.7,12.38-38.65,12.38-29.89,0-51.63-17.51-62.5-46.05-5.44-14.19-8.31-30.35-8.31-48.61.15-54.51,24.61-94.67,70.81-94.67s70.81,40.16,70.81,94.67c0,36.23-10.87,65.82-32.16,82.28ZM374.26,203.8h-50.43V23.68h49.67c50.43,0,82.29,32.46,82.29,90.29,0,54.2-30.35,89.83-81.53,89.83ZM597.26,203.2h-126.83V23.23h123.2v28.53h-89.53v43.94h85.46v28.84h-85.46v50.12h93.16v28.54h0ZM736.91,192.33c-13.89,8.15-28.99,12.07-45.44,12.07-31.25,0-59.79-17.81-75.34-45.44-8.16-13.59-12.08-28.54-12.08-44.54,0-32.16,17.21-61.45,44.54-77.61,13.29-8.15,28.23-12.07,44.24-12.07,32.15,0,60.69,17.51,76.7,44.84,7.85,14.04,11.62,28.83,11.62,44.84,0,32.76-16.91,62.05-44.24,77.91h0ZM725.89,54.78c-10.11-6.19-21.14-9.06-33.06-9.06-35.48,0-65.68,31.86-65.68,68.55,0,25.06,12.68,47.41,33.07,59.48,10.11,6.19,21.43,9.06,33.81,9.06,23.1,0,43.79-13.28,55.56-34.42,5.89-10.42,8.76-21.74,8.76-34.12,0-24.76-12.38-47.11-32.46-59.49ZM692.98,163.04c-13.29,0-24.01-4.23-32.46-12.99-8.76-8.76-12.99-20.83-12.99-36.39,0-28.23,20.54-49.06,46.5-49.06,23.1,0,39.71,13.58,40.62,36.68h-22.8c-1.36-12.68-8.76-17.81-17.82-17.81-13.28,0-22.79,11.62-22.79,30.19,0,19.78,8.75,30.2,22.04,30.2,9.51,0,17.81-4.83,19.17-17.82h22.8c-.9,22.35-17.51,37-42.27,37h0ZM373.65,52.22h-16v122.9h16.3c26.73,0,47.11-20.84,47.11-61.15s-17.82-61.75-47.41-61.75ZM239.88,47.54c-11.92,0-20.83,5.88-26.72,17.96-6.19,12.08-9.21,28.08-9.21,48.17s3.02,35.78,9.51,47.86c6.49,12.08,15.25,18.27,26.42,18.27s20.08-6.19,26.57-18.27c6.5-12.08,9.52-28.09,9.52-47.86s-3.02-36.09-9.06-48.17c-6.19-12.08-15.1-17.96-27.03-17.96h0ZM266.91,65.5c-6.19-12.08-15.1-17.96-27.03-17.96s-20.83,5.88-26.72,17.96c-6.19,12.08-9.21,28.08-9.21,48.17s3.02,35.78,9.51,47.86c6.49,12.08,15.25,18.27,26.42,18.27s20.08-6.19,26.57-18.27c6.5-12.08,9.52-28.09,9.52-47.86s-3.02-36.09-9.06-48.17h0ZM373.65,52.22h-16v122.9h16.3c26.73,0,47.11-20.84,47.11-61.15s-17.82-61.75-47.41-61.75ZM725.89,54.78c-10.11-6.19-21.14-9.06-33.06-9.06-35.48,0-65.68,31.86-65.68,68.55,0,25.06,12.68,47.41,33.07,59.48,10.11,6.19,21.43,9.06,33.81,9.06,23.1,0,43.79-13.28,55.56-34.42,5.89-10.42,8.76-21.74,8.76-34.12,0-24.76-12.38-47.11-32.46-59.49ZM692.98,163.04c-13.29,0-24.01-4.23-32.46-12.99-8.76-8.76-12.99-20.83-12.99-36.39,0-28.23,20.54-49.06,46.5-49.06,23.1,0,39.71,13.58,40.62,36.68h-22.8c-1.36-12.68-8.76-17.81-17.82-17.81-13.28,0-22.79,11.62-22.79,30.19,0,19.78,8.75,30.2,22.04,30.2,9.51,0,17.81-4.83,19.17-17.82h22.8c-.9,22.35-17.51,37-42.27,37h0ZM725.89,54.78c-10.11-6.19-21.14-9.06-33.06-9.06-35.48,0-65.68,31.86-65.68,68.55,0,25.06,12.68,47.41,33.07,59.48,10.11,6.19,21.43,9.06,33.81,9.06,23.1,0,43.79-13.28,55.56-34.42,5.89-10.42,8.76-21.74,8.76-34.12,0-24.76-12.38-47.11-32.46-59.49ZM692.98,163.04c-13.29,0-24.01-4.23-32.46-12.99-8.76-8.76-12.99-20.83-12.99-36.39,0-28.23,20.54-49.06,46.5-49.06,23.1,0,39.71,13.58,40.62,36.68h-22.8c-1.36-12.68-8.76-17.81-17.82-17.81-13.28,0-22.79,11.62-22.79,30.19,0,19.78,8.75,30.2,22.04,30.2,9.51,0,17.81-4.83,19.17-17.82h22.8c-.9,22.35-17.51,37-42.27,37h0ZM373.65,52.22h-16v122.9h16.3c26.73,0,47.11-20.84,47.11-61.15s-17.82-61.75-47.41-61.75ZM266.91,65.5c-6.19-12.08-15.1-17.96-27.03-17.96s-20.83,5.88-26.72,17.96c-6.19,12.08-9.21,28.08-9.21,48.17s3.02,35.78,9.51,47.86c6.49,12.08,15.25,18.27,26.42,18.27s20.08-6.19,26.57-18.27c6.5-12.08,9.52-28.09,9.52-47.86s-3.02-36.09-9.06-48.17h0ZM266.91,65.5c-6.19-12.08-15.1-17.96-27.03-17.96s-20.83,5.88-26.72,17.96c-6.19,12.08-9.21,28.08-9.21,48.17s3.02,35.78,9.51,47.86c6.49,12.08,15.25,18.27,26.42,18.27s20.08-6.19,26.57-18.27c6.5-12.08,9.52-28.09,9.52-47.86s-3.02-36.09-9.06-48.17h0ZM373.65,52.22h-16v122.9h16.3c26.73,0,47.11-20.84,47.11-61.15s-17.82-61.75-47.41-61.75ZM725.89,54.78c-10.11-6.19-21.14-9.06-33.06-9.06-35.48,0-65.68,31.86-65.68,68.55,0,25.06,12.68,47.41,33.07,59.48,10.11,6.19,21.43,9.06,33.81,9.06,23.1,0,43.79-13.28,55.56-34.42,5.89-10.42,8.76-21.74,8.76-34.12,0-24.76-12.38-47.11-32.46-59.49ZM692.98,163.04c-13.29,0-24.01-4.23-32.46-12.99-8.76-8.76-12.99-20.83-12.99-36.39,0-28.23,20.54-49.06,46.5-49.06,23.1,0,39.71,13.58,40.62,36.68h-22.8c-1.36-12.68-8.76-17.81-17.82-17.81-13.28,0-22.79,11.62-22.79,30.19,0,19.78,8.75,30.2,22.04,30.2,9.51,0,17.81-4.83,19.17-17.82h22.8c-.9,22.35-17.51,37-42.27,37h0ZM725.89,54.78c-10.11-6.19-21.14-9.06-33.06-9.06-35.48,0-65.68,31.86-65.68,68.55,0,25.06,12.68,47.41,33.07,59.48,10.11,6.19,21.43,9.06,33.81,9.06,23.1,0,43.79-13.28,55.56-34.42,5.89-10.42,8.76-21.74,8.76-34.12,0-24.76-12.38-47.11-32.46-59.49ZM692.98,163.04c-13.29,0-24.01-4.23-32.46-12.99-8.76-8.76-12.99-20.83-12.99-36.39,0-28.23,20.54-49.06,46.5-49.06,23.1,0,39.71,13.58,40.62,36.68h-22.8c-1.36-12.68-8.76-17.81-17.82-17.81-13.28,0-22.79,11.62-22.79,30.19,0,19.78,8.75,30.2,22.04,30.2,9.51,0,17.81-4.83,19.17-17.82h22.8c-.9,22.35-17.51,37-42.27,37h0ZM373.65,52.22h-16v122.9h16.3c26.73,0,47.11-20.84,47.11-61.15s-17.82-61.75-47.41-61.75ZM266.91,65.5c-6.19-12.08-15.1-17.96-27.03-17.96s-20.83,5.88-26.72,17.96c-6.19,12.08-9.21,28.08-9.21,48.17s3.02,35.78,9.51,47.86c6.49,12.08,15.25,18.27,26.42,18.27s20.08-6.19,26.57-18.27c6.5-12.08,9.52-28.09,9.52-47.86s-3.02-36.09-9.06-48.17h0ZM266.91,65.5c-6.19-12.08-15.1-17.96-27.03-17.96s-20.83,5.88-26.72,17.96c-6.19,12.08-9.21,28.08-9.21,48.17s3.02,35.78,9.51,47.86c6.49,12.08,15.25,18.27,26.42,18.27s20.08-6.19,26.57-18.27c6.5-12.08,9.52-28.09,9.52-47.86s-3.02-36.09-9.06-48.17h0ZM373.65,52.22h-16v122.9h16.3c26.73,0,47.11-20.84,47.11-61.15s-17.82-61.75-47.41-61.75ZM725.89,54.78c-10.11-6.19-21.14-9.06-33.06-9.06-35.48,0-65.68,31.86-65.68,68.55,0,25.06,12.68,47.41,33.07,59.48,10.11,6.19,21.43,9.06,33.81,9.06,23.1,0,43.79-13.28,55.56-34.42,5.89-10.42,8.76-21.74,8.76-34.12,0-24.76-12.38-47.11-32.46-59.49ZM692.98,163.04c-13.29,0-24.01-4.23-32.46-12.99-8.76-8.76-12.99-20.83-12.99-36.39,0-28.23,20.54-49.06,46.5-49.06,23.1,0,39.71,13.58,40.62,36.68h-22.8c-1.36-12.68-8.76-17.81-17.82-17.81-13.28,0-22.79,11.62-22.79,30.19,0,19.78,8.75,30.2,22.04,30.2,9.51,0,17.81-4.83,19.17-17.82h22.8c-.9,22.35-17.51,37-42.27,37h0ZM725.89,54.78c-10.11-6.19-21.14-9.06-33.06-9.06-35.48,0-65.68,31.86-65.68,68.55,0,25.06,12.68,47.41,33.07,59.48,10.11,6.19,21.43,9.06,33.81,9.06,23.1,0,43.79-13.28,55.56-34.42,5.89-10.42,8.76-21.74,8.76-34.12,0-24.76-12.38-47.11-32.46-59.49ZM692.98,163.04c-13.29,0-24.01-4.23-32.46-12.99-8.76-8.76-12.99-20.83-12.99-36.39,0-28.23,20.54-49.06,46.5-49.06,23.1,0,39.71,13.58,40.62,36.68h-22.8c-1.36-12.68-8.76-17.81-17.82-17.81-13.28,0-22.79,11.62-22.79,30.19,0,19.78,8.75,30.2,22.04,30.2,9.51,0,17.81-4.83,19.17-17.82h22.8c-.9,22.35-17.51,37-42.27,37h0ZM373.65,52.22h-16v122.9h16.3c26.73,0,47.11-20.84,47.11-61.15s-17.82-61.75-47.41-61.75ZM266.91,65.5c-6.19-12.08-15.1-17.96-27.03-17.96s-20.83,5.88-26.72,17.96c-6.19,12.08-9.21,28.08-9.21,48.17s3.02,35.78,9.51,47.86c6.49,12.08,15.25,18.27,26.42,18.27s20.08-6.19,26.57-18.27c6.5-12.08,9.52-28.09,9.52-47.86s-3.02-36.09-9.06-48.17h0ZM266.91,65.5c-6.19-12.08-15.1-17.96-27.03-17.96s-20.83,5.88-26.72,17.96c-6.19,12.08-9.21,28.08-9.21,48.17s3.02,35.78,9.51,47.86c6.49,12.08,15.25,18.27,26.42,18.27s20.08-6.19,26.57-18.27c6.5-12.08,9.52-28.09,9.52-47.86s-3.02-36.09-9.06-48.17h0ZM373.65,52.22h-16v122.9h16.3c26.73,0,47.11-20.84,47.11-61.15s-17.82-61.75-47.41-61.75ZM725.89,54.78c-10.11-6.19-21.14-9.06-33.06-9.06-35.48,0-65.68,31.86-65.68,68.55,0,25.06,12.68,47.41,33.07,59.48,10.11,6.19,21.43,9.06,33.81,9.06,23.1,0,43.79-13.28,55.56-34.42,5.89-10.42,8.76-21.74,8.76-34.12,0-24.76-12.38-47.11-32.46-59.49ZM692.98,163.04c-13.29,0-24.01-4.23-32.46-12.99-8.76-8.76-12.99-20.83-12.99-36.39,0-28.23,20.54-49.06,46.5-49.06,23.1,0,39.71,13.58,40.62,36.68h-22.8c-1.36-12.68-8.76-17.81-17.82-17.81-13.28,0-22.79,11.62-22.79,30.19,0,19.78,8.75,30.2,22.04,30.2,9.51,0,17.81-4.83,19.17-17.82h22.8c-.9,22.35-17.51,37-42.27,37h0ZM725.89,54.78c-10.11-6.19-21.14-9.06-33.06-9.06-35.48,0-65.68,31.86-65.68,68.55,0,25.06,12.68,47.41,33.07,59.48,10.11,6.19,21.43,9.06,33.81,9.06,23.1,0,43.79-13.28,55.56-34.42,5.89-10.42,8.76-21.74,8.76-34.12,0-24.76-12.38-47.11-32.46-59.49ZM692.98,163.04c-13.29,0-24.01-4.23-32.46-12.99-8.76-8.76-12.99-20.83-12.99-36.39,0-28.23,20.54-49.06,46.5-49.06,23.1,0,39.71,13.58,40.62,36.68h-22.8c-1.36-12.68-8.76-17.81-17.82-17.81-13.28,0-22.79,11.62-22.79,30.19,0,19.78,8.75,30.2,22.04,30.2,9.51,0,17.81-4.83,19.17-17.82h22.8c-.9,22.35-17.51,37-42.27,37h0ZM373.65,52.22h-16v122.9h16.3c26.73,0,47.11-20.84,47.11-61.15s-17.82-61.75-47.41-61.75ZM266.91,65.5c-6.19-12.08-15.1-17.96-27.03-17.96s-20.83,5.88-26.72,17.96c-6.19,12.08-9.21,28.08-9.21,48.17s3.02,35.78,9.51,47.86c6.49,12.08,15.25,18.27,26.42,18.27s20.08-6.19,26.57-18.27c6.5-12.08,9.52-28.09,9.52-47.86s-3.02-36.09-9.06-48.17h0ZM266.91,65.5c-6.19-12.08-15.1-17.96-27.03-17.96s-20.83,5.88-26.72,17.96c-6.19,12.08-9.21,28.08-9.21,48.17s3.02,35.78,9.51,47.86c6.49,12.08,15.25,18.27,26.42,18.27s20.08-6.19,26.57-18.27c6.5-12.08,9.52-28.09,9.52-47.86s-3.02-36.09-9.06-48.17h0ZM373.65,52.22h-16v122.9h16.3c26.73,0,47.11-20.84,47.11-61.15s-17.82-61.75-47.41-61.75ZM373.65,52.22h-16v122.9h16.3c26.73,0,47.11-20.84,47.11-61.15s-17.82-61.75-47.41-61.75ZM266.91,65.5c-6.19-12.08-15.1-17.96-27.03-17.96s-20.83,5.88-26.72,17.96c-6.19,12.08-9.21,28.08-9.21,48.17s3.02,35.78,9.51,47.86c6.49,12.08,15.25,18.27,26.42,18.27s20.08-6.19,26.57-18.27c6.5-12.08,9.52-28.09,9.52-47.86s-3.02-36.09-9.06-48.17h0Z"/>
      <path d="M266.45,161.53c-6.49,12.08-15.4,18.27-26.57,18.27s-19.93-6.19-26.42-18.27-9.51-28.09-9.51-47.86,3.02-36.09,9.21-48.17c5.89-12.08,14.8-17.96,26.72-17.96s20.84,5.88,27.03,17.96c6.04,12.08,9.06,28.39,9.06,48.17s-3.02,35.78-9.52,47.86h0Z"/>
    </g>
  </g>
</svg>