<svg enable-background="new 0 0 327.64 137.69" height="204.919954" viewBox="0 0 327.64 137.69" width="487.995425" xmlns="http://www.w3.org/2000/svg"><path d="m287.23 46.23h2.24c3.36 0 6.61 2.5 6.61 6.87s-3.25 6.87-6.61 6.87h-2.24zm-4.02 16.89h5.49c6.15 0 11.58-2.07 11.58-10.02 0-7.96-5.43-10.02-11.58-10.02h-5.49zm-20.36 0h3.85v-14.99h.06l7.67 14.99h4.91v-20.05h-3.85v14.99h-.06l-7.64-14.99h-4.94zm-20.11-7.24c0 5.37 3.04 7.58 8.19 7.58 5.14 0 8.18-2.21 8.18-7.58v-12.81h-4.02v11.57c0 3.42-1.09 5.66-4.16 5.66s-4.17-2.24-4.17-5.66v-11.57h-4.02zm-14.22 7.24h4.02v-8.79h6.78v-3.16h-6.78v-4.94h7.12v-3.16h-11.14z" fill="#1d1d1b"/><path d="m210.63 63.12h4.02v-8.33h1.29c1.69 0 2.21.58 2.79 2.07l2.41 6.26h4.48l-3.22-7.84c-.4-.89-1.03-1.98-2.12-2.07v-.06c2.56-.34 4.14-2.3 4.14-4.65 0-5.57-5.14-5.43-9.45-5.43h-4.34zm4.02-16.89h1.32c2.01 0 4.25.2 4.25 2.61 0 2.5-2.27 2.79-4.25 2.79h-1.32zm-19.36 16.89h11.89v-3.16h-7.87v-5.63h7.15v-3.16h-7.15v-4.94h7.81v-3.16h-11.83zm-16.31 0h4.02v-7.61h1.7c4.31 0 7.73-1.69 7.73-6.38 0-4.8-3.99-6.06-8.36-6.06h-5.08v20.05zm4.02-16.89h1.41c2.07 0 3.82.8 3.82 3.13s-1.81 2.99-3.82 2.99h-1.41zm-23.98 9.65c0 5.37 3.04 7.58 8.19 7.58 5.14 0 8.19-2.21 8.19-7.58v-12.81h-4.02v11.57c0 3.42-1.09 5.66-4.17 5.66-3.07 0-4.17-2.24-4.17-5.66v-11.57h-4.02zm-4.11-12.43c-1.46-.49-3.07-.72-4.8-.72-3.53 0-7.01 1.64-7.01 6.12 0 6.63 8.79 5.06 8.79 8.88 0 1.81-2.04 2.58-3.56 2.58-1.58 0-3.16-.49-4.54-1.23l-.37 3.62c1.98.49 2.96.78 5.14.78 4.05 0 7.53-1.67 7.53-6.06 0-6.72-8.79-5.26-8.79-8.73 0-2.18 1.78-2.79 3.16-2.79 1.41 0 2.82.32 4.08.86z" fill="#9e7941"/><path d="m126.5 63.12h13.9v-3.16h-9.71l9.51-13.62v-3.27h-13.33v3.16h9.05l-9.42 13.62zm-19.64 0h3.85v-14.99h.06l7.67 14.99h4.91v-20.05h-3.85v14.99h-.06l-7.64-14.99h-4.94z" fill="#1d1d1b"/><path d="m98.51 65.82-39.09-39.08v29.05l10.06 10.06z" fill="#9e7941"/><path d="m69.22 69.85-41.35 41.35 29.24-.01 41.78-41.43z" fill="#9e7941"/><g fill="#1d1d1b"><path d="m260.06 98.01c0-1.53 1.48-5.97 3.49-5.97.83 0 1.06.67 1.06 1.48 0 1.5-1.51 5.58-3.56 5.58-.65 0-.99-.48-.99-1.09m5.27-6.18-.41 1.36h-.03c0-.89-.45-1.54-1.36-1.54-2.29 0-4.98 3.09-4.98 5.65 0 1.78 1.04 2.37 1.96 2.37 1.4 0 2.37-.95 3.01-2.03l.03.03c-.12.37-.19.75-.19 1.04 0 .5.22.95.89.95 1.23 0 2.36-1.59 2.88-2.57l-.33-.23c-.33.67-1.17 1.78-1.59 1.78-.22 0-.27-.17-.27-.31 0-.16.02-.44.39-1.76l1.34-4.73zm-9.64 1.67c0 1.15-.94 4.6-1.67 5.26-.42.39-.75.52-1.37.52-.97 0-1.42-.5-1.42-1.47 0-1.15.94-4.6 1.67-5.26.42-.39.75-.51 1.37-.51.97-.01 1.42.49 1.42 1.46m1.4 1.31c0-1.73-1-3.17-2.89-3.17-2.57 0-4.38 2.35-4.38 4.85 0 1.73 1.01 3.17 2.88 3.17 2.6 0 4.39-2.35 4.39-4.85m-12.45-2.59-1.95 7.25h1.45l.42-1.75c.94-3.84 2.82-5.6 3.71-5.6.17 0 .31.11.31.28 0 .33-.36.51-.36.95 0 .39.29.62.83.62.55 0 .94-.45.94-1.2 0-.67-.58-1.14-1.31-1.14-1.29 0-2.14 1.12-2.84 2.03l-.03-.03.47-1.9c-.58.06-1.17.09-1.75.09h-1.25l-.06.39h1.42zm-10.16 5.79c0-1.53 1.48-5.97 3.49-5.97.83 0 1.06.67 1.06 1.48 0 1.5-1.51 5.58-3.56 5.58-.64 0-.99-.48-.99-1.09m5.27-6.18-.41 1.36h-.03c0-.89-.45-1.54-1.36-1.54-2.29 0-4.97 3.09-4.97 5.65 0 1.78 1.05 2.37 1.96 2.37 1.4 0 2.37-.95 3.01-2.03l.03.03c-.12.37-.19.75-.19 1.04 0 .5.22.95.89.95 1.23 0 2.36-1.59 2.89-2.57l-.33-.23c-.33.67-1.17 1.78-1.59 1.78-.22 0-.26-.17-.26-.31 0-.16.01-.44.39-1.76l1.34-4.73zm-8.98 1.01c0 1.56-2.15 2.34-3.15 2.68.7-2.09 1.37-3.49 2.42-3.49.46 0 .73.36.73.81m.56 3.92c-.62 1.11-1.64 2.34-2.85 2.34-.84 0-1.25-.5-1.25-1.45 0-.56.09-1.09.23-1.64 1.22-.4 4.52-1.47 4.52-3.06 0-.93-.84-1.31-1.67-1.31-2.39 0-4.59 2.84-4.59 5.54 0 1.5.64 2.48 2.2 2.48 1.89 0 3.1-1.47 3.76-2.79zm-9.12-4.54-1.26 4.48c-.33 1.17-.47 1.65-.47 1.98 0 .52.41.98 1.01.98 1.4 0 2.43-1.65 3.15-2.68l-.33-.23c-.48.8-1.36 1.98-1.95 1.98-.22 0-.39-.16-.39-.34 0-.2.05-.34.09-.51l1.59-5.65h1.65l.11-.39h-1.64l.6-1.96h-1.5l-.55 1.96h-1.45l-.12.39h1.46zm-4.31 1.28c0 1.15-.94 4.6-1.67 5.26-.42.39-.75.52-1.37.52-.97 0-1.42-.5-1.42-1.47 0-1.15.94-4.6 1.67-5.26.42-.39.75-.51 1.37-.51.97-.01 1.42.49 1.42 1.46m1.41 1.31c0-1.73-1-3.17-2.89-3.17-2.57 0-4.38 2.35-4.38 4.85 0 1.73 1.01 3.17 2.88 3.17 2.59 0 4.39-2.35 4.39-4.85m-14.32.09 2.95-4.32h.03v4.32zm4.56-6.77-7.96 10.95h-1l-.11.39h3.2l.11-.39h-1.65l2.59-3.79h3.24v3.79h-1.56l-.11.39h4.83l.11-.39h-1.56l.25-10.95zm-13.65 5.37c0 1.15-.94 4.6-1.67 5.26-.42.39-.75.52-1.37.52-.97 0-1.42-.5-1.42-1.47 0-1.15.93-4.6 1.67-5.26.42-.39.75-.51 1.37-.51.97-.01 1.42.49 1.42 1.46m1.4 1.31c0-1.73-1-3.17-2.88-3.17-2.57 0-4.38 2.35-4.38 4.85 0 1.73 1.01 3.17 2.88 3.17 2.59 0 4.38-2.35 4.38-4.85m-20.47 3.2c0-1.53 1.48-5.97 3.49-5.97.83 0 1.06.67 1.06 1.48 0 1.5-1.51 5.58-3.56 5.58-.65 0-.99-.48-.99-1.09m5.27-6.18-.4 1.36h-.03c0-.89-.45-1.54-1.36-1.54-2.29 0-4.98 3.09-4.98 5.65 0 1.78 1.04 2.37 1.96 2.37 1.4 0 2.37-.95 3.01-2.03l.03.03c-.12.37-.19.75-.19 1.04 0 .5.22.95.89.95 1.23 0 2.35-1.59 2.88-2.57l-.33-.23c-.33.67-1.17 1.78-1.59 1.78-.22 0-.27-.17-.27-.31 0-.16.02-.44.39-1.76l1.34-4.73zm-8.25 0h-1.42l-.55 1.9c-.9 3.17-2.65 5.18-3.74 5.18-.31 0-.56-.14-.56-.7 0-.16.03-.5.2-1.15l1.44-5.32c-.58.06-1.17.09-1.75.09h-1.12l-.09.39h1.42l-1.37 4.88c-.09.34-.22.95-.22 1.15 0 .97.56 1.4 1.36 1.4 1.4 0 2.6-1.31 3.45-2.64l.03.03c-.23.81-.33 1.33-.33 1.68 0 .61.39.92.97.92 1.4 0 2.37-1.62 2.98-2.7l-.3-.22c-.25.42-1.23 1.98-1.78 1.98-.22 0-.37-.17-.37-.39 0-.19.08-.58.14-.79zm-11.61.39-1.26 4.48c-.33 1.17-.47 1.65-.47 1.98 0 .52.41.98 1.01.98 1.4 0 2.43-1.65 3.15-2.68l-.33-.23c-.48.8-1.36 1.98-1.95 1.98-.22 0-.39-.16-.39-.34 0-.2.05-.34.09-.51l1.59-5.65h1.65l.11-.39h-1.64l.6-1.96h-1.5l-.55 1.96h-1.45l-.12.39h1.46zm-10.14 5.79c0-1.53 1.48-5.97 3.49-5.97.83 0 1.06.67 1.06 1.48 0 1.5-1.51 5.58-3.56 5.58-.64 0-.99-.48-.99-1.09m5.28-6.18-.41 1.36h-.03c0-.89-.45-1.54-1.36-1.54-2.29 0-4.98 3.09-4.98 5.65 0 1.78 1.04 2.37 1.97 2.37 1.4 0 2.37-.95 3.01-2.03l.03.03c-.12.37-.19.75-.19 1.04 0 .5.22.95.89.95 1.23 0 2.35-1.59 2.89-2.57l-.33-.23c-.33.67-1.17 1.78-1.59 1.78-.22 0-.27-.17-.27-.31 0-.16.02-.44.39-1.76l1.34-4.73zm-21.11 7.64h1.47l.84-3.15c.73-2.76 2.56-4.12 3.29-4.12.44 0 .69.3.69.83 0 .38-.11.98-.27 1.53l-1.33 4.91h1.5l.95-3.71c.44-1.72 2.09-3.56 3.29-3.56.44 0 .67.2.67.55 0 .22-.09.59-.19.9l-1.22 3.88c-.19.58-.22.89-.22 1.11 0 .56.45 1.01 1.06 1.01 1.61 0 2.43-1.64 2.92-2.95l-.39-.08c-.19.61-.98 2.28-1.75 2.28-.22 0-.34-.14-.34-.36 0-.17.06-.53.28-1.26l1.12-3.65c.09-.31.12-.5.12-.67 0-.89-.8-1.33-1.61-1.33-1.23 0-2.54 1.12-3.1 2h-.06c.09-.23.14-.52.14-.77 0-.89-.72-1.23-1.51-1.23-1.58 0-2.45 1.11-3.34 2.23h-.03l.53-2.14c-.58.06-1.17.09-1.75.09h-1.14l-.08.39h1.36zm-1.45-7.64h-1.42l-.54 1.9c-.9 3.17-2.65 5.18-3.74 5.18-.31 0-.56-.14-.56-.7 0-.16.03-.5.2-1.15l1.44-5.32c-.58.06-1.17.09-1.75.09h-1.12l-.09.39h1.42l-1.37 4.88c-.09.34-.22.95-.22 1.15 0 .97.56 1.4 1.36 1.4 1.4 0 2.6-1.31 3.45-2.64l.03.03c-.23.81-.33 1.33-.33 1.68 0 .61.39.92.97.92 1.4 0 2.37-1.62 2.98-2.7l-.3-.22c-.25.42-1.23 1.98-1.78 1.98-.22 0-.38-.17-.38-.39 0-.19.08-.58.14-.79zm-16.39 6.18c0-1.53 1.48-5.97 3.49-5.97.83 0 1.06.67 1.06 1.48 0 1.5-1.51 5.58-3.56 5.58-.65 0-.99-.48-.99-1.09m5.27-6.18-.41 1.36h-.03c0-.89-.45-1.54-1.36-1.54-2.29 0-4.98 3.09-4.98 5.65 0 1.78 1.04 2.37 1.97 2.37 1.4 0 2.37-.95 3.01-2.03l.03.03c-.12.37-.19.75-.19 1.04 0 .5.22.95.89.95 1.23 0 2.36-1.59 2.88-2.57l-.33-.23c-.33.67-1.17 1.78-1.59 1.78-.22 0-.26-.17-.26-.31 0-.16.01-.44.39-1.76l1.34-4.73zm-15.53-3.12h1.58l-2.99 10.37h-1.39l-.11.39h4.74l.11-.39h-1.59l1.5-5.29h1.36l1.51 5.29h-1.45l-.11.39h4.77l.11-.39h-1.4l-2.04-6.63 3.03-3.74h1.22l.11-.39h-3.03l-.09.39h1.23l-3.74 4.7h-1.33l1.37-4.7h1.5l.11-.39h-4.85zm46.67.3h3.74l.22-.84h-3.71z"/><path d="m292.7 82.41c0-1.53 1.48-5.97 3.49-5.97.83 0 1.06.67 1.06 1.48 0 1.5-1.51 5.58-3.55 5.58-.66 0-1-.48-1-1.09m5.27-6.18-.41 1.36h-.03c0-.89-.45-1.54-1.36-1.54-2.29 0-4.98 3.09-4.98 5.65 0 1.78 1.04 2.37 1.96 2.37 1.4 0 2.37-.95 3.01-2.03l.03.03c-.12.37-.19.75-.19 1.04 0 .5.22.95.89.95 1.23 0 2.35-1.59 2.88-2.57l-.33-.23c-.33.67-1.17 1.78-1.59 1.78-.22 0-.27-.17-.27-.31 0-.16.02-.44.39-1.76l1.34-4.73zm-16.13 7.65h1.47l.95-3.71c.44-1.72 2.09-3.56 3.29-3.56.44 0 .67.2.67.55 0 .22-.09.59-.19.91l-1.22 3.88c-.19.58-.22.89-.22 1.11 0 .56.45 1.01 1.06 1.01 1.61 0 2.43-1.64 2.92-2.95l-.39-.08c-.19.61-.98 2.28-1.75 2.28-.22 0-.34-.14-.34-.36 0-.17.06-.53.28-1.26l1.12-3.65c.09-.31.12-.5.12-.67 0-.89-.8-1.33-1.61-1.33-1.23 0-2.54 1.12-3.1 2h-.03l.59-1.9c-.58.06-1.17.09-1.75.09h-1.17l-.08.39h1.41zm-7.89-1.47c0-1.53 1.48-5.97 3.49-5.97.83 0 1.06.67 1.06 1.48 0 1.5-1.51 5.58-3.56 5.58-.65 0-.99-.48-.99-1.09m5.27-6.18-.4 1.36h-.03c0-.89-.45-1.54-1.36-1.54-2.29 0-4.98 3.09-4.98 5.65 0 1.78 1.04 2.37 1.96 2.37 1.4 0 2.37-.95 3.01-2.03l.03.03c-.12.37-.19.75-.19 1.04 0 .5.22.95.89.95 1.23 0 2.36-1.59 2.89-2.57l-.33-.23c-.33.67-1.17 1.78-1.59 1.78-.22 0-.26-.17-.26-.31 0-.16.01-.44.39-1.76l1.34-4.73zm-16.13 7.65h1.47l.95-3.71c.44-1.72 2.09-3.56 3.29-3.56.44 0 .67.2.67.55 0 .22-.09.59-.19.91l-1.21 3.88c-.19.58-.22.89-.22 1.11 0 .56.45 1.01 1.06 1.01 1.61 0 2.43-1.64 2.92-2.95l-.39-.08c-.19.61-.98 2.28-1.75 2.28-.22 0-.34-.14-.34-.36 0-.17.06-.53.28-1.26l1.12-3.65c.09-.31.12-.5.12-.67 0-.89-.79-1.33-1.61-1.33-1.23 0-2.54 1.12-3.1 2v.03l-.03-.03 1.85-5.41c-.58.06-1.17.09-1.75.09h-1.26l-.11.39h1.48zm-2.2-10.27c0 .48.41.89.89.89s.89-.41.89-.89-.2-.89-.68-.89-1.1.41-1.1.89m-.62 3.01-1.48 5.3c-.16.58-.25.94-.25 1.2 0 .51.41.94 1.03.94 1.29 0 2.26-1.53 2.96-2.5l-.31-.22c-.25.36-1.31 1.87-1.84 1.87-.22 0-.34-.12-.34-.31 0-.11.05-.33.14-.66l1.7-6.11c-.58.06-1.17.09-1.75.09h-1.17l-.08.39zm-11.31 7.26h1.47l.95-3.71c.44-1.72 2.09-3.56 3.29-3.56.44 0 .67.2.67.55 0 .22-.09.59-.19.91l-1.22 3.88c-.19.58-.22.89-.22 1.11 0 .56.45 1.01 1.06 1.01 1.61 0 2.43-1.64 2.92-2.95l-.39-.08c-.19.61-.98 2.28-1.75 2.28-.22 0-.34-.14-.34-.36 0-.17.06-.53.28-1.26l1.12-3.65c.09-.31.12-.5.12-.67 0-.89-.79-1.33-1.61-1.33-1.23 0-2.54 1.12-3.1 2h-.03l.59-1.9c-.58.06-1.17.09-1.75.09h-1.17l-.08.39h1.39zm-1.92-6.63c0 1.56-2.15 2.34-3.15 2.68.7-2.09 1.37-3.49 2.42-3.49.47 0 .73.35.73.81m.57 3.91c-.62 1.11-1.64 2.34-2.85 2.34-.84 0-1.25-.5-1.25-1.45 0-.56.09-1.09.23-1.64 1.22-.41 4.52-1.47 4.52-3.06 0-.94-.84-1.31-1.67-1.31-2.39 0-4.58 2.84-4.58 5.54 0 1.5.64 2.48 2.2 2.48 1.89 0 3.1-1.47 3.76-2.79zm-13.43-8.05h1.58l-3 10.37h-1.39l-.11.39h4.8l.11-.39h-1.65l1.23-4.3h1.48c4.12 0 4.99-2.76 4.99-4.02 0-2.08-1.45-2.43-2.85-2.43h-5.08zm4.06 0c1.37 0 2.12.19 2.12 1.81 0 .97-.45 3.87-3.23 3.87h-1.25l1.67-5.68zm-16.31 9.3c0-1.53 1.48-5.97 3.49-5.97.83 0 1.06.67 1.06 1.48 0 1.5-1.51 5.58-3.56 5.58-.65 0-.99-.48-.99-1.09m5.27-6.18-.41 1.36h-.03c0-.89-.45-1.54-1.36-1.54-2.29 0-4.97 3.09-4.97 5.65 0 1.78 1.04 2.37 1.96 2.37 1.4 0 2.37-.95 3.01-2.03l.03.03c-.12.37-.19.75-.19 1.04 0 .5.22.95.89.95 1.23 0 2.35-1.59 2.88-2.57l-.33-.23c-.33.67-1.17 1.78-1.59 1.78-.22 0-.26-.17-.26-.31 0-.16.01-.44.39-1.76l1.34-4.73zm-7.94 0h-1.42l-.55 1.9c-.91 3.17-2.65 5.18-3.74 5.18-.31 0-.56-.14-.56-.7 0-.16.03-.5.2-1.15l1.43-5.32c-.58.06-1.17.09-1.75.09h-1.12l-.09.39h1.42l-1.37 4.88c-.09.34-.22.95-.22 1.16 0 .97.56 1.4 1.36 1.4 1.4 0 2.6-1.31 3.45-2.64l.03.03c-.23.81-.33 1.33-.33 1.68 0 .61.39.92.97.92 1.4 0 2.37-1.62 2.98-2.7l-.29-.22c-.25.42-1.23 1.98-1.78 1.98-.22 0-.38-.17-.38-.39 0-.19.08-.58.14-.8zm-17.56 7.65h1.47l.95-3.71c.44-1.72 2.09-3.56 3.29-3.56.44 0 .67.2.67.55 0 .22-.09.59-.19.91l-1.22 3.88c-.19.58-.22.89-.22 1.11 0 .56.45 1.01 1.06 1.01 1.61 0 2.43-1.64 2.92-2.95l-.39-.08c-.19.61-.98 2.28-1.75 2.28-.22 0-.34-.14-.34-.36 0-.17.06-.53.28-1.26l1.12-3.65c.09-.31.12-.5.12-.67 0-.89-.8-1.33-1.61-1.33-1.23 0-2.54 1.12-3.1 2v.03l-.03-.03 1.64-5.41c-.58.06-1.17.09-1.75.09h-1.26l-.11.39h1.48zm-7.21-1.47c0-1.53 1.48-5.97 3.49-5.97.83 0 1.06.67 1.06 1.48 0 1.5-1.51 5.58-3.56 5.58-.65 0-.99-.48-.99-1.09m5.27-6.18-.4 1.36h-.03c0-.89-.45-1.54-1.36-1.54-2.29 0-4.98 3.09-4.98 5.65 0 1.78 1.05 2.37 1.96 2.37 1.4 0 2.37-.95 3.01-2.03l.03.03c-.12.37-.19.75-.19 1.04 0 .5.22.95.89.95 1.23 0 2.36-1.59 2.89-2.57l-.33-.23c-.33.67-1.17 1.78-1.59 1.78-.22 0-.26-.17-.26-.31 0-.16.01-.44.39-1.76l1.34-4.73zm-14.92-.36h.44c.4-1.11 1.14-2.76 3.54-2.76h.84l-3.01 10.37h-1.51l-.11.39h5.07l.11-.39h-1.76l3.01-10.37c1.67 0 2.93 0 2.93 2.03 0 .23-.06.67-.12.97h.41l.78-3.39h-9.62zm-5.74-2.26c0 .48.41.89.89.89s.89-.41.89-.89-.4-.89-.89-.89-.89.41-.89.89m-.63 3.01-1.48 5.3c-.16.58-.25.94-.25 1.2 0 .51.41.94 1.03.94 1.29 0 2.26-1.53 2.96-2.5l-.31-.22c-.25.36-1.31 1.87-1.84 1.87-.22 0-.34-.12-.34-.31 0-.11.05-.33.14-.66l1.7-6.11c-.58.06-1.17.09-1.75.09h-1.17l-.08.39zm-7.95-3.51-3.21 10.76h1.59l1.31-4.69h.55c.55 0 1.47 0 1.47.83 0 .87-.48 1.98-.48 2.92 0 .67.53 1.14 1.31 1.14 1.26 0 2.25-1.36 2.64-2.62-.02 0-.03-.02-.05-.02l-.3-.14c-.25.66-.94 2.12-1.78 2.12-.25 0-.42-.2-.42-.45 0-.69.39-1.47.39-2.34 0-.94-.8-1.51-1.72-1.67v-.03c.78-.12 1.75-2.23 2.42-2.23.12 0 .23.02.23.17 0 .11-.08.3-.08.44 0 .28.2.53.66.53.42 0 .66-.28.66-.8 0-.59-.55-.9-1.08-.9-1.76 0-1.81 2.67-3.84 2.67h-.47l1.9-6.16c-.64.06-1.26.09-1.9.09h-1.17l-.08.39h1.45zm-10.97 9.3c0-1.53 1.48-5.97 3.49-5.97.83 0 1.06.67 1.06 1.48 0 1.5-1.51 5.58-3.56 5.58-.64 0-.99-.48-.99-1.09m5.28-6.18-.41 1.36h-.03c0-.89-.45-1.54-1.36-1.54-2.29 0-4.98 3.09-4.98 5.65 0 1.78 1.04 2.37 1.96 2.37 1.4 0 2.37-.95 3.01-2.03l.03.03c-.12.37-.19.75-.19 1.04 0 .5.22.95.89.95 1.23 0 2.35-1.59 2.89-2.57l-.33-.23c-.33.67-1.17 1.78-1.59 1.78-.22 0-.27-.17-.27-.31 0-.16.02-.44.39-1.76l1.34-4.73zm-8.96-2.62c0 .48.41.89.89.89s.89-.41.89-.89-.41-.89-.89-.89-.89.41-.89.89m-.62 3.01-1.48 5.3c-.16.58-.25.94-.25 1.2 0 .51.41.94 1.03.94 1.29 0 2.26-1.53 2.96-2.5l-.31-.22c-.25.36-1.31 1.87-1.84 1.87-.22 0-.34-.12-.34-.31 0-.11.05-.33.14-.66l1.7-6.11c-.58.06-1.17.09-1.75.09h-1.17l-.08.39zm-5.04 0-1.26 4.48c-.33 1.17-.47 1.65-.47 1.98 0 .51.4.98 1.01.98 1.4 0 2.43-1.65 3.15-2.68l-.33-.23c-.48.79-1.36 1.98-1.95 1.98-.22 0-.39-.16-.39-.34 0-.2.05-.34.09-.51l1.59-5.65h1.65l.11-.39h-1.64l.56-1.96h-1.5l-.51 1.96h-1.45l-.12.39h1.46zm-4.13-3.01c0 .48.41.89.89.89s.89-.41.89-.89-.41-.89-.89-.89c-.49 0-.89.41-.89.89m-.62 3.01-1.48 5.3c-.16.58-.25.94-.25 1.2 0 .51.41.94 1.03.94 1.29 0 2.26-1.53 2.96-2.5l-.31-.22c-.25.36-1.31 1.87-1.84 1.87-.22 0-.34-.12-.34-.31 0-.11.05-.33.14-.66l1.7-6.11c-.58.06-1.17.09-1.75.09h-1.17l-.08.39zm-9.83 5.79c0-1.53 1.48-5.97 3.49-5.97.83 0 1.06.67 1.06 1.48 0 1.5-1.51 5.58-3.56 5.58-.65 0-.99-.48-.99-1.09m5.27-6.18-.41 1.36h-.03c0-.89-.45-1.54-1.36-1.54-2.29 0-4.98 3.09-4.98 5.65 0 1.78 1.04 2.37 1.96 2.37 1.4 0 2.37-.95 3.01-2.03l.03.03c-.12.37-.19.75-.19 1.04 0 .5.22.95.89.95 1.23 0 2.35-1.59 2.89-2.57l-.33-.23c-.33.67-1.17 1.78-1.59 1.78-.22 0-.27-.17-.27-.31 0-.16.02-.44.39-1.76l1.34-4.73zm-15.15-3.12h1.58l-3 10.37h-1.39l-.11.39h4.74l.11-.39h-1.59l1.5-5.29h1.36l1.51 5.29h-1.45l-.11.39h4.77l.11-.39h-1.4l-2.04-6.63 3.03-3.74h1.22l.11-.39h-3.02l-.09.39h1.23l-3.74 4.7h-1.33l1.37-4.7h1.5l.11-.39h-4.85zm-6.29 4.14c0 1.56-2.15 2.34-3.15 2.68.7-2.09 1.37-3.49 2.42-3.49.47 0 .73.35.73.81m.57 3.91c-.62 1.11-1.64 2.34-2.85 2.34-.84 0-1.25-.5-1.25-1.45 0-.56.09-1.09.23-1.64 1.22-.41 4.52-1.47 4.52-3.06 0-.94-.84-1.31-1.67-1.31-2.39 0-4.59 2.84-4.59 5.54 0 1.5.64 2.48 2.2 2.48 1.89 0 3.1-1.47 3.76-2.79zm-13.89-5.29h.44c.41-1.11 1.14-2.76 3.54-2.76h.84l-3.01 10.37h-1.51l-.11.39h5.07l.11-.39h-1.76l3.01-10.37c1.67 0 2.93 0 2.93 2.03 0 .23-.06.67-.12.97h.41l.78-3.39h-9.62z"/></g></svg>