<?xml version="1.0" encoding="UTF-8"?>
<svg id="Layer_2" data-name="Layer 2" xmlns="http://www.w3.org/2000/svg" viewBox="0 0 644.55 391.16">
  <g id="Layer_1-2" data-name="Layer 1">
    <g>
      <g>
        <g>
          <path d="M280.43,386.75c-.6-3.01.92-5.79-1.07-10.72-16.35,15.66-41.03,15.49-56.92-.87-18.55-19.1-17.97-51.01,1.47-69.24,16.12-15.13,39.42-14.48,55.96.55l.23-70.23,27.94.02.35,16.37v134.02s-27.96.1-27.96.1ZM281.36,342.08c0-12.1-9.82-21.91-21.92-21.91s-21.92,9.81-21.92,21.91,9.82,21.91,21.92,21.91,21.92-9.81,21.92-21.91Z"/>
          <g>
            <path d="M40.82,306.52c5.37-.36,10.28.03,15.03-1.94,8.11-3.37,13.04-11.06,11.96-19.51-.99-7.81-7.31-14.81-16.07-15.95l-21.63-.16.02,117.49L0,386.56v-142.07s57.8.1,57.8.1c20.91,1.7,37.33,17.66,39.24,37.64,1.97,20.53-10.68,39.21-32.28,45.06l41.52,59.33-35.52-.15-29.87-46.21-.07-33.72Z"/>
            <path d="M132.56,348.29c-.94,9.17,6.15,16.72,15.11,18.45s17.5-1.92,21.9-10.25l23.02,10.31c-8.07,14.03-21.79,21.01-37.08,22.71-26.51,2.95-49.87-15.47-52.72-42.25-1.59-15.01,4.04-29.39,14.26-39.26,11.17-10.8,26.08-14.79,41.56-12.36,25.86,4.07,38.89,26.19,36.37,52.65h-62.42ZM167.06,332.15c-.3-10.82-8.68-17.74-17.88-17.48-9.28.25-17.06,7.89-16.87,17.66l34.75-.18Z"/>
          </g>
        </g>
        <g>
          <path d="M428.51,309.29c24.25,10.44,30.6,33.03,20.08,55.19-8.88,15.36-24.78,22.15-42.26,22.15h-58.91s.01-141.14.01-141.14l54.89.33c8.57.05,16.35,1.99,23.6,6.05,19.07,14.09,20.15,41.19,2.58,57.42ZM386.75,325.34l.04-25.31,10.64-.17c8.59-.14,14.56-7.81,14.13-15.9s-6.93-14.43-15.5-14.37l-18.59.13v92.35s26.52.03,26.52.03c10.96.01,18.39-7.96,18.46-18.3s-7.4-18.35-18.17-18.39l-17.54-.06Z"/>
          <g>
            <path d="M552.16,300.05l-.26,58.28c-.05,10.2-6.85,18.93-15.25,24.4-17.21,11.18-39.83,11.2-57.05.37-10.01-6.3-16.1-16.05-16.16-27.79l-.07-55.38,28.38-.03-.12,51.43c-.02,8.63,7.22,14.57,15.15,15.12s17.09-4.58,17.16-13.41l.44-52.97h27.79Z"/>
            <g>
              <rect x="555.62" y="297.86" width="149.22" height="28.47" transform="translate(317.42 941.97) rotate(-89.93)"/>
              <rect x="568.15" y="237.51" width="27.96" height="149.2"/>
            </g>
          </g>
        </g>
      </g>
      <g>
        <g>
          <path d="M592.47,177.4l-6.64,2.08-2.49-9.91c-.55-2.18.6-4.16,2.42-4.7,4.91-1.46,3.89,6.05,6.71,12.53Z"/>
          <path d="M446.12,160.25c-2.71.81-5.98.58-7.99-1.48-1.4-1.44-.56-5.95,1.34-6.56,2.95-.95,5.79-.34,8.73-.46-.08,3-.73,5.3-2.09,8.5Z"/>
        </g>
        <g>
          <path d="M414.89,163.32c-19.72,28.76-52.26,45.93-86.93,45.77-34.71-.16-67.62-17.35-87.45-47.56-2.37,4.43-5.92,3.96-9.93,4.85-12.7,2.82-26.69,14.71-32.84,2.19-1.62-3.29-3.74-5.51-8.22-4.25-2.3-3.29-4.6-6.36-6.1-10.92,4.15-1.56,10.13-2.97,13.99-.41l8.62,10.71c4.14,2.61,13.5-.11,15.17-5.15,2-6.03-4.19-11-8.62-13.66-12.7-7.61-10.57-13.67-12.52-14.64-3.87-1.92-.77,5.07-2.13,7.12-.66.99-2.61,1.85-4.45,1.7-10.12-.84-19.61-.79-29.82.56-3.22.43-7.64-1.03-8.62-4.09-1.62-5.05-.37-10.16.44-15.19.4-1.26.18-2.16-.39-2.61-.79-.62-3.03-.58-3.36,1.17l-3.18,16.92c-1.36,7.25-9.01,11.42-15.88,13.5-10.77,3.27-32.78-1.08-36.61,17.28,8.69-7.84,16.97-11.64,27.75-11.06,14.2.76,21.82-3.12,27.88-15.32,1.6-.03,2.1.37,2.41.77.36.48.82,1.88.42,2.62l-5.59,10.3c-1.34,2.46-4.81,2.67-6.69,4.08-12.18,9.07-22.04-1.06-29.64,4.57-4.23,3.13-8.8,8.3-14.69,7.53-4.04-.52-7.36-.97-9.33,3.55-3.15,7.24-8.92,5.96-16.31,4.99.62-2.96.84-8.77,3.35-9.81,4.17-1.73,5.81-4.88,8.96-7.27,5.25-3.98,10.17-6.72,11.18-14.11.89-6.48,13.8-.7,20.16-11.36-3.94-7.57-4.87-14.38-4.37-23.24-6.08.71-10.49,2.36-15.76,1.64-7.17-.99-13.82-5.25-16.47-10.93-10.57-22.59,19.39-32.05,17.5-38.19-1.26-4.08-13.32,1.87-20.42-10.09-2.42-4.08-2.53-8.71.02-12.39,9.93,10.01,26.74,5.71,29.72,15.94,3.68,12.62-11.63,16.6-18.97,27.37-3.07,4.51-3.21,10.85-.41,15.01,8.09,11.98,24.95,3.34,36.87-6.46,6.49-5.33,13.66-8.08,22.04-8.65,15.02-1.02,18.5-15.54,32.27-15.42,4.16.04,7.71-.73,10.53-4.02,8.98-10.49,21.27-8.77,34.11-17.78,5.69-3.99,12-4.76,19.1-3.12C261.74,16.48,294.14-.26,328.91,0c34.24.26,66.71,17.25,86.41,46.46,8.26-6.33,19.55-1.75,26.27,6.13,1.92,2.25,4.2,3.57,7.18,4.09,9.99,1.65,18.47,6.16,25.89,13.01,8.17.67,15.08,3.42,21.11,8.63,3.39,2.31,6.94,4.46,11.11,5.08,22.05,3.28,31.91,17.66,46.28,21.56,6.99,1.9,15.4-.93,16.71-8.45,1.89-10.87-12.95-18.84-19.02-28.24-2.82-4.36-1.98-9.49,2-12.7,10.11-8.14,18.96-5.35,24.28-11.67,1.65,5.17,1.25,10.39-1.59,14.69-4.92,7.45-15.37,5.36-16.48,7.75-1.63,3.53,8.85,7.8,15.6,19.85,5.12,9.13,2.79,19.34-6.34,24.85-6.57,3.96-13.86,3.48-22.52,1.49,2.42,8.74,1.9,15.65-.76,23.4-2.35,6.86,11.42,6.01,13.07,7.21,1.06.77,2.51,3.22,2.62,4.67.48,6.57,3.48,9.4,8.01,13.35,3.11,2.71,4.89,7.51,9.94,7.74,1.24,3.55,2.25,5.96,2.43,9.48-6.44,1.69-12.26.46-15.35-5.42s-8.92,3.3-16.46-3.34c-8.03-7.06-17.87-8.92-28.04-6.71-4.33-.58-9.8-4.19-12.92-7.22-3.92-3.8-6.63-17.81-2.96-15.65,2.79,9.9,12.67,18.62,23.82,16.75,10.89-1.82,18.92,1.49,28.69,8.67-4.36-9.72-14.92-13.97-24.67-13.11-6.6.59-12.86-.24-17.59-5.19-3.39-3.55-6.29-8.24-7.38-13.15l-3.45-15.6c-.22-.99-.73-1.54-1.09-1.89-.87-.85-2.9,0-2.7,1.1l2.06,11.09c.57,3.04-.62,5.92-2.39,7.91-1.91,2.14-5.02,3-8.42,3.05l-21.15.36c-5.89.1-11.26,1.45-16.96.91.99-2.28,1.83-4.11,1.28-6.36-.24-.99-1.26-1-1.62-.89-2.95.95-1.08,6.87-13.03,12.72-3.02,1.48-7.72,5.85-8.57,9.22-1.37,5.45,9.71,9.55,14.4,8.1,3.69-1.15,3.91-8.62,7.16-9.46,4.11-1.07,8.36-1.13,12.67.27-1.52,3.05-3.18,7.61-6.06,8.77-3.06,1.23-4.92,1.3-5.61,5.07-.82,4.48-5.69,7.01-10.13,5.71l-16.22-4.74-5.92-3.86c-3.05-.18-5.13.2-7.62-2.2ZM242.89,157.04c18.45,29.8,51.21,47.89,86.01,47.69,34.27-.2,66.61-18.17,84.71-47.77-.48-2.37-1.79-5.59-.55-7.71l8.07-13.86c.89-1.52,4.94.73,5.59,1.79l-7.13,10.87c-1.95,2.98-.79,7.33,1.44,9.79l1.6-6.96,7.41-11.57c1.73-2.71.73-5.91-2.06-7.28-14.6-7.16-7.1-26.64-12.11-27.15-4.68-.47-3,16.25,2.98,27.28-9.25,2.07-17.42-.5-24.72-7.68-1.13,5.64,3.54,6.96,5.33,10.17l8.94,16.04-5.63,1.85c2.32,4.16.25,10.22-4.38,10.32-3.87.08-7.98-2.42-11.53-3.7-4.52-1.63-8.34-.83-12.77-.33-3.04.34-5.67-3.5-7.94-4.75-3.9-2.14-9.59,12.28-23.04,10.3,6.38-5.17,9.63-9.87,12.52-16.54.8-1.83,3.78-3.4,2.41-6.64-9.05,7.43-11.05,20.77-23.41,16.45,9.46-6.04,15.23-13.91,18.03-23.89l8.12-28.97c2.69-13.38,10.06-23.78,20.76-31.91l30.57-23.22c-18.42-28-49.49-44.77-82.23-45.29-33.08-.52-64.27,15.01-83.9,42.94,17.6,13.52,31.66,24.5,44.17,43.84,3.2,4.88,3.87,10.16,4.8,15.88,1.56,9.63,3.6,19.47,8.11,28.24,1.88,3.64,5.81,6.26,7.61,10.25,2.16,4.79,6.1,7.65,11.23,10.32-6.62,2.62-12.11-1.54-15.92-6.77-2.76-3.79-3.95-9.11-10.01-9.76,3.12,5.09,4.93,9.84,7.38,14.54s7.84,6.03,12.34,9.52c-13.93,2.72-20.38-8.81-23.68-8.96-2.66-.12-6.5,6.2-12.2,5.5-13.32-1.63-20.56,6.03-26.15,3.53-4.65-2.07-4.2-9.62-.41-12.69-.08-1.46-2.66-2.26-4.14-1.86.48-4.56,4.74-6.34,6.79-9.75,1.67-2.78,1.86-5.76,4.68-8.99-9.86-1.25-17.6,5.13-22.37,1.66,8.24-12.07,4.54-24.71,1.29-17.04-.77,5.02-1.43,10.23-4.8,14.03-2.55,2.88-9.11,1.72-10.03,4.48-.25.74-.17,1.83.35,2.8l8.07,14.98c1.78,3.3-1.05,7.04-1.15,10.87,4.31-1.91,7.54-7.4,5.76-11.08l-7.55-15.65c1.98-1.36,6.11-1.12,7.25,1.5,4.14,9.51,8.99,13.06,5.51,20.32Z"/>
          <path d="M215.83,157.85c.6,2.18-6.59,4.11-7.89,1.82-1.76-3.12-2.37-5.65-5.95-8.37,4.37-1.35,7.65-1.08,11.8-.88l2.03,7.43Z"/>
          <path d="M67.85,178.33c-2.67.12-4.65-.49-6.79-1.71,3.55-5.42,1.9-12.85,6.2-12.36,1.25.14,3.66,1.87,3.24,3.54l-2.65,10.53Z"/>
        </g>
      </g>
    </g>
  </g>
</svg>