<svg version="1.1" id="Layer_1" xmlns:x="ns_extend;" xmlns:i="ns_ai;" xmlns:graph="ns_graphs;" xmlns="http://www.w3.org/2000/svg" xmlns:xlink="http://www.w3.org/1999/xlink" x="0px" y="0px" viewBox="0 0 150 41.4" style="enable-background:new 0 0 150 41.4;" xml:space="preserve">
 <style type="text/css">
  .st0{fill:#EF496F;}
 </style>
 <metadata>
  <sfw xmlns="ns_sfw;">
   <slices>
   </slices>
   <sliceSourceBounds bottomLeftOrigin="true" height="41.4" width="150" x="124.6" y="-220.9">
   </sliceSourceBounds>
  </sfw>
 </metadata>
 <g>
  <path class="st0" d="M131.2,13.9l-0.4,0.5c-1.2,1.5-5,6.6-5.4,12.2c-0.2,3.1,0.6,5.8,2.3,7.7c1.8,1.9,4.6,3,8.1,3
		c3.5,0,6.1-0.9,7.8-2.8c1.7-1.9,2.4-4.7,2.1-8.1c-0.5-5.2-3.6-10-4.9-11.9l-0.3-0.5h5.1l0.1,0.1c1.7,2.8,3.8,7.1,4.3,11.7
		c0.5,4.7-0.6,8.6-3.1,11.4c-2.5,2.8-6.3,4.2-11,4.2c-4.7,0-8.5-1.5-11.2-4.3c-2.5-2.7-3.8-6.6-3.5-10.9c0.4-4.9,2.4-8.9,4.4-11.8
		l0.3-0.5H131.2z M7.4,15.5c3,0,5.5,1.7,6.7,4.5l0.1,0.2l-3.4,1.7l-0.1-0.2c-0.1-0.2-0.2-0.4-0.3-0.6c-0.2-0.5-0.6-1-1-1.4
		c-0.8-0.7-2.5-1.2-3.7-0.2c-0.4,0.3-0.8,0.9-0.8,1.7c0,1,0.7,1.7,2.4,2.3l2.5,0.9c3.3,1.2,4.8,3.1,4.8,5.7c0,3.6-3,6.2-7,6.2
		c-3.5,0-6.3-1.9-7.4-5.1L0,31.1l3.4-1.6c0.1,0.4,0.7,1.7,1.8,2.7c0.6,0.5,2.6,1.5,4.2,0.3c0.4-0.3,0.7-0.7,0.8-1.1
		c0.2-0.3,0.3-0.7,0.3-1.1c0-1.2-0.7-1.9-2.4-2.5L5.8,27c-3.2-1.1-4.9-3-4.9-5.7C0.9,17.9,3.6,15.5,7.4,15.5z M111.1,21.1
		c2.5,0,4.5,1.3,5.5,3.3l-2.9,1.5c-0.6-1.2-1.5-1.9-2.6-1.9c-1,0-1.8,0.5-1.8,1.3c0,0.7,0.6,1.2,1.7,1.6l1.8,0.6
		c2.8,0.9,4,2.3,4,4.2c0,3-2.6,4.7-5.5,4.7c-2.8,0-5-1.4-5.9-3.7l2.9-1.4c0.5,1.3,1.7,2.2,3,2.2c1.1,0,2-0.5,2-1.5
		c0-0.8-0.6-1.2-1.7-1.6l-1.8-0.6c-2.6-0.8-3.9-2.2-3.9-4.2C105.9,22.8,108.3,21.1,111.1,21.1z M77.5,21.1c2.5,0,4.5,1.3,5.5,3.3
		l-2.9,1.5c-0.6-1.2-1.5-1.9-2.6-1.9c-1,0-1.8,0.5-1.8,1.3c0,0.7,0.6,1.2,1.7,1.6l1.8,0.6c2.8,0.9,4,2.3,4,4.2c0,3-2.6,4.7-5.5,4.7
		c-2.8,0-5-1.4-5.9-3.7l2.9-1.4c0.5,1.3,1.7,2.2,3,2.2c1.1,0,2-0.5,2-1.5c0-0.8-0.6-1.2-1.7-1.6l-1.8-0.6c-2.6-0.8-3.9-2.2-3.9-4.2
		C72.3,22.8,74.6,21.1,77.5,21.1z M97.6,21.2c4.7,0,7,3.4,7,7.3c0,0.4,0,0.8-0.1,1.2l-10.1,0c0.2,1.7,1.4,3.4,3.4,3.4
		c1.6,0,2.5-0.7,3-2.2l3.4,0.5c-0.5,2.8-3,4.9-6.6,4.9c-4,0-7.1-2.8-7.1-7.5C90.6,24,93.6,21.2,97.6,21.2z M63.9,21.2
		c4.7,0,7,3.4,7,7.3c0,0.4,0,0.8-0.1,1.2l-10.1,0c0.2,1.7,1.4,3.4,3.4,3.4c1.6,0,2.5-0.7,3-2.2l3.4,0.5c-0.5,2.8-3,4.9-6.6,4.9
		c-4,0-7.1-2.8-7.1-7.5C57,24,59.9,21.2,63.9,21.2z M37.5,21.2c1.8,0,3.3,0.7,4.2,1.7l0.1-1.4h3.9C45.2,24,45.1,33.4,45.6,36h-3.8
		l-0.1-1.6c-0.9,1.1-2.4,1.9-4.3,1.9c-3,0-6.9-2.4-6.9-7.5C30.6,23.6,34.3,21.2,37.5,21.2z M15.8,15.6c0.9,0,2.1,0.1,4.3,0.1
		c0,0-0.3,2.6-0.3,7.1c3-2.5,6.3-1.6,7.5-0.5c1.1,1,1.8,2.5,1.8,4.7c0,2.9-0.2,5.8,0.3,9l-4.2,0c0.2-2.2,0.2-4.1,0.2-5.6
		c0-1.8,0.2-4.2-0.9-5.2c-0.9-0.8-2.5-0.8-3.4,0.1c-0.9,0.9-1.3,2.8-1.3,6.4c0,1.3,0,3.1,0.2,4.4c0,0-3.8,0-4.3,0
		C16.5,31.2,16.4,21.2,15.8,15.6z M51.4,21.5c-0.1,1.3-0.2,2.6-0.2,2.6c1.2-1.6,2.8-2.6,5.3-2.6l-0.1,3.8c-2.6-0.4-4.8,1.1-4.9,5.4
		c0,2.2,0.2,5.2,0.2,5.2c-1.5,0-4.1,0-4.1,0c0.5-5.6,0.1-13.6-0.2-14.4C48.7,21.5,51.4,21.5,51.4,21.5z M89.1,21.5
		c-0.3,1.7-0.4,4.7-0.4,7.3c0,2.8,0.1,5.2,0.3,7.1l-1.1,0c-1.1,0-2.1,0-2.9,0c0.1-1.9,0.2-4.4,0.2-7.2c0-2.7-0.1-5.8-0.3-7.3l0.1,0
		C85.4,21.5,87.3,21.5,89.1,21.5z M38.1,24.5c-2.1,0-3.7,1.8-3.7,4.3c0,2.5,1.6,4.3,3.7,4.3c2,0,3.5-1.9,3.5-4.3
		C41.6,26.4,40.1,24.5,38.1,24.5z M133,28.1c1.2,0,2.1,1.7,2.1,3.8H131C131,29.8,131.9,28.1,133,28.1z M138.1,28.1
		c1.2,0,2.1,1.7,2.1,3.8H136C136,29.8,136.9,28.1,138.1,28.1z M64.3,24.2c-2.3,0-3.2,1.8-3.4,3.1l6.4,0
		C67.2,25.8,66.1,24.2,64.3,24.2z M97.9,24.2c-2.3,0-3.2,1.8-3.4,3.1l6.4,0C100.9,25.8,99.7,24.2,97.9,24.2z M140.6,23.3
		c1.2,0,2.1,1.7,2.1,3.8h-4.2C138.5,25,139.4,23.3,140.6,23.3z M135.5,23.3c1.2,0,2.1,1.7,2.1,3.8h-4.2
		C133.5,25,134.4,23.3,135.5,23.3z M130.5,23.3c1.2,0,2.1,1.7,2.1,3.8h-4.2C128.5,25,129.4,23.3,130.5,23.3z M138.1,18.5
		c1.2,0,2.1,1.7,2.1,3.8H136C136,20.2,136.9,18.5,138.1,18.5z M133,18.5c1.2,0,2.1,1.7,2.1,3.8H131C131,20.2,131.9,18.5,133,18.5z
		 M87.1,14.5c1.3,0,2.3,1,2.3,2.3c0,1.5-1,2.4-2.4,2.4c-1.4,0-2.5-0.9-2.5-2.4C84.6,15.4,85.8,14.5,87.1,14.5z M140,0
		c3.9,0,4.5,4,4.5,4s-3.3-0.7-5.7,0.7c-1.5,0.9-2.4,3-2.9,4.4c0.6-1.4,2-3.5,5.2-3.5c4.6,0,5.5,4.5,5.6,4.9l0,0c0,0-4.1-1.4-7.1,0
		c-3,1.3-4,5.1-4,5.2c-0.1-0.2-1.1-3.9-4-5.2c-3-1.3-7.1,0-7.1,0s0.8-5,5.6-4.9c3.2,0,4.6,2.2,5.2,3.5c-0.5-1.4-1.4-3.5-2.9-4.4
		c-2.4-1.4-5.7-0.7-5.7-0.7s0.6-4,4.5-4c3.7,0,4.5,4.9,4.5,4.9C135.6,4.9,136.3,0,140,0z">
  </path>
 </g>
</svg>