<?xml version="1.0" encoding="UTF-8"?>
<svg id="Layer_2" data-name="Layer 2" xmlns="http://www.w3.org/2000/svg" viewBox="0 0 2158.54 619.81">
  <defs>
    <style>
      .cls-1 {
        fill: #221f20;
      }

      .cls-2 {
        fill: #0d0e0e;
      }
    </style>
  </defs>
  <g id="Layer_1-2" data-name="Layer 1">
    <g>
      <g id="_5m8T39.tif" data-name="5m8T39.tif">
        <g>
          <path class="cls-2" d="M289.47,355.66c-29.97,29.13-65.39,50.95-103.99,67.06-38.78-16.19-74.4-38.2-104.48-67.61C41.86,316.84,14.37,267.75,3.52,214.03c-1.23-8.21-3.16-16.31-3.16-24.67L.26.05l369.84-.02c.53-.12.75.11.66.63l-.1,187.31c0,8.85-1.65,17.59-3.31,26.23-4.2,21.89-11.54,42.99-21.21,63.07-14.12,29.3-33.36,55.72-56.66,78.38ZM215.03,120.17c8.29-4.79,16.85-7.52,26.25-8.11,11.77-.73,23.45,2.09,33.59,8.08,18.06,10.52,40.54,10.68,58.75.41,9.87-5.91,21.13-8.79,32.63-8.35V4.49s-361.57,0-361.57,0l.02,107.5c11.78-.4,23.2,2.54,33.22,8.63,4.3,2.39,8.64,4.16,13.38,5.39.45.54.96.25,1.54.39,14.78,3.46,30.21,1.14,43.3-6.44,19.15-11.1,42.15-10.38,61.05.76,17.65,10.4,40.15,9.7,57.84-.53ZM113.83,170.68l14.43,10.89-5.41-17.51,15.61-11.29-18.99-.05-5.72-17.66-5.68,17.67-19.04.03,15.64,11.29-5.37,17.46,14.54-10.83ZM257.25,170.48l14.48,10.86-5.44-17.49,15.69-11.31h-19.05s-5.71-17.68-5.71-17.68l-5.72,17.68-18.96.02,15.6,11.34-5.39,17.41,14.5-10.84ZM129.33,285.62c18.22-9.28,38.38-6.61,54.19,6.24v-82.44c-15.89-10.91-33.37-14.47-51.43-7.01-13.45,5.87-24.6,7.43-39.29,3.91v81.15c13.42,7.1,23.67,4.84,36.53-1.85ZM273.75,289.49l4.42-2.03-.03-81.15c-14.48,3.51-25.39,1.94-38.46-3.55-18.34-8.01-36.18-4.27-52.26,6.68l.03,82.44c16.13-13.11,36.26-15.51,54.76-5.95,9.9,5.12,21.02,8.39,31.54,3.57ZM183.48,297.15c-14.71-13.88-34.96-17.13-52.86-7.76-4.24,2.22-8.4,3.96-13.01,5.2-10.53,2.85-19.34.49-28.79-4.75l-.02-81.14-3.89,1.96v81.36c14.05,8.56,29.46,10.53,44.2,2.21,18.28-10.31,41.17-8.36,54.39,8.8l-.02-5.89ZM187.5,303.01c13.28-17.07,35.36-18.96,53.89-9.07,14.8,8.68,30.45,6.75,44.74-1.93v-81.33s-3.99-1.99-3.99-1.99v81.14c-2.88,1.67-5.8,2.95-8.94,4.08-11.81,4.27-22.77.69-33.56-4.84-17.67-9.06-37.96-5.48-52.19,8.13l.04,5.82ZM305.59,296.96c2.83.22,5.3-1.85,4.95-4.69-.24-1.97-1.98-3.39-3.64-3.63-2.07-.31-3.86.58-4.88,2.45l-7.43.03v-9.17s7.45.04,7.45.04c1.23,2.22,3.79,2.77,6.02,1.84,1.29-.54,2.25-1.72,2.46-2.89.24-1.38-.19-2.68-1.23-3.63-2.22-2.04-5.65-1.52-7.33,1.04l-7.34.05v-9s7.42,0,7.42,0c1.06,2.1,3.35,2.74,5.54,2.09,1.49-.45,2.64-1.66,2.93-3,.31-1.47-.24-2.95-1.43-3.9-2.31-1.85-5.5-1.16-7.15,1.25h-7.32s.01-8.95.01-8.95l7.34.17c1.24,1.25,2.64,2.38,4.6,2.14,1.55-.19,2.87-1.09,3.43-2.31.65-1.41.55-2.95-.34-4.17-.96-1.32-2.5-1.7-3.98-1.71s-2.68,1.13-3.73,2.2l-7.34.17.02-9.04,7.34.03c1.06,1.66,2.73,2.52,4.63,2.28,1.57-.2,3.15-1.29,3.65-3.07.63-2.22-.74-4.29-2.81-5.03s-4.24.08-5.35,2.19l-7.48.04v-8.93s7.39.03,7.39.03c1.09,1.72,2.9,2.3,4.79,2,1.64-.26,3.28-1.51,3.57-3.43.32-2.17-1.19-3.96-3.02-4.5-2.04-.6-4.09.17-5.3,2.05l-7.42.05v-8.91s7.46.02,7.46.02c1.04,1.93,2.95,2.6,5.05,2.13,1.61-.36,3.24-1.77,3.29-3.77.05-2.14-1.51-3.76-3.41-4.17s-3.83.34-5,2.21c-1.89-.14-4.11.65-5.82-.14l-6.12-2.82v80.37c-.01.61-.63,1.6-1.02,1.85-4.87,3.17-10,5.45-15.59,7.02-12.14,3.43-24.6,1.45-35.19-5.2-6.07-2.73-12.14-4.6-18.79-4.68-12.16-.51-23.23,5.19-30.06,15.17-.1.15-.25.29-.21.38.06.15.31.05.46.05l5.56-.03c1.18,0,2.04.78,2.11,1.92.05.71-.57,2-1.65,2.01l-19.77.06c-1.21,0-2.1-.82-2.19-1.84s.71-2.12,1.9-2.12l6.33-.03c-12.43-17.95-33.57-19.54-51.9-9.36-15.72,8.73-33.2,6.1-48.03-3.32-.51-.33-1.05-1.38-1.05-2.14v-80.13s-6.25,2.89-6.25,2.89l-5.44.12c-1.67-2.55-5.02-3.14-7.29-1.19-1.04.89-1.48,2.16-1.33,3.51.11,1.01.76,2.13,1.83,2.79,2.31,1.43,5.26.78,6.75-1.53h7.17s0,8.9,0,8.9l-7.15-.02c-1.6-2.3-4.64-3.03-6.88-1.43-1.2.86-1.79,2.09-1.75,3.45.04,1.19.65,2.37,1.8,3.1,2.28,1.46,5.19.88,6.89-1.28l7.09-.03v8.93s-7.45,0-7.45,0c-1.17-2.21-3.48-3-5.54-2.17s-3.32,2.99-2.57,5.23c.6,1.77,2.26,2.64,3.85,2.84,1.87.24,3.21-1.05,4.45-2.19l7.25-.15v9.01s-7.35-.04-7.35-.04c-1.57-2.45-4.7-3.08-6.93-1.3-1.03.82-1.54,1.92-1.51,3.13s.55,2.26,1.57,3.08c2.16,1.73,5.29,1.1,6.81-1.28l7.4-.03v8.92s-7.4-.04-7.4-.04c-1.48-2.33-4.47-2.98-6.64-1.4-1.37,1-2,2.5-1.64,4.19.26,1.25,1.36,2.42,2.81,2.9,2.15.71,4.42,0,5.45-2.08h7.42s0,9,0,9l-7.34-.03c-1.5-2.22-4.21-3.01-6.53-1.63-1.63.96-2.25,2.88-1.73,4.74.42,1.48,1.95,2.62,3.74,2.77s3.48-.6,4.43-2.28h7.42s0,9.16,0,9.16h-7.41c-1.14-2.11-3.3-3.01-5.5-2.3-1.9.62-3.44,2.5-3.01,4.71.38,1.95,2.06,3.13,3.69,3.37,1.98.29,3.69-.54,4.85-2.19h6.27c12.21,10.87,26.31,13.76,42.37,12.02,5.57-.61,10.36-2.62,14.99-5.64,12.79-8.37,28.64-7.33,40.64,2.02l-3.38,2.13c-1.91,1.55-2.82,3.98-1.96,6.34.7,1.91,2.6,3.67,5.02,3.67h25.22c2.69,0,4.74-2.24,5.14-4.51.46-2.61-.85-4.9-3.14-6.12l-2.63-1.41,2.98-2.05c11.27-7.73,26.02-7.71,37.56-.23,4.73,3.07,9.61,5.24,15.34,5.82,16.23,1.67,29.98-1.12,42.36-12.06,2.07.25,4.32-.49,6.11.28,1.25.54,1.97,1.88,3.72,2.01ZM185.52,382.42l21.87,16.55-8.28-26.51,22.99-16.64-28.07-.09-8.54-26.62-8.55,26.63-28.05.09,22.96,16.63-8.23,26.47,21.9-16.52Z"/>
          <g>
            <g>
              <path class="cls-2" d="M54.38,112.73c-.93-2.17-.07-4.3.9-6.15l2-2.97-8.04.18c-2.4.05-4.52.73-6.81,1.65,1.96-4.77,7.03-5.9,12.03-6.23-1.91-1.81-4.34-2.27-7.05-2.95,3.45-1.98,7.28-1.22,10.49.7,1.69-.94,3.69-.81,5.27-1.58,1.84-.89,3.24-2.64,4.78-3.97,1.45-1.26,3.1-2.31,4.34-3.57.99-1-.2-2.74-.66-3.6-1.82-3.42-2.23-7.04-2.14-10.96-5.76-.97-10.72-4.95-14.42-9.46-6.76-.82-12.79-5.89-15.98-12.07-9.94,7.36-17.96,18.46-24.05,29.18-1.32,2.32-3.29-5.03-2.36-8.18,1.21-4.09,3.42-7.58,5.53-11.24,3.28-5.68,6.99-10.82,10.94-16.07-.84-6,.12-11.04,4.47-15.4,7.14-6.31,16.94-7.72,23.66-.42,4.19-4.95,9.83-7.79,16.2-8.49,7.02-.78,14.04.03,20.67,2.48,17.37,6.42,28.09,24.67,22.83,42.69-2.3,7.87-8.42,13.78-15.96,15.99.44,3.54,1.48,6.75,3.31,9.7,1.16,1.86-1.3,2.44-.89,5.63.2,1.53-.93,2.72-1.2,4.09-.61,3.18,1.08,7.6.44,8.12-.98.79-3.64-3.73-4.25-6.85-3.77,1.35-6.67,5.43-8.6,8.88-.08.15-.52.36-.66.33-.2-.04-.41-.47-.44-.79-.3-3.81,1.41-7.17,4.49-9.67-1.63-.6-3.12-.34-4.48.26l-3.37,1.49c1.17-3.55,5.44-5.02,9.19-5.58.55-1.5,2.03-3,2-4.68-.07-3.33-1.77-6.3-3.14-9.03-3.2.46-5.94,1.28-8.48,2.96-.83.55-1.33,1.1-1.15,2.22.22,1.45-.56,2.75-1.95,3.25l-7.48,2.69c-2.91,1.05-5.31,2.79-7.15,5.27-2.44,3.31-5.34,2.99-7.34,5.64-2.36,1.6-3.82,3.75-5.49,6.52ZM73,69.77l.49,6.4c.18,2.33.49,4.59,1.74,6.79,3.38-2.78,7.16-4.98,11.22-6.58.92-2.75,1.76-5.25,3.2-7.62,10.73-2.34,17.21-12.66,13.77-23.01-2.62-7.88-9.55-14.57-18.37-13.73,1.38-1.65,3.27-2.03,5.24-2.44-4.53-2.04-9.23-1.79-13.73.31.89-1.89,2.43-2.76,4.02-4.15-4.31-.14-8.3,1.24-11.94,3.97.41-1.93,1.85-2.84,3.04-4.3-6.25,0-11.76,5.6-15.54,11.09-.65-1.87-1.42-3.68-2.87-5.13-5.18-5.19-14.73-2.37-19.15,4.35-2.09,3.18-2.17,6.9-.63,10.28-1.23,2.15-2.72,3.77-4.19,5.67-4.46,5.77-8.9,11.52-11.74,18.46,6.65-8.75,13.09-17.73,22.37-23.54,3.82,7.04,8.45,13.16,16.67,13.91,4.69,5.33,9.06,9.55,16.4,9.26Z"/>
              <path class="cls-2" d="M37.71,39.38c1.51-.26,2.67.75,2.83,1.89.21,1.48-.58,2.62-1.84,2.85-1.4.25-2.62-.52-2.87-1.78-.27-1.33.4-2.7,1.89-2.96Z"/>
            </g>
            <g>
              <g>
                <path class="cls-2" d="M300.27,103.45c-3.07,1.26-7.51,5.68-9.21,9.32-1.51-2.74.77-6.54,2.91-9.14l-8.23.17c-2.3.05-4.32.68-6.67,1.64,1.9-4.79,7.12-5.94,12.05-6.23-1.96-1.81-4.41-2.29-7.12-2.93,3.42-2.02,7.36-1.27,10.51.7l5.21-1.58c1.72-.52,2.9-2.44,4.31-3.58l4.9-3.96c.82-1-.14-2.67-.63-3.55-1.89-3.4-2.26-7.09-2.24-11.03-5.62-.99-10.77-4.94-14.33-9.43-6.9-.84-12.83-5.86-16.03-12.13-10.13,7.5-18.07,18.48-24.08,29.27-.16.28-.44.45-.62.44-.98-.02-2.51-5.93-1.72-8.61,1.27-4.33,3.66-8.06,5.92-11.94,3.21-5.51,6.85-10.48,10.62-15.56-.82-4.45-.23-8.78,2.12-12.48,2.48-3.76,6.21-6.11,10.48-7.44,5.62-1.75,11.45-.26,15.47,4.22,4.08-4.89,9.76-7.77,16.08-8.49,16.4-1.87,32.84,4.96,40.84,19.78,4.4,8.15,5.38,17.48,2.47,26.29-2.42,7.33-8.17,12.78-15.6,15.1.28,3.41,1.42,6.65,3.22,9.6,1.23,2.03-1.29,2.56-.83,5.43.25,1.58-.85,2.81-1.18,4.2-.76,3.28,1.18,8.02.3,8.35-1.05.4-3.61-3.92-4.11-6.84-3.55.95-6.81,5.23-8.6,8.71-1.34,2.61-3.05-4.83,3.32-9.98-2.94-1.15-5.28.88-7.96,1.66,1.71-3.56,5.32-4.96,9.3-5.51.53-1.47,2.06-3.04,2.02-4.72-.09-3.29-1.77-6.23-3.13-9.01-3.12.43-5.84,1.26-8.39,2.89-.94.6-1.44,1.34-1.29,2.56.16,1.29-.55,2.48-1.8,2.93l-7.46,2.69c-6.67,2.41-7.11,6.68-10.81,8.2ZM309.71,69.84c.07,3.67.3,6.69.9,9.87.27,1.17.59,2.23,1.25,3.24,3.32-2.77,7.1-4.89,11.14-6.54.97-2.71,1.76-5.18,3.23-7.64,8.21-1.78,14.61-8.53,14.67-17.21.07-9.97-8.67-20.68-19.3-19.54,1.4-1.59,3.27-2.08,5.36-2.39-4.44-2.07-9.28-1.83-13.86.29.97-1.89,2.49-2.91,4.17-4.19-4.23-.04-8.4,1.11-11.9,3.98.21-2.04,1.81-2.89,2.92-4.35-6.58.19-11.94,5.91-15.55,11.18-1.95-6.19-6.14-8.57-12.41-7.6-3.94,1.07-7.33,3.33-9.57,6.71-2.11,3.17-2.28,6.92-.66,10.39l-5.1,6.78c-4.1,5.46-8.2,10.85-10.88,17.34,6.68-8.75,13.17-17.82,22.41-23.55,3.93,7.26,8.49,13.14,16.76,13.92,4.57,5.62,9.08,9.44,16.41,9.3Z"/>
                <circle class="cls-2" cx="274.76" cy="41.75" r="2.44"/>
              </g>
              <g>
                <path class="cls-2" d="M182.29,103.53c-1.98.71-2.94,1.88-4.32,3.09-2.03,1.78-3.67,3.53-5.01,6.23-1.11-3.61.79-6.52,3.11-9.19l-8.08.14c-2.37.04-4.49.67-6.88,1.62,1.82-4.8,7.11-5.81,12.08-6.21-1.89-1.78-4.3-2.16-7.03-2.98,3.38-1.96,7.27-1.18,10.37.78,1.56-1.07,3.82-.76,5.39-1.63l5.93-5.05,3.15-2.4c1.21-2.46-1.83-4.48-2.23-8.17l-.72-6.48c-5.64-.93-10.62-4.98-14.31-9.41-6.85-.89-12.83-5.84-16.08-12.12-10.46,7.84-17.88,18.52-24.49,30.04-1.89-2.76-2.12-5.89-1.92-8.92,3.8-9.95,10.31-19.17,16.72-27.49-.7-4.01-.38-7.87,1.43-11.41,2.37-4.31,6.35-7.1,11.02-8.54,5.6-1.72,11.48-.25,15.47,4.18,4.22-4.85,9.92-7.77,16.32-8.47,17.81-1.95,35.31,6.44,42.31,23.33,6.14,14.83,1.24,32.96-14.88,37.88.28,3.91,1.84,7.15,3.55,10.36.51,1.08-1.07,2.29-1.13,3.07-.1,1.65.27,3.01-.58,4.52-.66,1.17-.91,2.58-.73,3.96l.74,5.67c-2.32-.61-3.76-4.4-4.47-6.95-3.7,1.33-6.75,5.45-8.55,8.79-1.28,2.39-2.78-5.02,3.27-10-2.71-1.12-5.18.68-7.84,1.79,1.12-3.57,5.51-5.08,9.16-5.62l2.13-3.99c.91-1.7-1.78-7.14-3.21-9.74-3.1.43-5.96,1.26-8.51,2.99-2.28,1.54.04,4.29-2.75,5.29l-7.64,2.77c-6.44,2.33-7.26,7.03-10.8,8.29ZM191.83,69.76c.07,4.45.05,9.9,2.06,13.19,3.48-2.77,7.14-4.95,11.13-6.57.98-2.71,1.72-5.2,3.21-7.63,8.59-1.77,15.13-9.02,14.81-18.03-.33-9.62-8.77-19.78-19.23-18.71,1.15-1.66,2.99-1.92,5-2.42-4.21-2.04-9.04-1.81-13.44.25.79-1.79,2.21-2.69,3.77-4.1-4.15-.09-8.2,1.18-11.73,3.88.48-1.83,1.78-2.84,2.9-4.28-6.58.22-11.85,5.99-15.6,11.19-.86-2.76-2.23-5.26-4.75-6.63-3.17-1.73-7-1.5-10.22.01-6.54,3.08-10.55,9.22-7.49,16.1l-4,5.27c-4.5,5.93-9.06,11.76-11.94,18.83,6.66-8.72,12.85-17.59,22.19-23.55,4.07,6.97,8.47,13.15,16.89,13.95,4.32,5.47,9.29,9.61,16.43,9.24Z"/>
                <circle class="cls-2" cx="156.84" cy="41.75" r="2.46"/>
              </g>
            </g>
          </g>
        </g>
      </g>
      <g>
        <g>
          <polygon class="cls-1" points="812.16 131.75 752.51 131.75 752.51 90.45 809.21 90.45 809.21 65.22 752.51 65.22 752.51 25.24 810.52 25.24 810.52 0 727.6 0 727.6 156.98 812.16 156.98 812.16 131.75"/>
          <polygon class="cls-1" points="1534.82 25.24 1534.82 0 1451.57 0 1451.57 156.98 1536.13 156.98 1536.13 131.75 1476.48 131.75 1476.48 90.45 1533.18 90.45 1533.18 65.22 1476.48 65.22 1476.48 25.24 1534.82 25.24"/>
          <polygon class="cls-1" points="588.64 91.11 660.09 91.11 660.09 156.98 685.33 156.98 685.33 0 660.09 0 660.09 65.87 588.64 65.87 588.64 0 563.74 0 563.74 156.98 588.64 156.98 588.64 91.11"/>
          <path class="cls-1" d="M963.57,159.28c20.32,0,36.71-6.23,47.85-18.03,10.16-11.14,15.73-27.53,15.73-46.21V0h-25.24v91.11c0,15.73-2.29,25.24-7.87,31.46-3.93,3.93-12.45,11.14-29.82,11.14-11.14,0-20.32-3.93-27.53-11.8-5.57-6.23-7.87-13.44-7.87-29.17V.33h-25.24v97.34c0,19.66,6.23,36.05,18.68,47.19,11.47,8.85,25.56,14.42,41.29,14.42Z"/>
          <path class="cls-1" d="M1194.95,156.98V0h-23.6v112.09c-2.29-3.28-88.49-112.09-88.49-112.09h-19.66v156.98h23.6V45.56c2.29,3.28,87.18,111.43,87.18,111.43h20.98Z"/>
          <path class="cls-1" d="M1420.76,0h-25.24s-37.69,98.98-39.33,101.93c-.66-3.28-39.33-101.93-39.33-101.93h-24.58l61.29,158.3h7.87L1420.76,0Z"/>
          <path class="cls-1" d="M1664.93,156.98h29.82l-3.93-6.23c-8.52-12.45-11.8-18.03-17.37-27.53-4.59-8.52-9.5-17.37-14.75-25.24-4.59-6.23-8.52-11.14-13.44-14.75,13.44-7.87,20.32-21.3,20.32-37.69,0-13.44-4.59-25.24-12.45-33.1-8.52-7.87-20.32-11.8-34.41-11.8h-36.71v156.98h25.24v-65.87h5.57c8.52,0,15.73,2.29,33.76,33.76l18.35,31.46ZM1640.67,44.9c0,6.23-1.64,11.8-5.57,14.75-3.93,3.93-10.16,6.23-18.68,6.23h-10.16V23.6h10.16c16.39.98,24.25,7.21,24.25,21.3h0Z"/>
          <path class="cls-1" d="M1756.69,25.24c10.16,0,20.32,4.59,29.82,14.75l3.93,3.93.66.66V11.8h0l-.66-.66C1780.29,3.93,1769.15,0,1758.33,0c-13.44,0-24.25,3.93-32.12,11.8-7.87,7.87-11.8,18.68-11.8,31.46,0,21.96,14.75,33.76,30.48,43.92l3.93,2.29,7.21,4.59c3.93,3.28,7.21,5.57,9.5,7.21,5.57,5.57,8.52,11.14,8.52,17.37s-5.57,16.39-19.66,16.39c-12.45,0-24.25-7.21-33.76-21.3l-3.93-5.57-1.64-1.31.66,37.69h0c11.8,10.16,24.25,14.75,39.98,14.75,11.8,0,21.96-4.59,29.17-12.45,7.21-7.87,11.8-18.68,11.8-31.46,0-25.89-15.73-38.34-30.48-47.85l-11.14-7.21c-3.93-2.29-7.21-4.59-9.5-6.23-5.57-4.59-8.52-9.5-8.52-15.73.66-6.88,8.52-13.11,19.66-13.11Z"/>
          <path class="cls-1" d="M2078.85,156.98h25.24v-81.61L2157.51,0h-30.48s-34.41,48.5-35.4,50.14C2090.98,48.5,2056.24,0,2056.24,0h-30.48s53.42,74.4,53.42,75.38v81.61h-.33Z"/>
          <rect class="cls-1" x="1235.92" width="25.24" height="156.98"/>
          <rect class="cls-1" x="1840.59" width="25.24" height="156.98"/>
          <polygon class="cls-1" points="470.99 156.98 496.22 156.98 496.22 25.24 543.09 25.24 543.09 0 424.12 0 424.12 25.24 470.99 25.24 470.99 156.98"/>
          <polygon class="cls-1" points="1944.16 156.98 1969.06 156.98 1969.06 25.24 2016.26 25.24 2016.26 0 1896.96 0 1896.96 25.24 1944.16 25.24 1944.16 156.98"/>
        </g>
        <g>
          <polygon class="cls-1" points="720.59 310.64 772.4 310.64 772.4 286.68 720.59 286.68 720.59 250.41 772.4 250.41 772.4 226.12 696.63 226.12 696.63 379.62 720.59 379.62 720.59 310.64"/>
          <path class="cls-1" d="M592.68,383.5c22.34,0,41.13-8.42,55.05-23.96,12.31-14.57,20.08-34,20.08-55.05s-7.12-41.13-20.08-55.05c-13.92-15.54-32.71-23.32-54.4-23.32s-40.15,8.42-54.4,23.32c-13.28,14.57-20.08,34-20.08,55.05s7.12,40.15,20.08,55.05c13.28,15.54,32.71,23.96,53.75,23.96ZM557.71,266.6c9.39-10.04,21.7-15.54,34.97-15.54,28.82,0,49.55,22.34,49.55,53.43,0,14.57-4.53,28.82-13.92,38.86-9.39,10.04-21.7,15.54-34.97,15.54s-26.23-5.51-34.97-15.54c-9.39-10.04-13.92-23.32-13.92-38.86-.65-14.57,4.86-28.5,13.28-37.89Z"/>
          <path class="cls-1" d="M1666.26,225.49h-17.57l-60.61,158.1h26.06s17.18-43.82,17.18-44.79h54.44c.39.97,17.95,44.79,17.95,44.79h25.87l-63.32-158.1ZM1640.98,313.71c.39-1.93,15.64-42.08,16.6-44.79,1.35,2.7,17.57,43.05,17.95,44.79h-34.55Z"/>
          <polygon class="cls-1" points="1566.46 358.49 1504.69 358.49 1504.69 226.45 1479.79 226.45 1479.79 383.59 1566.46 383.59 1566.46 358.49"/>
          <path class="cls-1" d="M896.23,338.61h54.44c.39.97,17.95,44.79,17.95,44.79h25.87l-63.32-158.1h-17.57l-60.61,158.1h25.87c.19.19,17.37-43.82,17.37-44.79ZM922.48,268.92c.97,2.7,17.18,43.05,17.95,44.79h-34.55c.39-1.35,15.64-41.5,16.6-44.79Z"/>
          <path class="cls-1" d="M1292.54,371.04v-30.5l-.97.97-3.28,2.32c-14.86,10.62-30.89,16.6-46.14,16.6s-28.57-5.02-37.84-15.25c-9.65-10.23-14.29-23.94-14.29-39.77s5.02-29.54,14.86-39.77c9.65-10.23,22.59-15.64,36.87-15.64,15.25,0,29.15,4.63,45.75,15.25l3.28,1.93.97.39-1.35-30.5h-.58c-18.92-8.69-33.2-12.93-48.07-12.93-44.79,0-77.6,34.55-77.6,82.62,0,17.95,6.95,37.45,17.95,51.35,9.65,12.55,27.8,26.83,58.3,26.83,23.94.39,39.19-6.56,52.12-13.9h0Z"/>
          <path class="cls-1" d="M1378.44,300.77c.97-.97,61.39-74.32,61.39-74.32h-31.47s-51.35,61.97-53.09,64.67v-64.67h-24.9v157.14h25.1v-70.65c2.32,2.32,65.63,70.65,65.63,70.65h34.17s-75.86-81.85-76.83-82.81Z"/>
          <path class="cls-1" d="M2045.2,251.93c-13.32-16.6-33.2-25.48-57.33-25.48h-55.98v157.14h55.98c22.2,0,41.12-8.3,55.02-23.94,12.55-14.28,19.88-34.17,19.88-54.05.39-20.08-6.56-39.38-17.57-53.67ZM1985.55,358.49h-28.57v-107.14h27.8c17.18,0,30.89,5.6,40.15,15.64,8.3,9.27,12.93,22.59,12.93,37.84-.58,20.08-11.58,53.67-52.31,53.67Z"/>
          <path class="cls-1" d="M1071.7,385.32c20.27,0,36.48-5.98,47.68-17.57,10.23-11,15.64-27.22,15.64-46.72v-94.78h-24.9v90.92c0,16.22-2.32,24.9-7.91,31.47-3.67,4.25-12.93,11-30.11,11-11,0-20.27-3.67-27.22-11.97-5.6-6.56-7.34-13.32-7.34-29.54v-92.47h-24.9v97.1c0,19.88,6.56,36.1,18.53,47.1,10.04,10.42,24.9,15.44,40.54,15.44Z"/>
          <path class="cls-1" d="M1867.22,338.61c-2.32-2.7-88.22-112.35-88.22-112.35h-19.5v157.14h23.55v-111.38c2.32,2.7,87.25,111.38,87.25,111.38h20.85v-157.14h-23.94v112.35Z"/>
        </g>
      </g>
    </g>
    <g>
      <path class="cls-1" d="M378.78,532.2h-16.05v-27.81h16.2c4.1,0,7.46,1.29,10.11,3.84,2.63,2.56,3.95,5.88,3.95,9.98s-1.29,7.45-3.88,10.06c-2.59,2.61-6.02,3.92-10.33,3.92Z"/>
      <path class="cls-1" d="M398.44,563.69c0,3.99-1.31,7.34-3.92,10.05s-6.37,4.07-11.29,4.07h-20.51v-28.26h20.51c4.4,0,8.03,1.27,10.9,3.83,2.87,2.57,4.31,5.99,4.31,10.3Z"/>
      <path class="cls-1" d="M1558.89,516.99c-5.55-6.7-13.21-10.05-22.96-10.05s-17.38,3.35-22.89,10.05c-5.5,6.71-8.26,14.82-8.26,24.35s2.78,17.5,8.34,24.23c5.55,6.73,13.14,10.1,22.77,10.1s17.57-3.36,23.08-10.1c5.5-6.73,8.26-14.87,8.26-24.39s-2.78-17.49-8.34-24.2ZM1684.83,516.99c-5.56-6.7-13.21-10.05-22.97-10.05s-17.38,3.35-22.88,10.05c-5.51,6.71-8.26,14.82-8.26,24.35s2.78,17.5,8.33,24.23c5.55,6.73,13.15,10.1,22.77,10.1s17.58-3.36,23.08-10.1c5.5-6.73,8.26-14.87,8.26-24.39s-2.78-17.49-8.33-24.2ZM1684.83,516.99c-5.56-6.7-13.21-10.05-22.97-10.05s-17.38,3.35-22.88,10.05c-5.51,6.71-8.26,14.82-8.26,24.35s2.78,17.5,8.33,24.23c5.55,6.73,13.15,10.1,22.77,10.1s17.58-3.36,23.08-10.1c5.5-6.73,8.26-14.87,8.26-24.39s-2.78-17.49-8.33-24.2ZM1558.89,516.99c-5.55-6.7-13.21-10.05-22.96-10.05s-17.38,3.35-22.89,10.05c-5.5,6.71-8.26,14.82-8.26,24.35s2.78,17.5,8.34,24.23c5.55,6.73,13.14,10.1,22.77,10.1s17.57-3.36,23.08-10.1c5.5-6.73,8.26-14.87,8.26-24.39s-2.78-17.49-8.34-24.2ZM0,462.86v156.95h2158.54v-156.95H0ZM410.42,588.84c-6.5,5.46-14.69,8.18-24.57,8.18l-45.24-.15v-111.37h40.87c8.8,0,16.31,2.73,22.5,8.18,6.19,5.45,9.29,12.53,9.29,21.24,0,10.19-4.41,17.89-13.21,23.11v.31c6.09,2.2,10.97,5.66,14.63,10.37,3.66,4.71,5.49,10.6,5.49,17.66,0,9.52-3.25,17.01-9.76,22.46ZM533.51,557.24c0,13.42-4.17,23.63-12.52,30.65-8.34,7.01-19.22,10.52-32.64,10.52s-24.41-3.47-32.67-10.45c-8.28-6.96-12.41-17.2-12.41-30.72v-71.74h22.12v69.35c0,6.61,2.07,11.88,6.22,15.82,4.14,3.95,9.79,5.92,16.93,5.92s12.73-1.97,16.75-5.92c4.02-3.94,6.02-9.21,6.02-15.82v-69.35h22.2v71.74ZM622.42,589.61c-7.94,5.86-17.66,8.79-29.19,8.79-6.51,0-12.9-.88-19.2-2.64-6.29-1.77-11.44-3.91-15.43-6.42v-25.8c13.41,8.9,25.55,13.36,36.4,13.36,5.02,0,9.12-.98,12.33-2.92,3.2-1.95,4.8-4.53,4.8-7.76,0-1.69-.5-3.3-1.5-4.84-1-1.53-2.18-2.81-3.54-3.83s-3.19-2.13-5.49-3.3c-2.3-1.18-4.25-2.05-5.84-2.61-1.58-.57-3.68-1.33-6.29-2.27s-4.36-1.57-5.22-1.88c-7.99-3.02-14.5-7.23-19.51-12.63-5.02-5.4-7.53-11.99-7.53-19.77,0-9.43,3.7-16.91,11.1-22.47,7.39-5.55,16.5-8.33,27.3-8.33,10.1,0,20.3,2.71,30.65,8.14v23.57c-10.39-6.81-20.4-10.21-30.03-10.21-5.12,0-9.2.86-12.24,2.61-3.05,1.74-4.58,4.02-4.58,6.84,0,1.02.21,1.98.62,2.88s1.06,1.74,1.95,2.53,1.82,1.51,2.77,2.15c.96.65,2.25,1.33,3.92,2.04,1.67.72,3.14,1.35,4.42,1.88,1.27.54,2.96,1.23,5.03,2.08,2.08.84,3.8,1.57,5.19,2.19,4.4,1.89,8.17,3.7,11.32,5.42,3.16,1.72,6.35,3.94,9.6,6.68,3.26,2.73,5.75,5.98,7.49,9.75,1.74,3.77,2.61,7.96,2.61,12.56,0,10.29-3.97,18.37-11.9,24.23ZM680.3,596.87h-22.11v-111.37h22.11v111.37ZM805.62,596.87h-23.12l-50.99-74.27h-.31v74.27h-22.12v-111.06h22.97l51.07,74.27h.31v-74.27h22.2v111.06ZM906.9,596.87h-72.5v-111.37h70.42v21.2h-48.31v23.04h41.09v20.44h-41.09v25.65h50.39v21.04ZM992.51,589.61c-7.95,5.86-17.67,8.79-29.19,8.79-6.51,0-12.9-.88-19.2-2.64-6.3-1.77-11.44-3.91-15.44-6.42v-25.8c13.42,8.9,25.56,13.36,36.4,13.36,5.02,0,9.13-.98,12.34-2.92,3.2-1.95,4.79-4.53,4.79-7.76,0-1.69-.49-3.3-1.49-4.84-1-1.53-2.18-2.81-3.54-3.83-1.36-1.03-3.19-2.13-5.49-3.3-2.3-1.18-4.25-2.05-5.84-2.61-1.58-.57-3.68-1.33-6.29-2.27s-4.36-1.57-5.22-1.88c-7.99-3.02-14.5-7.23-19.51-12.63-5.02-5.4-7.53-11.99-7.53-19.77,0-9.43,3.7-16.91,11.09-22.47,7.4-5.55,16.5-8.33,27.3-8.33,10.09,0,20.3,2.71,30.65,8.14v23.57c-10.39-6.81-20.41-10.21-30.03-10.21-5.12,0-9.2.86-12.25,2.61-3.04,1.74-4.56,4.02-4.56,6.84,0,1.02.21,1.98.62,2.88s1.06,1.74,1.95,2.53,1.82,1.51,2.77,2.15c.95.65,2.25,1.33,3.92,2.04,1.67.72,3.14,1.35,4.42,1.88,1.28.54,2.95,1.23,5.03,2.08s3.8,1.57,5.18,2.19c4.41,1.89,8.18,3.7,11.33,5.42,3.16,1.72,6.35,3.94,9.6,6.68,3.25,2.73,5.75,5.98,7.49,9.75,1.74,3.77,2.6,7.96,2.6,12.56,0,10.29-3.97,18.37-11.89,24.23ZM1088.41,589.61c-7.94,5.86-17.66,8.79-29.19,8.79-6.5,0-12.9-.88-19.2-2.64-6.29-1.77-11.44-3.91-15.43-6.42v-25.8c13.42,8.9,25.55,13.36,36.4,13.36,5.02,0,9.13-.98,12.33-2.92,3.2-1.95,4.8-4.53,4.8-7.76,0-1.69-.5-3.3-1.5-4.84-1-1.53-2.18-2.81-3.54-3.83-1.36-1.03-3.19-2.13-5.49-3.3-2.3-1.18-4.25-2.05-5.83-2.61-1.59-.57-3.69-1.33-6.3-2.27s-4.35-1.57-5.22-1.88c-7.99-3.02-14.5-7.23-19.51-12.63-5.02-5.4-7.53-11.99-7.53-19.77,0-9.43,3.7-16.91,11.1-22.47,7.39-5.55,16.5-8.33,27.31-8.33,10.09,0,20.29,2.71,30.64,8.14v23.57c-10.39-6.81-20.4-10.21-30.03-10.21-5.12,0-9.2.86-12.24,2.61-3.05,1.74-4.58,4.02-4.58,6.84,0,1.02.21,1.98.62,2.88s1.06,1.74,1.96,2.53c.89.79,1.81,1.51,2.77,2.15.95.65,2.25,1.33,3.92,2.04,1.66.72,3.14,1.35,4.41,1.88,1.29.54,2.96,1.23,5.03,2.08,2.08.84,3.8,1.57,5.19,2.19,4.4,1.89,8.17,3.7,11.33,5.42,3.15,1.72,6.34,3.94,9.6,6.68,3.25,2.73,5.74,5.98,7.48,9.75,1.74,3.77,2.61,7.96,2.61,12.56,0,10.29-3.97,18.37-11.9,24.23ZM1219.38,589.61c-7.94,5.86-17.66,8.79-29.19,8.79-6.5,0-12.9-.88-19.19-2.64-6.3-1.77-11.45-3.91-15.44-6.42v-25.8c13.42,8.9,25.55,13.36,36.4,13.36,5.02,0,9.13-.98,12.33-2.92,3.2-1.95,4.8-4.53,4.8-7.76,0-1.69-.5-3.3-1.5-4.84-1-1.53-2.17-2.81-3.53-3.83-1.36-1.03-3.19-2.13-5.49-3.3-2.31-1.18-4.26-2.05-5.84-2.61-1.59-.57-3.69-1.33-6.3-2.27s-4.35-1.57-5.22-1.88c-7.99-3.02-14.49-7.23-19.5-12.63-5.03-5.4-7.54-11.99-7.54-19.77,0-9.43,3.7-16.91,11.1-22.47,7.4-5.55,16.5-8.33,27.31-8.33,10.08,0,20.3,2.71,30.65,8.14v23.57c-10.4-6.81-20.41-10.21-30.04-10.21-5.12,0-9.2.86-12.24,2.61-3.04,1.74-4.58,4.02-4.58,6.84,0,1.02.21,1.98.62,2.88s1.07,1.74,1.96,2.53,1.81,1.51,2.77,2.15c.95.65,2.25,1.33,3.92,2.04,1.66.72,3.14,1.35,4.41,1.88,1.29.54,2.96,1.23,5.04,2.08,2.07.84,3.79,1.57,5.18,2.19,4.4,1.89,8.18,3.7,11.33,5.42,3.15,1.72,6.34,3.94,9.6,6.68,3.25,2.73,5.75,5.98,7.48,9.75,1.74,3.77,2.61,7.96,2.61,12.56,0,10.29-3.97,18.37-11.9,24.23ZM1342.71,519.15c-9.89-8.4-20.51-12.6-31.88-12.6s-20.18,3.21-27.53,9.6c-7.35,6.4-11.02,14.8-11.02,25.2s3.7,18.97,11.09,25.41c7.4,6.46,16.65,9.68,27.77,9.68s21.73-4.2,31.57-12.6v24.35c-10.75,6.81-22.38,10.21-34.87,10.21-16.23,0-29.92-5.48-41.05-16.43-11.13-10.96-16.71-24.51-16.71-40.63s5.55-29.68,16.66-40.63c11.11-10.96,24.81-16.44,41.09-16.44,12.49,0,24.12,3.4,34.87,10.21v24.66ZM1458.73,596.87h-22.2v-46.69h-46.23v46.69h-22.12v-111.37h22.12v44.24h46.23v-44.24h22.2v111.37ZM1574.82,581.97c-9.83,10.95-22.8,16.43-38.93,16.43s-28.94-5.5-38.75-16.51c-9.81-11.01-14.71-24.58-14.71-40.7s4.88-29.65,14.63-40.56c9.76-10.91,22.7-16.36,38.83-16.36s29.24,5.45,39.01,16.36c9.78,10.91,14.67,24.43,14.67,40.56s-4.91,29.82-14.75,40.78ZM1700.76,581.97c-9.83,10.95-22.81,16.43-38.94,16.43s-28.94-5.5-38.75-16.51c-9.81-11.01-14.7-24.58-14.7-40.7s4.87-29.65,14.63-40.56c9.76-10.91,22.69-16.36,38.82-16.36s29.24,5.45,39.01,16.36c9.79,10.91,14.67,24.43,14.67,40.56s-4.91,29.82-14.74,40.78ZM1811.02,596.87h-71.66v-111.37h22.12v90.32h49.53v21.04ZM1661.86,506.93c-9.76,0-17.38,3.35-22.88,10.05-5.51,6.71-8.26,14.82-8.26,24.35s2.78,17.5,8.33,24.23c5.55,6.73,13.15,10.1,22.77,10.1s17.58-3.36,23.08-10.1c5.5-6.73,8.26-14.87,8.26-24.39s-2.78-17.49-8.33-24.2c-5.56-6.7-13.21-10.05-22.97-10.05ZM1535.93,506.93c-9.76,0-17.38,3.35-22.89,10.05-5.5,6.71-8.26,14.82-8.26,24.35s2.78,17.5,8.34,24.23c5.55,6.73,13.14,10.1,22.77,10.1s17.57-3.36,23.08-10.1c5.5-6.73,8.26-14.87,8.26-24.39s-2.78-17.49-8.34-24.2c-5.55-6.7-13.21-10.05-22.96-10.05ZM1558.89,516.99c-5.55-6.7-13.21-10.05-22.96-10.05s-17.38,3.35-22.89,10.05c-5.5,6.71-8.26,14.82-8.26,24.35s2.78,17.5,8.34,24.23c5.55,6.73,13.14,10.1,22.77,10.1s17.57-3.36,23.08-10.1c5.5-6.73,8.26-14.87,8.26-24.39s-2.78-17.49-8.34-24.2ZM1558.89,516.99c-5.55-6.7-13.21-10.05-22.96-10.05s-17.38,3.35-22.89,10.05c-5.5,6.71-8.26,14.82-8.26,24.35s2.78,17.5,8.34,24.23c5.55,6.73,13.14,10.1,22.77,10.1s17.57-3.36,23.08-10.1c5.5-6.73,8.26-14.87,8.26-24.39s-2.78-17.49-8.34-24.2Z"/>
    </g>
  </g>
</svg>